<svg width="43" height="30" viewBox="0 0 43 30" fill="none" xmlns="http://www.w3.org/2000/svg">
<path d="M42.1044 21.6535C42.2184 18.0569 39.7045 14.9632 36.2312 14.2142C36.1612 6.36458 29.7531 0 21.8872 0H21.7805C15.3214 0 9.63605 4.36901 7.96841 10.4955C3.44042 11.228 0 15.1868 0 19.8406V20.1104C0 25.316 4.23532 29.5511 9.44156 29.5511H34.5501C38.7165 29.5511 42.1059 26.1619 42.1059 21.996L42.1044 21.6535ZM39.9256 21.9961C39.9256 24.96 37.514 27.3716 34.5493 27.3716H9.44151C5.43732 27.3716 2.17931 24.1141 2.17931 20.1103V19.8405C2.17931 16.0504 5.14473 12.8596 8.93035 12.5752L9.74488 12.5144L9.91462 11.7154C11.1069 6.10085 15.9861 2.17976 21.7802 2.17976H21.8872C28.5949 2.17976 34.0528 7.63683 34.0528 14.3445V16.1588L35.0551 16.2395C37.8745 16.4666 40.014 18.8145 39.926 21.6194V21.9962L39.9256 21.9961ZM16.5001 16.5536L17.901 15.1529C18.2779 14.7761 18.0087 14.1832 17.5239 14.1832H16.6618C17.2544 12.2973 18.9787 10.9502 21.0261 10.9502C22.4267 10.9502 23.6666 11.5965 24.5283 12.6204C24.5283 12.6204 25.0673 13.3209 25.9834 12.7281C26.6298 12.2974 26.5215 11.7587 26.4141 11.4892C26.4141 11.3812 26.252 11.1659 26.1981 11.1121C24.9593 9.65756 23.1269 8.74137 21.0792 8.74137C17.8462 8.74137 15.0986 11.0582 14.4516 14.1836H13.8053C13.3204 14.1836 13.0513 14.7761 13.2669 15.1533L15.207 17.0927C15.2605 17.1468 15.3146 17.1468 15.3681 17.2007C15.4226 17.2539 15.5303 17.2539 15.5838 17.2539C15.6915 17.2539 15.8536 17.2007 15.961 17.0927L16.5001 16.5536ZM27.0596 14.3444C26.9525 14.2367 26.8439 14.1832 26.6827 14.1832C26.5751 14.1832 26.4129 14.2367 26.3049 14.3444L25.6586 14.9914L24.4197 16.2309C24.0429 16.6077 24.312 17.2012 24.7969 17.2012H25.3359C24.6354 18.8711 23.0187 20.0565 21.0796 20.0565C19.8401 20.0565 18.6548 19.5716 17.8466 18.7096C17.8466 18.7096 17.3076 18.0633 16.3915 18.6555C15.7996 19.0333 15.7996 19.5172 15.9069 19.787C15.9604 19.9482 16.1226 20.1648 16.1761 20.2177C17.4156 21.5117 19.14 22.3192 21.0793 22.3192C24.2582 22.3192 26.8987 20.1107 27.6527 17.2013H28.6224C29.1069 17.2013 29.3771 16.6078 28.9996 16.2842L27.0596 14.3444Z" fill="#006DF6"/>
</svg>
