<svg width="24" height="25" viewBox="0 0 24 25" fill="none" xmlns="http://www.w3.org/2000/svg">
<path d="M12.4997 22.6385H4.07973C2.91973 22.6385 1.96973 21.7085 1.96973 20.5685V5.72853C1.96973 3.10853 3.91973 1.91853 6.30973 3.08853L10.7497 5.26853C11.7097 5.73853 12.4997 6.98853 12.4997 8.04853V22.6385Z" stroke="#006DF6" stroke-width="1.5" stroke-linecap="round" stroke-linejoin="round"/>
<path d="M21.97 15.6981V19.4781C21.97 21.6381 20.97 22.6381 18.81 22.6381H12.5V11.0581L12.97 11.1581L17.47 12.1681L19.5 12.6181C20.82 12.9081 21.9 13.5881 21.96 15.5081C21.97 15.5681 21.97 15.6281 21.97 15.6981Z" stroke="#006DF6" stroke-width="1.5" stroke-linecap="round" stroke-linejoin="round"/>
<path d="M5.5 9.63818H8.97" stroke="#006DF6" stroke-width="1.5" stroke-linecap="round" stroke-linejoin="round"/>
<path d="M5.5 13.6382H8.97" stroke="#006DF6" stroke-width="1.5" stroke-linecap="round" stroke-linejoin="round"/>
<path d="M17.4697 12.1682V15.3882C17.4697 16.6282 16.4597 17.6382 15.2197 17.6382C13.9797 17.6382 12.9697 16.6282 12.9697 15.3882V11.1582L17.4697 12.1682Z" stroke="#006DF6" stroke-width="1.5" stroke-linecap="round" stroke-linejoin="round"/>
<path d="M21.9597 15.5085C21.8997 16.6885 20.9197 17.6385 19.7197 17.6385C18.4797 17.6385 17.4697 16.6285 17.4697 15.3885V12.1685L19.4997 12.6185C20.8197 12.9085 21.8997 13.5885 21.9597 15.5085Z" stroke="#006DF6" stroke-width="1.5" stroke-linecap="round" stroke-linejoin="round"/>
</svg>
