<svg width="38" height="31" viewBox="0 0 38 31" fill="none" xmlns="http://www.w3.org/2000/svg">
<path d="M27.7447 16.5791C27.4985 16.5791 27.2523 16.4559 27.129 16.3329C26.5133 15.9634 26.3901 15.2248 26.7596 14.6091L30.6999 8.57553L26.7596 2.54193C26.3901 1.92624 26.5133 1.18726 27.129 0.818154C27.7447 0.448679 28.4837 0.57194 28.8528 1.18763L33.2859 7.96021C33.5321 8.32969 33.5321 8.9454 33.2859 9.31489L28.8528 16.0875C28.6069 16.3331 28.1142 16.5793 27.7447 16.5793V16.5791Z" fill="#006DF6"/>
<path d="M9.52093 16.5791C9.15145 16.5791 8.78198 16.3329 8.53575 15.9634L4.10263 9.19086C3.85642 8.82139 3.85642 8.20568 4.10263 7.83619L8.53575 1.06361C8.90522 0.447916 9.64384 0.324656 10.2595 0.694131C10.8752 1.06361 10.9985 1.80222 10.629 2.41791L6.68866 8.45151L10.629 14.4851C10.9985 15.1008 10.8752 15.8398 10.2595 16.2089C10.0133 16.4557 9.7671 16.579 9.52087 16.579L9.52093 16.5791Z" fill="#006DF6"/>
<path d="M15.9238 16.5787C15.8005 16.5787 15.5543 16.5787 15.4313 16.4554C14.8156 16.2092 14.4461 15.4703 14.8156 14.8546L20.2335 1.43254C20.4798 0.816855 21.2187 0.447365 21.8344 0.816855C22.4501 1.06307 22.8196 1.80204 22.4501 2.41773L17.0322 15.8398C16.7857 16.2092 16.4162 16.5787 15.9238 16.5787H15.9238Z" fill="#006DF6"/>
<path d="M6.93469 25.6908H1.39349C0.654538 25.6908 0.162109 25.1984 0.162109 24.4594C0.162109 23.7205 0.654538 23.228 1.39349 23.228H6.93469C7.67364 23.228 8.16607 23.7205 8.16607 24.4594C8.16607 25.1984 7.67364 25.6908 6.93469 25.6908Z" fill="#006DF6"/>
<path d="M22.5731 25.6913H14.8154C14.0764 25.6913 13.584 25.1988 13.584 24.4599C13.584 23.7209 14.0764 23.2285 14.8154 23.2285H22.5731C23.312 23.2285 23.8044 23.7209 23.8044 24.4599C23.8044 25.1988 23.1887 25.6913 22.5731 25.6913Z" fill="#006DF6"/>
<path d="M35.8722 25.6908H30.331C29.592 25.6908 29.0996 25.1984 29.0996 24.4594C29.0996 23.7205 29.592 23.228 30.331 23.228H35.8722C36.6111 23.228 37.1036 23.7205 37.1036 24.4594C37.1036 25.1984 36.6111 25.6908 35.8722 25.6908Z" fill="#006DF6"/>
<path d="M35.8721 30.6166H1.39349C0.654538 30.6166 0.162109 30.1241 0.162109 29.3852C0.162109 28.6462 0.654538 28.1538 1.39349 28.1538H35.8721C36.611 28.1538 37.1035 28.6462 37.1035 29.3852C37.1035 30.1241 36.611 30.6166 35.8721 30.6166Z" fill="#006DF6"/>
</svg>
