<svg width="24" height="25" viewBox="0 0 24 25" fill="none" xmlns="http://www.w3.org/2000/svg">
<path d="M16.7002 19.4794H7.3002C6.8802 19.4794 6.4102 19.1494 6.2702 18.7494L2.1302 7.16937C1.5402 5.50938 2.2302 4.99937 3.6502 6.01937L7.5502 8.80938C8.2002 9.25937 8.9402 9.02937 9.2202 8.29937L10.9802 3.60937C11.5402 2.10938 12.4702 2.10938 13.0302 3.60937L14.7902 8.29937C15.0702 9.02937 15.8102 9.25937 16.4502 8.80938L20.1102 6.19937C21.6702 5.07937 22.4202 5.64938 21.7802 7.45937L17.7402 18.7694C17.5902 19.1494 17.1202 19.4794 16.7002 19.4794Z" stroke="#006DF6" stroke-width="1.5" stroke-linecap="round" stroke-linejoin="round"/>
<path d="M6.5 22.499H17.5" stroke="#006DF6" stroke-width="1.5" stroke-linecap="round" stroke-linejoin="round"/>
<path d="M9.50098 14.5H14.501" stroke="#006DF6" stroke-width="1.5" stroke-linecap="round" stroke-linejoin="round"/>
</svg>
