<svg width="25" height="25" viewBox="0 0 25 25" fill="none" xmlns="http://www.w3.org/2000/svg">
<path d="M12.7905 22.3669C18.3888 22.3669 22.9272 17.8285 22.9272 12.2302C22.9272 6.63185 18.3888 2.09351 12.7905 2.09351C7.19216 2.09351 2.65381 6.63185 2.65381 12.2302C2.65381 17.8285 7.19216 22.3669 12.7905 22.3669Z" stroke="#909EB8" stroke-width="1.87989" stroke-linecap="round" stroke-linejoin="round"/>
<path d="M8.73591 3.10718H9.74958C7.77293 9.027 7.77293 15.4334 9.74958 21.3532H8.73591" stroke="#909EB8" stroke-width="1.87989" stroke-linecap="round" stroke-linejoin="round"/>
<path d="M15.8315 3.10718C17.8082 9.027 17.8082 15.4334 15.8315 21.3532" stroke="#909EB8" stroke-width="1.87989" stroke-linecap="round" stroke-linejoin="round"/>
<path d="M3.66748 16.2849V15.2712C9.5873 17.2479 15.9937 17.2479 21.9135 15.2712V16.2849" stroke="#909EB8" stroke-width="1.87989" stroke-linecap="round" stroke-linejoin="round"/>
<path d="M3.66748 9.18922C9.5873 7.21256 15.9937 7.21256 21.9135 9.18922" stroke="#909EB8" stroke-width="1.87989" stroke-linecap="round" stroke-linejoin="round"/>
</svg>
