<svg width="35" height="35" viewBox="0 0 35 35" fill="none" xmlns="http://www.w3.org/2000/svg">
<path d="M25.7944 10.3301V24.6347C25.7944 25.5216 25.7658 26.3084 25.6657 27.0093C25.2508 30.7714 23.4771 31.787 18.6421 31.787H15.7812C10.9462 31.787 9.17248 30.7714 8.75765 27.0093C8.65752 26.3084 8.62891 25.5216 8.62891 24.6347V10.3301C8.62891 9.44326 8.65752 8.65651 8.75765 7.95559C9.17248 4.19348 10.9462 3.17786 15.7812 3.17786H18.6421C23.4771 3.17786 25.2508 4.19348 25.6657 7.95559C25.7658 8.65651 25.7944 9.44326 25.7944 10.3301Z" stroke="#909EB8" stroke-width="2.4" stroke-linecap="round" stroke-linejoin="round"/>
<path d="M8.62808 24.6347C8.62808 25.5216 8.65669 26.3084 8.75682 27.0093C8.55656 27.0236 8.3706 27.0236 8.15603 27.0236H7.66967C3.86466 27.0236 2.90625 26.0652 2.90625 22.2459V12.719C2.90625 8.89969 3.86466 7.94128 7.66967 7.94128H8.15603C8.3706 7.94128 8.55656 7.94128 8.75682 7.95559C8.65669 8.65651 8.62808 9.44326 8.62808 10.3301V24.6347Z" stroke="#909EB8" stroke-width="2.4" stroke-linecap="round" stroke-linejoin="round"/>
<path d="M31.5156 12.719V22.2459C31.5156 26.0652 30.5572 27.0236 26.7522 27.0236H26.2658C26.0513 27.0236 25.8653 27.0236 25.665 27.0093C25.7652 26.3084 25.7938 25.5216 25.7938 24.6347V10.3301C25.7938 9.44326 25.7652 8.65651 25.665 7.95559C25.8653 7.94128 26.0513 7.94128 26.2658 7.94128H26.7522C30.5572 7.94128 31.5156 8.89969 31.5156 12.719Z" stroke="#909EB8" stroke-width="2.4" stroke-linecap="round" stroke-linejoin="round"/>
</svg>
