<svg width="37" height="42" viewBox="0 0 37 42" fill="none" xmlns="http://www.w3.org/2000/svg">
<path d="M18.4914 0C17.0312 0 15.6829 0.700169 14.5522 1.81578C13.4215 2.93174 12.4644 4.4661 11.6671 6.32598C11.4661 6.79505 11.2762 7.29583 11.0961 7.80511C10.5603 7.70541 10.0403 7.61716 9.52901 7.55603C8.52417 7.43606 7.56905 7.38704 6.67342 7.4243C5.77779 7.46156 4.94977 7.59427 4.18393 7.80511C2.65216 8.22646 1.37018 9.04458 0.639902 10.3093C-0.0900163 11.5737 -0.156367 13.0924 0.244378 14.6293C0.645458 16.1663 1.49239 17.7536 2.70441 19.3739C3.01135 19.7841 3.3477 20.2065 3.70004 20.6187C3.34767 21.0308 3.01131 21.4385 2.70441 21.8487C1.49205 23.4693 0.645123 25.0563 0.244378 26.5933C-0.156702 28.1302 -0.0903426 29.6633 0.639902 30.928C1.36982 32.1923 2.65216 33.0109 4.18393 33.4322C5.7157 33.8535 7.51934 33.9062 9.52901 33.6666C10.0402 33.6054 10.5603 33.5319 11.0961 33.4322C11.2762 33.9408 11.4661 34.4276 11.6671 34.8966C12.4644 36.7568 13.4215 38.3059 14.5522 39.4215C15.6829 40.5375 17.0312 41.2373 18.4914 41.2373C19.9515 41.2373 21.2998 40.5371 22.4305 39.4215C23.5612 38.3056 24.5183 36.7568 25.3156 34.8966C25.5166 34.4275 25.7065 33.9408 25.8866 33.4322C26.4224 33.5319 26.9424 33.6054 27.4537 33.6666C29.4634 33.9062 31.267 33.8535 32.7988 33.4322C34.3305 33.0109 35.6125 32.1927 36.3428 30.928C37.0727 29.6637 37.1391 28.1306 36.7383 26.5933C36.3372 25.0563 35.4903 23.469 34.2783 21.8487C33.9713 21.4384 33.635 21.0308 33.2827 20.6187C33.635 20.2065 33.9714 19.7841 34.2783 19.3739C35.4907 17.7536 36.3376 16.1663 36.7383 14.6293C37.1394 13.0924 37.073 11.5737 36.3428 10.3093C35.6129 9.045 34.3305 8.22644 32.7988 7.80511C32.0329 7.5946 31.2049 7.46156 30.3093 7.4243C29.4137 7.38704 28.4585 7.43639 27.4537 7.55603C26.9425 7.61715 26.4224 7.70541 25.8866 7.80511C25.7065 7.29617 25.5166 6.79509 25.3156 6.32598C24.5183 4.46577 23.5612 2.9314 22.4305 1.81578C21.2998 0.699818 19.9515 0 18.4914 0ZM18.4914 1.87427C19.3605 1.87427 20.2251 2.2724 21.1126 3.14847C22.0003 4.02452 22.858 5.35688 23.5873 7.0586C23.7445 7.42503 23.8965 7.81695 24.0413 8.21539C22.2681 8.66746 20.3996 9.3219 18.4913 10.1486C16.583 9.32191 14.7146 8.66785 12.9413 8.21539C13.0858 7.81694 13.2381 7.42501 13.3954 7.0586C14.1246 5.35721 14.9827 4.02452 15.8701 3.14847C16.7579 2.27242 17.6222 1.87427 18.4913 1.87427H18.4914ZM6.76105 9.31328C7.53934 9.28059 8.38988 9.30609 9.30903 9.41592C9.70782 9.46332 10.119 9.53164 10.539 9.60616C10.0432 11.369 9.66501 13.308 9.42601 15.3758C7.75601 16.6163 6.25269 17.9166 4.97431 19.2271C4.70398 18.9054 4.45 18.5776 4.21268 18.2605C3.10358 16.7781 2.36025 15.3522 2.04553 14.1454C1.73075 12.9386 1.81606 11.9985 2.25048 11.246C2.6849 10.4932 3.47891 9.93662 4.68148 9.60574C5.2826 9.44034 5.98245 9.34555 6.7611 9.31286L6.76105 9.31328ZM29.0049 9.31328C29.4299 9.29726 29.8313 9.29694 30.2202 9.31328C30.9985 9.34597 31.6984 9.44076 32.2999 9.60616C33.5024 9.93696 34.296 10.4936 34.7309 11.2465C35.1653 11.9993 35.2506 12.9393 34.9358 14.1458C34.621 15.3527 33.8774 16.7785 32.7686 18.2609C32.5317 18.5776 32.2774 18.9058 32.007 19.2275C30.7286 17.917 29.2253 16.6164 27.5553 15.3763C27.3164 13.3084 26.9382 11.3694 26.4423 9.60658C26.8623 9.53173 27.2739 9.46374 27.6723 9.41634C28.1319 9.36143 28.5801 9.32972 29.005 9.3137L29.0049 9.31328ZM12.3693 10.0017C13.5866 10.3086 14.8614 10.7283 16.1768 11.2317C15.3873 11.6292 14.596 12.0342 13.8043 12.4912C13.0171 12.9455 12.2696 13.4293 11.5344 13.9118C11.757 12.5229 12.026 11.2079 12.3693 10.0017H12.3693ZM24.6117 10.0017C24.9546 11.2079 25.224 12.5226 25.4466 13.9118C24.7114 13.4297 23.9638 12.9459 23.1767 12.4912C22.3851 12.0342 21.5937 11.6292 20.8042 11.2317C22.1196 10.7283 23.3944 10.3086 24.6117 10.0017H24.6117ZM18.4907 12.1983C19.7279 12.7628 20.9867 13.3933 22.2396 14.1167C23.4902 14.8388 24.6641 15.6139 25.7689 16.4013C25.9007 17.7621 25.9886 19.1653 25.9886 20.6186C25.9886 22.0664 25.9144 23.4821 25.7837 24.8359C24.6759 25.6257 23.4942 26.3818 22.2396 27.1058C20.9867 27.8291 19.7279 28.4744 18.4907 29.039C17.2535 28.4744 15.9946 27.8295 14.7417 27.1058C13.4875 26.3817 12.3055 25.626 11.1977 24.8359C11.0669 23.4817 10.9927 22.066 10.9927 20.6186C10.9927 19.1653 11.0807 17.7617 11.2124 16.4013C12.3172 15.6139 13.491 14.8388 14.7417 14.1167C15.9946 13.3934 17.2534 12.7628 18.4907 12.1983H18.4907ZM18.4907 17.3384C16.6902 17.3384 15.2105 18.8182 15.2105 20.6186C15.2105 22.419 16.6903 23.8988 18.4907 23.8988C20.2911 23.8988 21.7709 22.419 21.7709 20.6186C21.7709 18.8182 20.2911 17.3384 18.4907 17.3384ZM9.20635 17.9242C9.15536 18.8094 9.11842 19.7014 9.11842 20.6186C9.11842 21.5306 9.15601 22.4331 9.20635 23.313C8.10972 22.4229 7.10974 21.5221 6.23378 20.6186C7.10983 19.7148 8.11006 18.8143 9.20635 17.9242ZM27.775 17.9242C28.8716 18.8143 29.8716 19.7151 30.7476 20.6186C29.8715 21.5225 28.8713 22.4229 27.775 23.313C27.8253 22.4331 27.8629 21.5306 27.8629 20.6186C27.8629 19.7014 27.826 18.8094 27.775 17.9242ZM18.4907 19.2127C19.2781 19.2127 19.8966 19.8312 19.8966 20.6186C19.8966 21.4061 19.2781 22.0245 18.4907 22.0245C17.7032 22.0245 17.0848 21.4061 17.0848 20.6186C17.0848 19.8312 17.7032 19.2127 18.4907 19.2127ZM4.97464 22.0098C6.25244 23.3196 7.75735 24.6068 9.42635 25.8464C9.66432 27.9125 10.0298 29.8545 10.5247 31.6161C10.1092 31.6896 9.70354 31.7595 9.30936 31.8063C7.47133 32.0256 5.88433 31.9465 4.68176 31.6161C3.47919 31.2853 2.68557 30.7433 2.25076 29.9905C1.81635 29.2377 1.73103 28.2832 2.04581 27.0764C2.36059 25.8696 3.1042 24.4437 4.21297 22.9613C4.44995 22.6446 4.70426 22.3311 4.97459 22.0095L4.97464 22.0098ZM32.0076 22.0098C32.2779 22.3315 32.5319 22.6449 32.7692 22.9617C33.8783 24.4441 34.6216 25.8699 34.9363 27.0767C35.2511 28.2836 35.1658 29.238 34.7314 29.9908C34.2966 30.7436 33.503 31.2856 32.3004 31.6164C31.0978 31.9472 29.5112 32.026 27.6728 31.8066C27.2786 31.7596 26.8726 31.6899 26.4575 31.6164C26.9524 29.8545 27.3178 27.9129 27.5558 25.8467C29.2248 24.6069 30.7301 23.3197 32.0075 22.0101L32.0076 22.0098ZM11.5201 27.3254C12.2582 27.8099 13.014 28.2747 13.8047 28.7313C14.5964 29.1883 15.3877 29.6081 16.1772 30.0055C14.8618 30.5089 13.587 30.9286 12.3697 31.2356C12.0262 30.0287 11.7431 28.7154 11.5205 27.3254H11.5201ZM25.4612 27.3254C25.2386 28.7149 24.9556 30.0287 24.6121 31.2356C23.3948 30.9286 22.12 30.5089 20.8046 30.0055C21.594 29.6081 22.3854 29.1887 23.1771 28.7313C23.9678 28.2747 24.7235 27.8102 25.4617 27.3254H25.4612ZM18.4906 31.0891C20.3989 31.9158 22.2673 32.5698 24.0406 33.0223C23.8968 33.4185 23.7432 33.7996 23.5866 34.1644C22.8573 35.8658 21.9992 37.1984 21.1118 38.0745C20.2241 38.9505 19.3597 39.363 18.4906 39.363C17.6215 39.363 16.7568 38.9505 15.8694 38.0745C14.9817 37.1984 14.1239 35.8661 13.3947 34.1644C13.2384 33.7996 13.0848 33.4184 12.9406 33.0223C14.7139 32.5702 16.5824 31.9158 18.4906 31.0891H18.4906Z" fill="#006DF6"/>
</svg>
