<svg width="35" height="35" viewBox="0 0 35 35" fill="none" xmlns="http://www.w3.org/2000/svg">
<path d="M13.4853 6.96924H8.26373C7.34051 6.96924 6.4551 7.34863 5.80228 8.02396C5.14946 8.69929 4.78271 9.61523 4.78271 10.5703V26.775C4.78271 27.7301 5.14946 28.646 5.80228 29.3213C6.4551 29.9967 7.34051 30.3761 8.26373 30.3761H23.9283C24.8515 30.3761 25.7369 29.9967 26.3897 29.3213C27.0426 28.646 27.4093 27.7301 27.4093 26.775V21.3734" stroke="#909EB8" stroke-width="2.4" stroke-linecap="round" stroke-linejoin="round"/>
<path d="M25.8488 13.9912C28.8652 13.9912 31.3104 11.546 31.3104 8.52965C31.3104 5.51329 28.8652 3.06805 25.8488 3.06805C22.8324 3.06805 20.3872 5.51329 20.3872 8.52965C20.3872 11.546 22.8324 13.9912 25.8488 13.9912Z" stroke="#909EB8" stroke-width="2.4" stroke-linecap="round" stroke-linejoin="round"/>
</svg>
