<svg width="39" height="39" viewBox="0 0 39 39" fill="none" xmlns="http://www.w3.org/2000/svg">
<path d="M33.6672 1.00677C33.4982 1.0276 33.3396 1.09994 33.2135 1.21424L29.4802 4.53285L29.48 4.53256C29.3046 4.6917 29.2057 4.91826 29.2077 5.15495V8.95297L26.589 11.5716C23.8711 9.13356 20.2805 7.644 16.3482 7.644C7.88151 7.644 1 14.5254 1 22.9922C1 31.4589 7.88136 38.3404 16.3482 38.3404C24.8149 38.3404 31.6964 31.4591 31.6964 22.9922C31.6964 19.0564 30.2109 15.4574 27.7688 12.7381L30.3744 10.1325H34.1858C34.4245 10.1313 34.651 10.0274 34.8079 9.84715L38.1265 6.11395C38.3392 5.86915 38.3898 5.5228 38.2561 5.22735C38.1224 4.93192 37.8284 4.74124 37.5041 4.73979H34.6005V1.83615C34.6025 1.59685 34.5009 1.36856 34.3221 1.2097C34.1433 1.05056 33.9046 0.976488 33.6673 1.00658L33.6672 1.00677ZM32.9412 3.67723V5.5699V5.56961C32.9412 6.02795 33.3127 6.39917 33.7707 6.39947H35.6504L33.8098 8.47355H30.867V5.51813L32.9412 3.67723ZM16.3485 9.3031C19.8338 9.3031 23.0079 10.5997 25.4226 12.7383L22.4799 15.6811C20.8207 14.287 18.679 13.4513 16.3485 13.4513C11.0892 13.4513 6.80772 17.7325 6.80772 22.992C6.80772 28.2513 11.089 32.5328 16.3485 32.5328C21.6078 32.5328 25.8893 28.2516 25.8893 22.992C25.8893 20.6584 25.0438 18.5204 23.6468 16.8607L26.5896 13.9179C28.7314 16.3331 30.0378 19.5036 30.0378 22.992C30.0378 30.5625 23.9189 36.681 16.3489 36.681C8.77847 36.681 2.65993 30.5621 2.65993 22.992C2.65993 15.4216 8.77884 9.3031 16.3489 9.3031H16.3485ZM16.3485 15.1104C18.2272 15.1104 19.9481 15.7687 21.3005 16.8604L18.6301 19.5308C17.9753 19.098 17.1876 18.8439 16.3485 18.8439C14.0672 18.8439 12.2003 20.7108 12.2003 22.9921C12.2003 25.2734 14.0672 27.1403 16.3485 27.1403C18.6298 27.1403 20.4967 25.2734 20.4967 22.9921C20.4967 22.1507 20.2319 21.3665 19.7967 20.7105L22.4672 18.0401C23.5618 19.3931 24.2302 21.1104 24.2302 22.9921C24.2302 27.3547 20.7114 30.8736 16.3487 30.8736C11.986 30.8736 8.4672 27.3548 8.4672 22.9921C8.4672 18.6295 11.986 15.1106 16.3487 15.1106L16.3485 15.1104ZM16.3485 20.5031C16.7316 20.5031 17.0887 20.5977 17.4116 20.7493L15.7652 22.3958C15.6034 22.5491 15.5105 22.7612 15.5071 22.9843C15.5036 23.2071 15.5901 23.4221 15.7466 23.5807C15.9035 23.7392 16.1173 23.8278 16.3404 23.8269C16.5632 23.8257 16.7765 23.7352 16.9318 23.5755L18.591 21.9163C18.7458 22.2419 18.8372 22.605 18.8372 22.9921C18.8372 24.3764 17.7327 25.4812 16.3481 25.4812C14.9638 25.4812 13.8591 24.3767 13.8591 22.9921C13.8591 21.6078 14.9635 20.5034 16.3481 20.5034L16.3485 20.5031Z" fill="#006DF6" stroke="#006DF6" stroke-width="0.2"/>
</svg>
