<svg width="34" height="41" viewBox="0 0 34 41" fill="none" xmlns="http://www.w3.org/2000/svg">
<path d="M32.529 26.8082L13.1396 13.8975L14.6261 37.1447L19.7107 31.4302L24.5958 39.8912L30.1032 36.7115L25.253 28.31L32.529 26.8082ZM27.9639 36.1379L25.1689 37.7516L19.9823 28.7689L15.9491 33.3021L14.9036 16.9537L28.5397 26.0333L22.8127 27.2155L27.9639 36.1379Z" fill="#006DF6" stroke="#006DF6" stroke-width="0.4"/>
<path d="M14.0563 8.34315V1.94513C14.0563 1.51281 13.7056 1.16211 13.2733 1.16211C12.8409 1.16211 12.4902 1.51279 12.4902 1.94513V8.34315C12.4902 8.77546 12.8409 9.12617 13.2733 9.12617C13.7056 9.12617 14.0563 8.77549 14.0563 8.34315Z" fill="#006DF6" stroke="#006DF6" stroke-width="0.4"/>
<path d="M8.45014 13.931C8.45014 13.4987 8.09946 13.1479 7.66712 13.1479H1.2691C0.836787 13.1479 0.486084 13.4986 0.486084 13.931C0.486084 14.3633 0.836764 14.714 1.2691 14.714H7.66712C8.09944 14.714 8.45014 14.3633 8.45014 13.931Z" fill="#006DF6" stroke="#006DF6" stroke-width="0.4"/>
<path d="M18.0791 13.95C18.0791 14.3823 18.4298 14.733 18.8621 14.733H25.2601C25.6928 14.733 26.0432 14.3824 26.0432 13.95C26.0432 13.5177 25.6928 13.167 25.2601 13.167H18.8618C18.4298 13.167 18.0791 13.5177 18.0791 13.95Z" fill="#006DF6" stroke="#006DF6" stroke-width="0.4"/>
<path d="M17.2289 10.7716C17.4297 10.7716 17.6296 10.695 17.7824 10.5422L22.307 6.01797C22.6132 5.71228 22.6132 5.21679 22.307 4.91139C22.0013 4.60571 21.5058 4.60571 21.2004 4.91139L16.6756 9.43561C16.3699 9.741 16.3699 10.2365 16.6756 10.5422C16.8287 10.6953 17.0289 10.7716 17.2288 10.7716H17.2289Z" fill="#006DF6" stroke="#006DF6" stroke-width="0.4"/>
<path d="M8.74732 17.3383L4.22341 21.8622C3.91772 22.1676 3.91772 22.663 4.22341 22.9687C4.37625 23.1216 4.57676 23.1982 4.77698 23.1982C4.9772 23.1982 5.17771 23.1216 5.33026 22.9687L9.85394 18.4445C10.1596 18.1391 10.1596 17.6437 9.85394 17.338C9.54825 17.0314 9.05307 17.0323 8.74737 17.3383L8.74732 17.3383Z" fill="#006DF6" stroke="#006DF6" stroke-width="0.4"/>
<path d="M5.34255 4.89843C5.03686 4.59215 4.54138 4.59275 4.23537 4.89843C3.92968 5.20382 3.92968 5.6993 4.23537 6.005L8.75989 10.5292C8.91273 10.6821 9.11325 10.7586 9.31346 10.7586C9.51368 10.7586 9.7142 10.6818 9.86674 10.5292C10.173 10.2235 10.173 9.72805 9.86674 9.42265L5.34255 4.89843Z" fill="#006DF6" stroke="#006DF6" stroke-width="0.4"/>
</svg>
