<svg width="229" height="159" viewBox="0 0 229 159" fill="none" xmlns="http://www.w3.org/2000/svg">
<path d="M6.11872 90.1016C5.37392 90.2031 4.69684 90.1693 4.08747 90C3.47809 89.8307 2.92796 89.5684 2.43708 89.2129C1.96312 88.8574 1.5484 88.4342 1.19293 87.9434C0.854393 87.4525 0.575096 86.9277 0.355044 86.3691C0.2027 85.2181 0.245018 84.1771 0.481997 83.2461C0.718976 82.2982 1.06598 81.4264 1.52301 80.6309C1.98004 79.8353 2.49632 79.0905 3.07184 78.3965C3.66429 77.7025 4.23135 77.0339 4.77301 76.3906C4.8915 76.4414 4.9846 76.4414 5.05231 76.3906C5.13695 76.3398 5.20465 76.2721 5.25543 76.1875C5.32314 76.1029 5.39085 76.0182 5.45856 75.9336C5.5432 75.849 5.63629 75.7897 5.73786 75.7559C5.80557 75.6035 5.8902 75.4766 5.99176 75.375C6.11025 75.2734 6.22874 75.1803 6.34723 75.0957C6.48265 74.9941 6.60114 74.8926 6.7027 74.791C6.82119 74.6895 6.92275 74.5625 7.00739 74.4102C7.17666 74.3763 7.32054 74.3171 7.43903 74.2324C7.57445 74.1478 7.69293 74.0547 7.7945 73.9531C7.91299 73.8516 8.03148 73.7585 8.14997 73.6738C8.26846 73.5892 8.41234 73.5215 8.58161 73.4707V73.1406C8.954 72.9714 9.22484 72.7852 9.39411 72.582C9.56338 72.3789 9.7665 72.1165 10.0035 71.7949C10.1897 71.778 10.3336 71.7695 10.4351 71.7695C10.5536 71.7695 10.7313 71.7526 10.9683 71.7188C11.1207 71.431 11.2645 71.2194 11.4 71.084C11.5354 70.9486 11.73 70.7962 11.984 70.627C12.2379 70.7624 12.5087 70.847 12.7965 70.8809C13.0842 70.8978 13.3466 71.0247 13.5836 71.2617C13.6005 71.4648 13.6597 71.6257 13.7613 71.7441C13.8629 71.8457 13.9729 71.9473 14.0914 72.0488C14.2099 72.1335 14.3284 72.2266 14.4468 72.3281C14.5653 72.4297 14.6415 72.5736 14.6754 72.7598C14.76 72.7598 14.8108 72.7428 14.8277 72.709C14.8616 72.6751 14.9208 72.6667 15.0054 72.6836C15.0393 72.819 15.0731 72.929 15.107 73.0137C15.1409 73.0983 15.1747 73.1745 15.2086 73.2422C15.2593 73.3099 15.3017 73.3861 15.3355 73.4707C15.3863 73.5553 15.4286 73.6569 15.4625 73.7754C15.3778 73.9785 15.3017 74.1986 15.234 74.4355C15.1662 74.6556 15.0308 74.8079 14.8277 74.8926C14.8277 75.028 14.8785 75.1042 14.98 75.1211C15.0816 75.1211 15.1409 75.1803 15.1578 75.2988C15.1747 75.4512 15.1493 75.5781 15.0816 75.6797C15.5556 76.4753 15.9872 77.3132 16.3765 78.1934C16.7659 79.0566 17.206 79.8861 17.6968 80.6816C17.663 80.9186 17.6714 81.1556 17.7222 81.3926C17.7899 81.6126 17.8661 81.8327 17.9507 82.0527C18.0523 82.2728 18.1454 82.4928 18.23 82.7129C18.3147 82.9329 18.3739 83.153 18.4078 83.373C18.4416 83.6608 18.4416 83.974 18.4078 84.3125C18.3739 84.6341 18.3062 84.9473 18.2047 85.252C18.1031 85.5566 17.9677 85.8444 17.7984 86.1152C17.6291 86.3691 17.4345 86.5638 17.2144 86.6992C16.9436 87.0378 16.605 87.3171 16.1988 87.5371C15.7925 87.7402 15.4201 87.9857 15.0816 88.2734C14.8446 88.4089 14.5907 88.5104 14.3199 88.5781C14.0491 88.6289 13.7698 88.6882 13.482 88.7559C13.2619 88.8913 12.9996 89.0267 12.6949 89.1621C12.3902 89.2806 12.077 89.3906 11.7554 89.4922C11.4338 89.5938 11.1122 89.6784 10.7906 89.7461C10.469 89.7969 10.1812 89.8053 9.92731 89.7715C9.31793 89.9915 8.72549 90.1439 8.14997 90.2285C7.57445 90.3132 6.89736 90.2708 6.11872 90.1016ZM6.44879 80.8594C6.27952 81.2487 6.0764 81.6042 5.83942 81.9258C5.61937 82.2305 5.39932 82.5436 5.17926 82.8652C4.95921 83.1868 4.76455 83.5339 4.59528 83.9062C4.44293 84.2617 4.3583 84.6849 4.34137 85.1758C4.67991 85.4635 5.0777 85.6413 5.53473 85.709C6.00869 85.7598 6.49111 85.7682 6.982 85.7344C7.47288 85.6836 7.96377 85.6159 8.45465 85.5312C8.94554 85.4466 9.38564 85.4043 9.77497 85.4043C9.77497 85.252 9.84267 85.1758 9.97809 85.1758C10.689 85.1081 11.3492 84.9134 11.9586 84.5918C12.5679 84.2533 13.2027 83.9147 13.8629 83.5762C13.9475 83.373 14.0575 83.1953 14.1929 83.043C14.3284 82.8906 14.4045 82.6706 14.4215 82.3828C14.3368 82.2305 14.2776 82.1035 14.2437 82.002C14.2268 81.9004 14.2183 81.748 14.2183 81.5449C13.7782 80.9355 13.3974 80.2754 13.0757 79.5645C12.7541 78.8366 12.3817 78.151 11.9586 77.5078C11.9247 77.5924 11.857 77.6771 11.7554 77.7617C11.6539 77.8464 11.5438 77.8294 11.4254 77.7109C11.3746 77.8802 11.2984 77.9987 11.1968 78.0664C11.0953 78.1172 10.9768 78.1426 10.8414 78.1426C10.7229 78.1426 10.5959 78.1172 10.4605 78.0664C10.342 78.0156 10.232 77.9479 10.1304 77.8633C9.53799 78.3372 8.94554 78.7943 8.35309 79.2344C7.77757 79.6745 7.25283 80.1908 6.77887 80.7832C6.69424 80.834 6.64346 80.8509 6.62653 80.834C6.6096 80.8171 6.55036 80.8255 6.44879 80.8594Z" fill="#00408F"/>
<path d="M33.8199 75.5527C33.8537 75.9251 33.913 76.2467 33.9976 76.5176C34.0823 76.7884 34.1754 77.0508 34.2769 77.3047C34.3616 77.5417 34.4377 77.7786 34.5054 78.0156C34.5901 78.2357 34.6493 78.5065 34.6832 78.8281C34.5478 79.2682 34.4462 79.6745 34.3785 80.0469C34.3277 80.4193 34.2685 80.8086 34.2007 81.2148C33.9299 81.8073 33.6675 82.332 33.4136 82.7891C33.1597 83.2461 32.9566 83.6439 32.8043 83.9824C32.7196 84.0671 32.6435 84.1686 32.5757 84.2871C32.525 84.3887 32.4657 84.4987 32.398 84.6172C32.3642 84.668 32.3218 84.7441 32.2711 84.8457C32.2203 84.9473 32.178 85.015 32.1441 85.0488L31.6363 84.8711L31.5347 85.5059L31.1793 85.6074L30.9254 85.9121C30.6037 86.4707 30.2652 86.9447 29.9097 87.334C29.5543 87.7064 29.148 88.0449 28.691 88.3496C28.2509 88.6374 27.7431 88.9082 27.1675 89.1621C26.6089 89.416 25.9742 89.6953 25.2632 90C24.9755 89.9661 24.7216 89.9492 24.5015 89.9492C24.2984 89.9323 24.1037 89.9154 23.9175 89.8984C23.5959 89.8984 23.1981 89.873 22.7242 89.8223C22.6734 89.6868 22.5972 89.5938 22.4957 89.543C22.3941 89.4922 22.301 89.4668 22.2164 89.4668C21.9286 89.3314 21.7086 89.1367 21.5562 88.8828C21.4208 88.612 21.2854 88.3242 21.15 88.0195C21.0653 87.8333 20.9807 87.6641 20.8961 87.5117C20.8114 87.3424 20.7183 87.1732 20.6168 87.0039L21.0484 86.877L20.4898 86.2676C20.456 86.2168 20.4136 86.1745 20.3629 86.1406C20.3121 86.0898 20.2698 86.0391 20.2359 85.9883L20.2105 85.582C20.1597 84.4141 20.1343 83.3477 20.1343 82.3828C20.1513 81.401 20.2867 80.5293 20.5406 79.7676V79.4883C20.5914 79.1159 20.6422 78.8112 20.6929 78.5742C20.7437 78.3203 20.786 78.0833 20.8199 77.8633C20.8707 77.4909 20.9468 77.1439 21.0484 76.8223C21.2854 76.7715 21.4631 76.6784 21.5816 76.543C21.7001 76.3906 21.8017 76.2552 21.8863 76.1367C22.1233 76.1198 22.2841 76.1536 22.3687 76.2383C22.4534 76.3229 22.538 76.4583 22.6226 76.6445C22.7073 76.7969 22.8088 76.9661 22.9273 77.1523C23.0627 77.3385 23.2574 77.4824 23.5113 77.584C23.5451 77.7194 23.5875 77.8633 23.6382 78.0156C23.706 78.151 23.7737 78.3034 23.8414 78.4727C23.9768 78.7604 24.0953 79.0651 24.1968 79.3867C24.3153 79.6914 24.383 79.9876 24.4 80.2754C24.2307 80.597 24.0953 80.9694 23.9937 81.3926C23.9091 81.8158 23.8498 82.2474 23.816 82.6875C23.7991 83.1107 23.8075 83.5254 23.8414 83.9316C23.8922 84.321 23.9683 84.651 24.0699 84.9219L24.2222 85.252L24.6539 85.2012C25.1617 85.0658 25.6187 84.9219 26.025 84.7695C26.4481 84.6003 26.8375 84.4056 27.1929 84.1855C27.5484 83.9655 27.8869 83.7116 28.2086 83.4238C28.5302 83.1191 28.8687 82.7721 29.2242 82.3828C29.5797 81.9935 29.8843 81.5534 30.1382 81.0625C30.4091 80.5547 30.6291 80.0299 30.7984 79.4883C30.9846 78.9466 31.12 78.4134 31.2047 77.8887C31.3062 77.347 31.3739 76.8392 31.4078 76.3652C31.6955 76.2637 31.8394 76.0605 31.8394 75.7559L31.7886 75.4766C31.7209 75.375 31.7209 75.2565 31.7886 75.1211C31.8902 74.7995 32.1272 74.554 32.4996 74.3848C32.7704 74.554 33.0074 74.7402 33.2105 74.9434C33.4306 75.1465 33.6337 75.3496 33.8199 75.5527Z" fill="#00408F"/>
<path d="M38.1363 87.3594C37.9501 88.0365 37.7808 88.5527 37.6285 88.9082C37.4931 89.2467 37.2815 89.6022 36.9937 89.9746C36.7737 89.9408 36.6213 89.9661 36.5367 90.0508C36.4521 90.1354 36.359 90.2116 36.2574 90.2793C36.105 90.3132 35.995 90.3132 35.9273 90.2793C35.8596 90.2454 35.8004 90.2031 35.7496 90.1523C35.6988 90.1185 35.6311 90.0762 35.5465 90.0254C35.4787 89.9915 35.3687 89.9746 35.2164 89.9746C35.1825 89.8392 35.1402 89.7122 35.0894 89.5938C35.0556 89.4753 34.9455 89.4329 34.7593 89.4668C34.7932 89.3314 34.8017 89.2214 34.7847 89.1367C34.7678 89.0352 34.7424 88.9505 34.7086 88.8828C34.6916 88.7982 34.6747 88.722 34.6578 88.6543C34.6409 88.5697 34.6493 88.4681 34.6832 88.3496C34.5985 88.3496 34.5308 88.2904 34.48 88.1719C34.4293 88.0534 34.37 87.9349 34.3023 87.8164C34.3531 87.5117 34.4039 87.224 34.4547 86.9531C34.5054 86.6823 34.5647 86.4284 34.6324 86.1914C34.717 85.9544 34.7847 85.7174 34.8355 85.4805C34.8863 85.2435 34.8609 84.998 34.7593 84.7441C34.8271 84.7949 34.8778 84.7865 34.9117 84.7188C34.9455 84.6341 34.9709 84.5326 34.9879 84.4141C35.0048 84.2786 35.0132 84.1517 35.0132 84.0332C35.0132 83.8978 35.0048 83.7878 34.9879 83.7031C35.1571 83.263 35.2925 82.8145 35.3941 82.3574C35.5126 81.8835 35.6142 81.418 35.6988 80.9609C35.8004 80.5039 35.9019 80.0553 36.0035 79.6152C36.105 79.1751 36.2405 78.7689 36.4097 78.3965C36.5959 78.3626 36.7991 78.388 37.0191 78.4727C37.2561 78.5404 37.4 78.6335 37.4507 78.752C37.8909 78.4134 38.2802 78.0072 38.6187 77.5332C38.9573 77.0423 39.3043 76.5684 39.6597 76.1113C40.0152 75.6543 40.4045 75.248 40.8277 74.8926C41.2678 74.5371 41.8179 74.3255 42.4781 74.2578C42.8166 74.5117 43.189 74.7741 43.5953 75.0449C44.0185 75.2988 44.3655 75.6374 44.6363 76.0605C44.7717 76.1283 44.8817 76.2044 44.9664 76.2891C45.0679 76.3568 45.1864 76.4329 45.3218 76.5176V76.8223C45.525 77.0085 45.6858 77.2285 45.8043 77.4824C45.9397 77.7194 46.0582 77.9818 46.1597 78.2695C46.2613 78.5404 46.3629 78.8197 46.4644 79.1074C46.566 79.3783 46.6845 79.6406 46.8199 79.8945C46.786 79.9792 46.7691 80.0553 46.7691 80.123C46.7691 80.1738 46.7776 80.2331 46.7945 80.3008C46.8284 80.3685 46.8537 80.4362 46.8707 80.5039C46.8876 80.5716 46.8876 80.6647 46.8707 80.7832C46.8199 81.528 46.5744 82.1289 46.1343 82.5859C45.7112 83.043 45.1949 83.4238 44.5855 83.7285C43.9761 84.0163 43.3244 84.2617 42.6304 84.4648C41.9364 84.668 41.3101 84.888 40.7515 85.125C40.7515 85.1927 40.7769 85.2266 40.8277 85.2266C40.8954 85.2266 40.9208 85.2689 40.9039 85.3535C41.3101 85.6074 41.6317 85.8105 41.8687 85.9629C42.1057 86.1152 42.3257 86.2422 42.5289 86.3438C42.7489 86.4453 42.9774 86.5384 43.2144 86.623C43.4683 86.6908 43.8153 86.7754 44.2554 86.877C44.6955 86.9785 45.0341 87.0632 45.2711 87.1309C45.525 87.1816 45.7535 87.2324 45.9566 87.2832C46.1597 87.3171 46.3629 87.3509 46.566 87.3848C46.786 87.4017 47.0907 87.4271 47.48 87.4609C47.6324 87.6133 47.7593 87.7995 47.8609 88.0195C47.9794 88.2227 48.0556 88.4342 48.0894 88.6543C48.1233 88.8574 48.1317 89.0605 48.1148 89.2637C48.0979 89.4499 48.0386 89.6022 47.9371 89.7207C47.954 89.7715 47.9879 89.7969 48.0386 89.7969C48.1063 89.7799 48.1741 89.7799 48.2418 89.7969C48.1402 89.8646 48.0556 89.9492 47.9879 90.0508C47.9201 90.1523 47.8524 90.2539 47.7847 90.3555C47.717 90.457 47.6409 90.5417 47.5562 90.6094C47.4716 90.694 47.3531 90.7448 47.2007 90.7617C46.676 90.9648 46.0159 90.9733 45.2203 90.7871C44.4247 90.6178 43.4175 90.2962 42.1988 89.8223C41.5894 89.5853 41.0901 89.3822 40.7007 89.2129C40.3284 89.0267 39.9983 88.849 39.7105 88.6797C39.4397 88.4935 39.1858 88.2988 38.9488 88.0957C38.7287 87.8926 38.4579 87.6471 38.1363 87.3594ZM41.7672 78.6504C41.581 78.9212 41.3694 79.1667 41.1324 79.3867C40.9123 79.6068 40.6923 79.8353 40.4722 80.0723C40.2691 80.2923 40.0829 80.5462 39.9136 80.834C39.7444 81.1048 39.6259 81.4264 39.5582 81.7988C40.1506 81.7311 40.7685 81.5703 41.4117 81.3164C42.0549 81.0456 42.6643 80.7917 43.2398 80.5547C43.1721 80.0299 42.9859 79.6068 42.6812 79.2852C42.3935 78.9635 42.0888 78.752 41.7672 78.6504Z" fill="#00408F"/>
<path d="M68.3004 90.0508C68.0295 90.0677 67.691 90.0592 67.2847 90.0254C66.8954 89.9915 66.5315 90.0508 66.1929 90.2031C65.2958 90.1693 64.3817 90.0592 63.4507 89.873C62.5198 89.6868 61.6649 89.4583 60.8863 89.1875C60.717 89.0013 60.5478 88.832 60.3785 88.6797C60.2092 88.5104 59.9807 88.3919 59.6929 88.3242C59.2867 88.0026 58.9566 87.6133 58.7027 87.1562C58.4488 86.6823 58.2457 86.1829 58.0933 85.6582C57.941 85.1335 57.8394 84.6003 57.7886 84.0586C57.7379 83.5 57.7209 82.9668 57.7379 82.459C57.9918 81.6973 58.3472 81.0456 58.8043 80.5039C59.2782 79.9453 59.7606 79.3952 60.2515 78.8535C60.4716 78.752 60.6324 78.6504 60.734 78.5488C60.8524 78.4303 60.9709 78.3288 61.0894 78.2441C61.2248 78.1426 61.3518 78.0495 61.4703 77.9648C61.6057 77.8633 61.7242 77.7448 61.8257 77.6094C62.1812 77.5247 62.4859 77.4062 62.7398 77.2539C63.0106 77.0846 63.273 76.9154 63.5269 76.7461C63.7808 76.5599 64.0432 76.3906 64.314 76.2383C64.5849 76.0859 64.898 75.9674 65.2535 75.8828C65.3889 75.7305 65.5497 75.612 65.7359 75.5273C65.9221 75.4258 66.1083 75.3327 66.2945 75.248C66.4976 75.1465 66.6838 75.0449 66.8531 74.9434C67.0393 74.8418 67.1832 74.7064 67.2847 74.5371C67.3694 74.6725 67.4879 74.7233 67.6402 74.6895C67.7925 74.6387 67.9364 74.5879 68.0718 74.5371C68.1565 74.5202 68.2242 74.5371 68.275 74.5879C68.3427 74.6387 68.4019 74.6895 68.4527 74.7402C68.5035 74.791 68.5458 74.8249 68.5797 74.8418C68.6304 74.8418 68.6727 74.7995 68.7066 74.7148C68.7912 74.7148 68.8166 74.7572 68.7828 74.8418C68.7489 74.9264 68.7235 74.9857 68.7066 75.0195C68.842 75.0026 68.952 75.0365 69.0367 75.1211C69.1382 75.1888 69.2906 75.2311 69.4937 75.248C69.5614 75.3327 69.5783 75.4004 69.5445 75.4512C69.5106 75.485 69.4937 75.5527 69.4937 75.6543C70.0015 75.8066 70.3231 76.0521 70.4586 76.3906C70.594 76.7122 70.6024 77.0508 70.4839 77.4062C70.3655 77.7617 70.1539 78.0918 69.8492 78.3965C69.5445 78.7012 69.2144 78.9043 68.8589 79.0059C68.0464 79.2259 67.2763 79.4714 66.5484 79.7422C65.8375 79.9961 65.2535 80.377 64.7964 80.8848C64.3902 81.0033 64.0263 81.1641 63.7047 81.3672C63.4 81.5534 63.1037 81.7734 62.816 82.0273C62.5451 82.2643 62.2828 82.5182 62.0289 82.7891C61.7919 83.043 61.538 83.2969 61.2672 83.5508C61.2841 83.7878 61.2418 83.974 61.1402 84.1094C61.0556 84.2279 60.9709 84.3548 60.8863 84.4902C60.9201 84.7441 60.9794 84.9727 61.064 85.1758C61.1487 85.362 61.2418 85.5482 61.3433 85.7344C62.4605 86.0729 63.6454 86.2845 64.898 86.3691C66.1675 86.4538 67.4371 86.5046 68.7066 86.5215C68.8251 86.6908 68.9605 86.8516 69.1129 87.0039C69.2821 87.1393 69.4345 87.2917 69.5699 87.4609C69.7053 87.6133 69.8153 87.791 69.9 87.9941C69.9846 88.1803 70.0015 88.4173 69.9507 88.7051C69.7138 88.959 69.4514 89.196 69.1636 89.416C68.8759 89.6191 68.5881 89.8307 68.3004 90.0508Z" fill="#00408F"/>
<path d="M85.2867 75.5527C85.3205 75.9251 85.3798 76.2467 85.4644 76.5176C85.5491 76.7884 85.6422 77.0508 85.7437 77.3047C85.8283 77.5417 85.9045 77.7786 85.9722 78.0156C86.0569 78.2357 86.1161 78.5065 86.15 78.8281C86.0145 79.2682 85.913 79.6745 85.8453 80.0469C85.7945 80.4193 85.7352 80.8086 85.6675 81.2148C85.3967 81.8073 85.1343 82.332 84.8804 82.7891C84.6265 83.2461 84.4234 83.6439 84.2711 83.9824C84.1864 84.0671 84.1102 84.1686 84.0425 84.2871C83.9918 84.3887 83.9325 84.4987 83.8648 84.6172C83.831 84.668 83.7886 84.7441 83.7379 84.8457C83.6871 84.9473 83.6448 85.015 83.6109 85.0488L83.1031 84.8711L83.0015 85.5059L82.6461 85.6074L82.3922 85.9121C82.0705 86.4707 81.732 86.9447 81.3765 87.334C81.0211 87.7064 80.6148 88.0449 80.1578 88.3496C79.7177 88.6374 79.2099 88.9082 78.6343 89.1621C78.0757 89.416 77.441 89.6953 76.73 90C76.4423 89.9661 76.1884 89.9492 75.9683 89.9492C75.7652 89.9323 75.5705 89.9154 75.3843 89.8984C75.0627 89.8984 74.6649 89.873 74.191 89.8223C74.1402 89.6868 74.064 89.5938 73.9625 89.543C73.8609 89.4922 73.7678 89.4668 73.6832 89.4668C73.3954 89.3314 73.1754 89.1367 73.023 88.8828C72.8876 88.612 72.7522 88.3242 72.6168 88.0195C72.5321 87.8333 72.4475 87.6641 72.3629 87.5117C72.2782 87.3424 72.1851 87.1732 72.0836 87.0039L72.5152 86.877L71.9566 86.2676C71.9227 86.2168 71.8804 86.1745 71.8297 86.1406C71.7789 86.0898 71.7366 86.0391 71.7027 85.9883L71.6773 85.582C71.6265 84.4141 71.6011 83.3477 71.6011 82.3828C71.6181 81.401 71.7535 80.5293 72.0074 79.7676V79.4883C72.0582 79.1159 72.1089 78.8112 72.1597 78.5742C72.2105 78.3203 72.2528 78.0833 72.2867 77.8633C72.3375 77.4909 72.4136 77.1439 72.5152 76.8223C72.7522 76.7715 72.9299 76.6784 73.0484 76.543C73.1669 76.3906 73.2685 76.2552 73.3531 76.1367C73.5901 76.1198 73.7509 76.1536 73.8355 76.2383C73.9201 76.3229 74.0048 76.4583 74.0894 76.6445C74.1741 76.7969 74.2756 76.9661 74.3941 77.1523C74.5295 77.3385 74.7242 77.4824 74.9781 77.584C75.0119 77.7194 75.0543 77.8633 75.105 78.0156C75.1727 78.151 75.2405 78.3034 75.3082 78.4727C75.4436 78.7604 75.5621 79.0651 75.6636 79.3867C75.7821 79.6914 75.8498 79.9876 75.8668 80.2754C75.6975 80.597 75.5621 80.9694 75.4605 81.3926C75.3759 81.8158 75.3166 82.2474 75.2828 82.6875C75.2658 83.1107 75.2743 83.5254 75.3082 83.9316C75.3589 84.321 75.4351 84.651 75.5367 84.9219L75.689 85.252L76.1207 85.2012C76.6285 85.0658 77.0855 84.9219 77.4918 84.7695C77.9149 84.6003 78.3043 84.4056 78.6597 84.1855C79.0152 83.9655 79.3537 83.7116 79.6754 83.4238C79.997 83.1191 80.3355 82.7721 80.691 82.3828C81.0464 81.9935 81.3511 81.5534 81.605 81.0625C81.8759 80.5547 82.0959 80.0299 82.2652 79.4883C82.4514 78.9466 82.5868 78.4134 82.6714 77.8887C82.773 77.347 82.8407 76.8392 82.8746 76.3652C83.1623 76.2637 83.3062 76.0605 83.3062 75.7559L83.2554 75.4766C83.1877 75.375 83.1877 75.2565 83.2554 75.1211C83.357 74.7995 83.594 74.554 83.9664 74.3848C84.2372 74.554 84.4742 74.7402 84.6773 74.9434C84.8974 75.1465 85.1005 75.3496 85.2867 75.5527Z" fill="#00408F"/>
<path d="M85.9214 78.5742C86.0399 78.2188 86.2261 77.9141 86.48 77.6602C86.7509 77.4062 87.0386 77.1947 87.3433 77.0254C87.6649 76.8392 87.995 76.6868 88.3336 76.5684C88.6721 76.4499 88.9937 76.3483 89.2984 76.2637C89.9755 75.9759 90.6949 75.7051 91.4566 75.4512C92.2352 75.1803 93.0224 74.9434 93.8179 74.7402C94.6304 74.5371 95.4599 74.4102 96.3062 74.3594C97.1526 74.2917 98.0412 74.3932 98.9722 74.6641C99.023 74.8333 99.0992 74.9941 99.2007 75.1465C99.3023 75.2988 99.4039 75.4512 99.5054 75.6035C99.6239 75.7559 99.7255 75.9082 99.8101 76.0605C99.8948 76.196 99.9455 76.3398 99.9625 76.4922C100.132 76.6445 100.267 76.8138 100.369 77C100.47 77.1693 100.487 77.3978 100.419 77.6855C100.25 77.821 100.081 77.9479 99.9117 78.0664C99.7593 78.168 99.5901 78.2611 99.4039 78.3457C98.7776 78.1934 98.1428 78.1426 97.4996 78.1934C96.8563 78.2441 96.2808 78.2865 95.773 78.3203C95.6207 78.168 95.4345 78.0918 95.2144 78.0918C95.0113 78.0918 94.7912 78.1257 94.5543 78.1934C94.3342 78.2611 94.1057 78.3288 93.8687 78.3965C93.6487 78.4642 93.4371 78.4811 93.2339 78.4473C93.0647 78.5827 92.8531 78.6758 92.5992 78.7266C92.3622 78.7604 92.0998 78.7943 91.8121 78.8281C91.7951 78.9128 91.8121 78.972 91.8629 79.0059C91.9136 79.0228 91.9221 79.0736 91.8882 79.1582C91.9898 79.2767 92.1168 79.3613 92.2691 79.4121C92.4384 79.4629 92.6076 79.5137 92.7769 79.5645C92.9631 79.6152 93.1239 79.6829 93.2593 79.7676C93.3948 79.8353 93.4879 79.9538 93.5386 80.123C93.7925 80.123 94.0126 80.1823 94.1988 80.3008C94.385 80.4193 94.5373 80.5632 94.6558 80.7324C94.7743 80.9017 94.8589 81.0879 94.9097 81.291C94.9774 81.4772 95.0113 81.6465 95.0113 81.7988C95.0621 81.9342 95.1213 81.9935 95.189 81.9766C95.2567 81.9596 95.3329 81.9935 95.4175 82.0781C95.4683 82.2982 95.5953 82.5267 95.7984 82.7637C96.0015 82.9837 96.1623 83.2292 96.2808 83.5C96.3147 83.9232 96.3401 84.304 96.357 84.6426C96.3739 84.9642 96.3147 85.2943 96.1793 85.6328C95.9254 86.2591 95.5699 86.8177 95.1129 87.3086C94.6727 87.7995 94.1649 88.2396 93.5894 88.6289C93.0308 89.0013 92.4299 89.3229 91.7867 89.5938C91.1435 89.8646 90.5172 90.0931 89.9078 90.2793C89.8401 90.2624 89.7724 90.2624 89.7047 90.2793C89.6369 90.2962 89.62 90.2539 89.6539 90.1523C89.5185 90.2708 89.3661 90.347 89.1968 90.3809C89.0445 90.4147 88.8752 90.4232 88.689 90.4062C88.5028 90.4062 88.3082 90.3978 88.105 90.3809C87.9188 90.3639 87.7411 90.3724 87.5718 90.4062C87.4533 90.2878 87.3433 90.1693 87.2418 90.0508C87.1571 89.9492 87.0894 89.8138 87.0386 89.6445C86.954 89.6445 86.9117 89.6022 86.9117 89.5176C86.9286 89.4329 86.9032 89.3906 86.8355 89.3906C86.9371 89.2214 86.9794 89.1283 86.9625 89.1113C86.9625 89.0775 86.9371 89.0521 86.8863 89.0352C86.8524 89.0182 86.8186 89.0013 86.7847 88.9844C86.7509 88.9505 86.7424 88.9082 86.7593 88.8574C86.827 88.722 86.8524 88.5697 86.8355 88.4004C86.8186 88.2142 86.8017 88.028 86.7847 87.8418C86.7678 87.6556 86.7763 87.4779 86.8101 87.3086C86.8609 87.1393 86.9879 87.0039 87.191 86.9023C87.7665 86.9701 88.3082 86.9531 88.816 86.8516C89.3407 86.7331 89.8316 86.5723 90.2886 86.3691C90.7457 86.166 91.1773 85.946 91.5836 85.709C92.0067 85.472 92.4214 85.2604 92.8277 85.0742C92.8785 84.9219 92.9462 84.7949 93.0308 84.6934C93.1324 84.5918 93.2339 84.4987 93.3355 84.4141C93.4371 84.3294 93.5302 84.2363 93.6148 84.1348C93.6994 84.0332 93.7587 83.9062 93.7925 83.7539C93.8095 83.6354 93.7756 83.5677 93.691 83.5508C93.6233 83.5169 93.5894 83.4492 93.5894 83.3477L93.3101 83.2715C92.9885 83.0853 92.6246 82.9329 92.2183 82.8145C91.8121 82.679 91.4651 82.5352 91.1773 82.3828C90.9911 82.4844 90.8134 82.5098 90.6441 82.459C90.4918 82.4082 90.2886 82.3574 90.0347 82.3066C89.4592 82.2728 88.9006 82.2135 88.3589 82.1289C87.8342 82.0443 87.3264 81.8919 86.8355 81.6719C86.8017 81.5872 86.7593 81.5111 86.7086 81.4434C86.6578 81.3757 86.5647 81.3587 86.4293 81.3926C86.3277 81.2572 86.2261 81.1302 86.1246 81.0117C86.023 80.8763 85.9299 80.7324 85.8453 80.5801C85.8791 80.377 85.9045 80.2077 85.9214 80.0723C85.9384 79.9199 85.8876 79.776 85.7691 79.6406C85.8368 79.4206 85.8876 79.2428 85.9214 79.1074C85.9553 78.972 85.9553 78.7943 85.9214 78.5742Z" fill="#00408F"/>
<path d="M112.023 77.7871C111.6 77.7871 111.143 77.821 110.652 77.8887C110.161 77.9395 109.679 77.9987 109.205 78.0664C108.866 78.1172 108.536 78.1595 108.214 78.1934C107.91 78.2272 107.63 78.2526 107.377 78.2695C107.258 78.6419 107.14 78.972 107.021 79.2598C106.903 79.5475 106.776 79.8268 106.64 80.0977C106.505 80.3854 106.378 80.6816 106.259 80.9863C106.158 81.2741 106.056 81.5872 105.955 81.9258C105.785 82.1966 105.641 82.4505 105.523 82.6875C105.421 82.9076 105.337 83.1615 105.269 83.4492C105.066 83.7031 104.914 83.974 104.812 84.2617C104.711 84.5326 104.634 84.7695 104.584 84.9727L104.482 85.2773C104.38 85.3789 104.321 85.4635 104.304 85.5312C104.287 85.582 104.245 85.6328 104.177 85.6836C104.16 85.8698 104.101 86.056 104 86.2422C103.966 86.3268 103.94 86.4115 103.923 86.4961C103.906 86.5638 103.898 86.6146 103.898 86.6484C103.898 86.8177 103.856 86.9277 103.771 86.9785C103.788 87.0632 103.788 87.1562 103.771 87.2578C103.754 87.3424 103.737 87.4271 103.72 87.5117C103.669 87.7148 103.653 87.8757 103.669 87.9941C103.72 88.0618 103.763 88.1211 103.796 88.1719C103.847 88.2227 103.881 88.2904 103.898 88.375C104 88.4427 104.076 88.485 104.127 88.502C104.194 88.5527 104.296 88.612 104.431 88.6797L104.66 88.9336C104.744 89.4245 104.668 89.8138 104.431 90.1016C104.177 90.4232 103.746 90.584 103.136 90.584H102.832C102.747 90.4993 102.696 90.4316 102.679 90.3809C102.544 90.3301 102.434 90.2878 102.349 90.2539C102.265 90.2201 102.188 90.1523 102.121 90.0508C101.901 89.9492 101.723 89.8646 101.587 89.7969L101.359 89.6699C101.359 89.4837 101.359 89.3822 101.359 89.3652C101.24 89.2129 101.147 89.0436 101.08 88.8574C101.029 88.6712 100.987 88.485 100.953 88.2988C100.919 88.1465 100.877 88.0026 100.826 87.8672C100.792 87.7318 100.741 87.6133 100.673 87.5117C100.64 86.5299 100.733 85.7005 100.953 85.0234C101.173 84.3464 101.401 83.6947 101.638 83.0684C101.774 82.7298 101.909 82.3913 102.044 82.0527C102.18 81.6973 102.298 81.3333 102.4 80.9609L102.628 80.707C102.747 80.4362 102.84 80.2161 102.908 80.0469C102.992 79.8607 103.077 79.6745 103.162 79.4883C103.212 79.3698 103.255 79.2598 103.289 79.1582C103.339 79.0397 103.382 78.9382 103.416 78.8535C103.314 78.8535 103.221 78.862 103.136 78.8789C103.052 78.8789 102.967 78.8874 102.882 78.9043C102.781 78.9212 102.688 78.9382 102.603 78.9551C102.518 78.9551 102.434 78.9551 102.349 78.9551C102.231 78.9551 102.146 78.9466 102.095 78.9297C101.909 79.0143 101.706 79.0566 101.486 79.0566H101.232C101.181 79.0566 101.13 79.0566 101.08 79.0566C101.046 79.0397 101.012 79.0312 100.978 79.0312C100.809 79.0312 100.673 79.0566 100.572 79.1074C100.369 79.1074 100.174 79.1074 99.9879 79.1074H99.7339C99.7001 79.1074 99.6578 79.1159 99.607 79.1328C99.5562 79.1328 99.5139 79.1328 99.48 79.1328C99.3616 79.1328 99.2346 79.1243 99.0992 79.1074C98.9638 79.0736 98.8199 79.0143 98.6675 78.9297C98.4644 78.6589 98.329 78.515 98.2613 78.498L98.0328 78.1934C98.0158 78.0918 97.9905 77.9987 97.9566 77.9141C97.9227 77.8125 97.8889 77.7025 97.855 77.584C97.7873 77.4147 97.7196 77.237 97.6519 77.0508C97.6011 76.8477 97.5757 76.6107 97.5757 76.3398C97.5927 76.2044 97.6265 76.1029 97.6773 76.0352C97.7281 75.9674 97.7704 75.9082 97.8043 75.8574L97.8804 75.4766L98.2105 75.502H98.9214C99.4631 75.502 100.013 75.485 100.572 75.4512C101.13 75.4004 101.706 75.3496 102.298 75.2988C102.637 75.265 102.975 75.2311 103.314 75.1973C103.669 75.1634 104.033 75.1296 104.406 75.0957C104.474 74.9434 104.541 74.7995 104.609 74.6641L104.863 74.5371C105.168 74.5202 105.379 74.5625 105.498 74.6641C105.633 74.7487 105.743 74.8333 105.828 74.918C106.2 74.8841 106.572 74.8503 106.945 74.8164C107.334 74.7656 107.724 74.7064 108.113 74.6387C108.688 74.554 109.264 74.4779 109.839 74.4102C110.432 74.3424 110.999 74.3086 111.541 74.3086C111.778 74.3086 112.006 74.3171 112.226 74.334C112.446 74.3509 112.649 74.3763 112.836 74.4102L113.089 74.5879C113.14 74.6895 113.208 74.7826 113.293 74.8672C113.394 74.9518 113.496 75.0365 113.597 75.1211C113.8 75.3073 114.003 75.5273 114.207 75.7812C114.41 76.0352 114.486 76.4076 114.435 76.8984C114.3 77.1016 114.198 77.2201 114.13 77.2539L113.902 77.5586L113.648 77.5332C113.546 77.5332 113.453 77.5501 113.369 77.584C113.284 77.6009 113.199 77.6263 113.115 77.6602C113.047 77.694 112.979 77.7279 112.912 77.7617C112.844 77.7786 112.768 77.7956 112.683 77.8125C112.531 77.8125 112.404 77.8125 112.302 77.8125C112.218 77.7956 112.125 77.7871 112.023 77.7871Z" fill="#00408F"/>
<path d="M124.058 82.3828C124.041 82.5859 124.058 82.7806 124.109 82.9668C124.16 83.153 124.219 83.3392 124.287 83.5254C124.371 83.6947 124.447 83.8724 124.515 84.0586C124.583 84.2448 124.634 84.431 124.668 84.6172C124.701 84.8542 124.701 85.1165 124.668 85.4043C124.634 85.6751 124.574 85.946 124.49 86.2168C124.405 86.4707 124.295 86.7077 124.16 86.9277C124.024 87.1309 123.864 87.2832 123.677 87.3848C123.44 87.6895 123.153 87.9264 122.814 88.0957C122.475 88.265 122.162 88.4681 121.875 88.7051C121.688 88.8236 121.477 88.9082 121.24 88.959C121.02 89.0098 120.791 89.0605 120.554 89.1113C120.368 89.2129 120.148 89.3229 119.894 89.4414C119.64 89.543 119.378 89.6445 119.107 89.7461C118.836 89.8307 118.565 89.8984 118.294 89.9492C118.024 89.9831 117.787 89.9915 117.584 89.9746C117.076 90.1608 116.576 90.2793 116.086 90.3301C115.612 90.3978 115.053 90.3639 114.41 90.2285C113.8 90.3132 113.233 90.2878 112.709 90.1523C112.201 90.0169 111.744 89.8053 111.337 89.5176C110.948 89.2129 110.601 88.8574 110.296 88.4512C110.009 88.028 109.772 87.5879 109.586 87.1309C109.45 86.166 109.484 85.2943 109.687 84.5156C109.89 83.7201 110.178 82.9922 110.55 82.332C110.94 81.6549 111.38 81.0371 111.871 80.4785C112.362 79.903 112.836 79.3444 113.293 78.8027C113.394 78.8366 113.47 78.8366 113.521 78.8027C113.589 78.752 113.648 78.6927 113.699 78.625C113.75 78.5404 113.8 78.4642 113.851 78.3965C113.919 78.3288 113.995 78.2865 114.08 78.2695C114.198 78.0156 114.367 77.8294 114.587 77.7109C114.824 77.5755 115.011 77.3893 115.146 77.1523C115.298 77.1185 115.425 77.0677 115.527 77C115.628 76.9323 115.722 76.8561 115.806 76.7715C115.908 76.6868 116.009 76.6107 116.111 76.543C116.212 76.4583 116.331 76.3991 116.466 76.3652V76.0859C116.771 75.9505 116.991 75.7982 117.127 75.6289C117.279 75.4427 117.457 75.2227 117.66 74.9688C117.812 74.9518 117.931 74.9434 118.015 74.9434C118.117 74.9434 118.261 74.9264 118.447 74.8926C118.582 74.6556 118.701 74.4779 118.802 74.3594C118.921 74.2409 119.09 74.1139 119.31 73.9785C119.513 74.0801 119.733 74.1478 119.97 74.1816C120.224 74.2155 120.444 74.3255 120.63 74.5117C120.647 74.681 120.698 74.8164 120.783 74.918C120.867 75.0026 120.961 75.0872 121.062 75.1719C121.164 75.2396 121.257 75.3158 121.341 75.4004C121.443 75.485 121.511 75.6035 121.544 75.7559C121.612 75.7728 121.655 75.7643 121.671 75.7305C121.705 75.6966 121.756 75.6882 121.824 75.7051C121.875 75.9421 121.934 76.1029 122.002 76.1875C122.069 76.2552 122.137 76.3991 122.205 76.6191C122.12 76.7884 122.052 76.9661 122.002 77.1523C121.968 77.3216 121.866 77.4486 121.697 77.5332C121.68 77.6517 121.714 77.7194 121.798 77.7363C121.883 77.7363 121.934 77.7786 121.951 77.8633C121.968 78.0156 121.942 78.1257 121.875 78.1934C122.281 78.8535 122.645 79.556 122.966 80.3008C123.288 81.0286 123.652 81.7227 124.058 82.3828ZM120.884 84.7949C120.952 84.6087 121.037 84.4564 121.138 84.3379C121.257 84.2194 121.324 84.0417 121.341 83.8047C121.257 83.6693 121.206 83.5677 121.189 83.5C121.172 83.4154 121.164 83.2884 121.164 83.1191C120.791 82.5944 120.47 82.0358 120.199 81.4434C119.928 80.834 119.623 80.2669 119.285 79.7422C119.251 79.8099 119.192 79.8776 119.107 79.9453C119.022 80.013 118.929 79.9961 118.828 79.8945C118.794 80.0299 118.735 80.1315 118.65 80.1992C118.565 80.25 118.472 80.2754 118.371 80.2754C118.269 80.2585 118.159 80.2331 118.041 80.1992C117.939 80.1484 117.846 80.0892 117.761 80.0215C117.27 80.4108 116.78 80.7917 116.289 81.1641C115.798 81.5365 115.358 81.9681 114.968 82.459C114.901 82.4928 114.858 82.5098 114.841 82.5098C114.824 82.4928 114.774 82.5013 114.689 82.5352C114.554 82.8568 114.384 83.153 114.181 83.4238C113.995 83.6777 113.809 83.9401 113.623 84.2109C113.436 84.4818 113.276 84.7695 113.14 85.0742C113.005 85.3789 112.929 85.7344 112.912 86.1406C113.199 86.3776 113.538 86.5215 113.927 86.5723C114.317 86.623 114.714 86.6315 115.121 86.5977C115.544 86.5638 115.95 86.513 116.339 86.4453C116.746 86.3607 117.118 86.3184 117.457 86.3184C118.168 86.1491 118.777 85.929 119.285 85.6582C119.793 85.3704 120.326 85.0827 120.884 84.7949Z" fill="#00408F"/>
<path d="M143.177 89.543C143.008 89.6276 142.847 89.7038 142.695 89.7715C142.559 89.8392 142.399 89.873 142.212 89.873C141.552 89.3822 141.205 88.5273 141.171 87.3086C141.155 86.0898 141.417 84.541 141.959 82.6621C142.043 82.6113 142.086 82.5098 142.086 82.3574L141.857 82.1035C141.789 82.1035 141.722 82.112 141.654 82.1289C141.603 82.1458 141.561 82.2051 141.527 82.3066C141.087 82.6283 140.604 82.9668 140.08 83.3223C139.555 83.6608 139.005 83.9824 138.429 84.2871C137.871 84.5749 137.295 84.8118 136.703 84.998C136.127 85.1842 135.56 85.2773 135.002 85.2773C133.58 85.2773 132.513 84.5579 131.802 83.1191L131.599 82.7383L131.396 83.0684C131.345 83.1361 131.269 83.2799 131.168 83.5C131.066 83.7031 130.964 83.9401 130.863 84.2109C130.761 84.4818 130.668 84.7611 130.584 85.0488C130.516 85.3197 130.49 85.5566 130.507 85.7598C130.355 85.9121 130.194 86.0898 130.025 86.293C129.856 86.4961 129.729 86.7246 129.644 86.9785C129.61 87.1139 129.627 87.2409 129.695 87.3594C129.661 87.5117 129.585 87.6302 129.466 87.7148C129.399 87.7995 129.322 87.8841 129.238 87.9688C129.17 88.0365 129.111 88.1126 129.06 88.1973C129.026 88.2819 129.001 88.3665 128.984 88.4512C128.984 88.5358 128.975 88.6204 128.959 88.7051C128.959 88.8236 128.942 88.9336 128.908 89.0352C128.62 89.6276 128.391 90.0085 128.222 90.1777C128.053 90.3639 127.824 90.457 127.537 90.457C127.401 90.457 127.181 90.4316 126.877 90.3809C126.656 90.1439 126.453 89.8223 126.267 89.416C126.098 88.9928 125.962 88.5443 125.861 88.0703C125.776 87.5964 125.734 87.1224 125.734 86.6484C125.751 86.1576 125.836 85.7344 125.988 85.3789C125.988 85.362 126.056 85.1927 126.191 84.8711C126.326 84.5495 126.496 84.1348 126.699 83.627C126.919 83.1191 127.164 82.5605 127.435 81.9512C127.706 81.3249 127.977 80.724 128.248 80.1484C128.518 79.556 128.772 79.0143 129.009 78.5234C129.263 78.0326 129.475 77.6602 129.644 77.4062C129.78 77.2031 129.898 77.0169 130 76.8477C130.118 76.6615 130.228 76.4837 130.33 76.3145C130.634 75.7897 130.922 75.3581 131.193 75.0195C131.481 74.6641 131.895 74.3848 132.437 74.1816C132.809 74.334 133.08 74.5117 133.25 74.7148L133.3 74.9941C133.368 75.1634 133.47 75.248 133.605 75.248C133.791 75.2988 133.944 75.3496 134.062 75.4004C134.197 75.4342 134.341 75.4681 134.494 75.502C134.612 75.6374 134.722 75.7982 134.824 75.9844C134.959 76.1875 135.086 76.3906 135.205 76.5938C135.34 76.7799 135.442 76.9746 135.509 77.1777C135.594 77.3639 135.636 77.5586 135.636 77.7617C135.653 77.9648 135.619 78.1764 135.535 78.3965L135.56 78.6504C135.645 78.8027 135.662 79.0143 135.611 79.2852C135.594 79.4036 135.586 79.5306 135.586 79.666C135.586 79.7845 135.602 79.9199 135.636 80.0723C135.941 80.3092 136.212 80.4277 136.449 80.4277C136.72 80.4277 136.965 80.3685 137.185 80.25C137.422 80.1146 137.642 79.9792 137.845 79.8438C137.981 79.7422 138.116 79.6576 138.252 79.5898C138.387 79.5052 138.522 79.4544 138.658 79.4375C138.962 79.1497 139.233 78.8958 139.47 78.6758C139.724 78.4557 139.987 78.2357 140.257 78.0156C140.765 77.6094 141.256 77.1693 141.73 76.6953C142.204 76.2214 142.585 75.6289 142.873 74.918C143.042 74.8164 143.22 74.7656 143.406 74.7656C143.592 74.7656 143.787 74.8079 143.99 74.8926C144.193 74.9772 144.388 75.0618 144.574 75.1465C144.625 75.1803 144.667 75.2057 144.701 75.2227C144.752 75.2396 144.794 75.2565 144.828 75.2734C144.828 75.4427 144.895 75.5866 145.031 75.7051C145.099 75.7559 145.141 75.7897 145.158 75.8066C145.175 75.8236 145.2 75.8405 145.234 75.8574C145.488 75.9928 145.649 76.1283 145.716 76.2637C145.835 76.653 146.046 76.9492 146.351 77.1523C146.317 77.3216 146.317 77.4824 146.351 77.6348C146.402 77.7702 146.461 77.9141 146.529 78.0664C146.546 78.1172 146.563 78.168 146.58 78.2188C146.597 78.2695 146.622 78.3288 146.656 78.3965L146.173 78.3457L146.25 78.8281C146.283 79.0651 146.258 79.3275 146.173 79.6152C146.106 79.903 146.021 80.1315 145.919 80.3008C145.936 80.7409 145.945 81.0879 145.945 81.3418C145.962 81.5788 145.953 81.8073 145.919 82.0273C145.886 82.2305 145.835 82.4251 145.767 82.6113C145.716 82.7975 145.64 83.0007 145.539 83.2207C145.606 84.304 145.479 85.2943 145.158 86.1914C144.853 87.0716 144.531 87.901 144.193 88.6797C144.159 88.7643 144.117 88.849 144.066 88.9336C144.032 89.0182 143.998 89.1029 143.964 89.1875C143.812 89.2383 143.677 89.2975 143.558 89.3652C143.44 89.416 143.313 89.4753 143.177 89.543Z" fill="#00408F"/>
<path d="M160.951 75.7051C160.968 75.8236 160.968 75.9167 160.951 75.9844C160.951 76.0352 160.942 76.0859 160.925 76.1367C160.925 76.1875 160.925 76.2467 160.925 76.3145C160.925 76.3652 160.942 76.4499 160.976 76.5684C160.621 77.1439 160.206 77.5417 159.732 77.7617C159.275 77.9648 158.776 78.1172 158.234 78.2188C157.692 78.3034 157.134 78.3965 156.558 78.498C156 78.5996 155.441 78.8197 154.882 79.1582C154.662 79.0736 154.459 79.0736 154.273 79.1582C154.104 79.2428 153.85 79.2682 153.511 79.2344C153.41 79.3359 153.283 79.4121 153.13 79.4629C152.978 79.4967 152.826 79.5391 152.673 79.5898C152.741 79.7422 152.766 79.903 152.75 80.0723C152.75 80.2246 152.775 80.3516 152.826 80.4531C153.418 80.5039 154.07 80.4954 154.781 80.4277C155.509 80.36 156.22 80.3177 156.914 80.3008C156.931 80.3854 156.922 80.4447 156.888 80.4785C156.854 80.4954 156.846 80.5378 156.863 80.6055C156.981 80.6901 157.1 80.8001 157.218 80.9355C157.337 81.054 157.455 81.1725 157.574 81.291C157.692 81.4095 157.811 81.5111 157.929 81.5957C158.065 81.6634 158.217 81.6888 158.386 81.6719C158.454 81.8073 158.496 81.9596 158.513 82.1289C158.547 82.2812 158.53 82.4421 158.462 82.6113C158.192 82.7975 157.921 82.9922 157.65 83.1953C157.379 83.3815 157.091 83.5508 156.787 83.7031C156.499 83.8555 156.186 83.9824 155.847 84.084C155.526 84.1686 155.162 84.2025 154.755 84.1855C154.671 84.1855 154.603 84.1855 154.552 84.1855C154.518 84.1855 154.468 84.1602 154.4 84.1094C154.265 84.194 154.07 84.2194 153.816 84.1855C153.579 84.1517 153.393 84.1771 153.257 84.2617C153.071 84.1771 152.843 84.1432 152.572 84.1602C152.318 84.1602 152.089 84.1263 151.886 84.0586C151.615 84.4141 151.37 84.7949 151.15 85.2012C150.93 85.6074 150.735 86.0391 150.566 86.4961C151.141 86.5807 151.615 86.6146 151.988 86.5977C152.377 86.5807 152.741 86.5553 153.08 86.5215C153.418 86.4707 153.765 86.4284 154.121 86.3945C154.476 86.3438 154.925 86.3268 155.466 86.3438C155.805 86.1576 156.203 86.0391 156.66 85.9883C157.134 85.9206 157.565 85.819 157.955 85.6836C158.09 85.7344 158.209 85.8275 158.31 85.9629C158.412 86.0814 158.505 86.1999 158.589 86.3184C158.691 86.4199 158.793 86.513 158.894 86.5977C158.996 86.6823 159.123 86.7161 159.275 86.6992C159.343 86.7669 159.385 86.8516 159.402 86.9531C159.436 87.0378 159.461 87.1224 159.478 87.207C159.495 87.2917 159.52 87.3678 159.554 87.4355C159.605 87.4863 159.681 87.5033 159.783 87.4863C159.529 88.0449 159.233 88.4766 158.894 88.7812C158.572 89.069 158.2 89.2891 157.777 89.4414C157.354 89.5938 156.88 89.7122 156.355 89.7969C155.847 89.8815 155.28 89.9831 154.654 90.1016C154.502 90.1354 154.375 90.127 154.273 90.0762C154.171 90.0423 154.053 90.0254 153.918 90.0254C153.528 90.11 153.063 90.1862 152.521 90.2539C151.979 90.3216 151.429 90.347 150.871 90.3301C150.312 90.3132 149.779 90.237 149.271 90.1016C148.763 89.9831 148.349 89.763 148.027 89.4414C147.891 89.3229 147.798 89.1875 147.748 89.0352C147.714 88.8659 147.604 88.7389 147.418 88.6543C147.401 88.4342 147.367 88.1888 147.316 87.918C147.265 87.6471 147.214 87.3678 147.164 87.0801C147.113 86.7754 147.071 86.4792 147.037 86.1914C147.02 85.9036 147.037 85.6413 147.087 85.4043C147.138 85.1504 147.24 84.9219 147.392 84.7188C147.561 84.5156 147.621 84.2956 147.57 84.0586C147.655 84.0417 147.705 83.9993 147.722 83.9316C147.739 83.847 147.807 83.8132 147.925 83.8301C148.027 83.5254 148.137 83.2376 148.255 82.9668C148.374 82.696 148.492 82.4336 148.611 82.1797C148.746 81.9258 148.873 81.6719 148.992 81.418C149.127 81.1471 149.254 80.8509 149.373 80.5293C149.136 80.3092 148.958 80.0723 148.839 79.8184C148.738 79.5475 148.662 79.2852 148.611 79.0312C148.56 78.7604 148.518 78.4896 148.484 78.2188C148.45 77.931 148.391 77.6432 148.306 77.3555C148.475 77.1016 148.679 76.8984 148.916 76.7461C149.169 76.5768 149.44 76.4414 149.728 76.3398C150.016 76.2383 150.329 76.1536 150.668 76.0859C151.006 76.0182 151.362 75.9421 151.734 75.8574C152.411 75.6374 153.012 75.4681 153.537 75.3496C154.078 75.2311 154.603 75.138 155.111 75.0703C155.636 74.9857 156.177 74.9095 156.736 74.8418C157.294 74.7741 157.929 74.6725 158.64 74.5371C158.793 74.6895 158.936 74.7656 159.072 74.7656C159.14 74.6133 159.216 74.571 159.3 74.6387C159.402 74.6895 159.444 74.6387 159.427 74.4863C159.597 74.7741 159.808 75.0195 160.062 75.2227C160.333 75.4089 160.629 75.5697 160.951 75.7051Z" fill="#00408F"/>
<path d="M164.175 87.3594C163.989 88.0365 163.82 88.5527 163.668 88.9082C163.532 89.2467 163.321 89.6022 163.033 89.9746C162.813 89.9408 162.66 89.9661 162.576 90.0508C162.491 90.1354 162.398 90.2116 162.296 90.2793C162.144 90.3132 162.034 90.3132 161.966 90.2793C161.899 90.2454 161.839 90.2031 161.789 90.1523C161.738 90.1185 161.67 90.0762 161.586 90.0254C161.518 89.9915 161.408 89.9746 161.255 89.9746C161.222 89.8392 161.179 89.7122 161.128 89.5938C161.095 89.4753 160.985 89.4329 160.798 89.4668C160.832 89.3314 160.841 89.2214 160.824 89.1367C160.807 89.0352 160.781 88.9505 160.748 88.8828C160.731 88.7982 160.714 88.722 160.697 88.6543C160.68 88.5697 160.688 88.4681 160.722 88.3496C160.638 88.3496 160.57 88.2904 160.519 88.1719C160.468 88.0534 160.409 87.9349 160.341 87.8164C160.392 87.5117 160.443 87.224 160.494 86.9531C160.544 86.6823 160.604 86.4284 160.671 86.1914C160.756 85.9544 160.824 85.7174 160.875 85.4805C160.925 85.2435 160.9 84.998 160.798 84.7441C160.866 84.7949 160.917 84.7865 160.951 84.7188C160.985 84.6341 161.01 84.5326 161.027 84.4141C161.044 84.2786 161.052 84.1517 161.052 84.0332C161.052 83.8978 161.044 83.7878 161.027 83.7031C161.196 83.263 161.332 82.8145 161.433 82.3574C161.552 81.8835 161.653 81.418 161.738 80.9609C161.839 80.5039 161.941 80.0553 162.043 79.6152C162.144 79.1751 162.28 78.7689 162.449 78.3965C162.635 78.3626 162.838 78.388 163.058 78.4727C163.295 78.5404 163.439 78.6335 163.49 78.752C163.93 78.4134 164.319 78.0072 164.658 77.5332C164.996 77.0423 165.343 76.5684 165.699 76.1113C166.054 75.6543 166.444 75.248 166.867 74.8926C167.307 74.5371 167.857 74.3255 168.517 74.2578C168.856 74.5117 169.228 74.7741 169.634 75.0449C170.058 75.2988 170.405 75.6374 170.675 76.0605C170.811 76.1283 170.921 76.2044 171.005 76.2891C171.107 76.3568 171.225 76.4329 171.361 76.5176V76.8223C171.564 77.0085 171.725 77.2285 171.843 77.4824C171.979 77.7194 172.097 77.9818 172.199 78.2695C172.3 78.5404 172.402 78.8197 172.503 79.1074C172.605 79.3783 172.724 79.6406 172.859 79.8945C172.825 79.9792 172.808 80.0553 172.808 80.123C172.808 80.1738 172.817 80.2331 172.834 80.3008C172.867 80.3685 172.893 80.4362 172.91 80.5039C172.927 80.5716 172.927 80.6647 172.91 80.7832C172.859 81.528 172.614 82.1289 172.173 82.5859C171.75 83.043 171.234 83.4238 170.625 83.7285C170.015 84.0163 169.364 84.2617 168.669 84.4648C167.975 84.668 167.349 84.888 166.791 85.125C166.791 85.1927 166.816 85.2266 166.867 85.2266C166.934 85.2266 166.96 85.2689 166.943 85.3535C167.349 85.6074 167.671 85.8105 167.908 85.9629C168.145 86.1152 168.365 86.2422 168.568 86.3438C168.788 86.4453 169.016 86.5384 169.253 86.623C169.507 86.6908 169.854 86.7754 170.294 86.877C170.735 86.9785 171.073 87.0632 171.31 87.1309C171.564 87.1816 171.793 87.2324 171.996 87.2832C172.199 87.3171 172.402 87.3509 172.605 87.3848C172.825 87.4017 173.13 87.4271 173.519 87.4609C173.671 87.6133 173.798 87.7995 173.9 88.0195C174.018 88.2227 174.095 88.4342 174.128 88.6543C174.162 88.8574 174.171 89.0605 174.154 89.2637C174.137 89.4499 174.078 89.6022 173.976 89.7207C173.993 89.7715 174.027 89.7969 174.078 89.7969C174.145 89.7799 174.213 89.7799 174.281 89.7969C174.179 89.8646 174.095 89.9492 174.027 90.0508C173.959 90.1523 173.891 90.2539 173.824 90.3555C173.756 90.457 173.68 90.5417 173.595 90.6094C173.511 90.694 173.392 90.7448 173.24 90.7617C172.715 90.9648 172.055 90.9733 171.259 90.7871C170.464 90.6178 169.457 90.2962 168.238 89.8223C167.628 89.5853 167.129 89.3822 166.74 89.2129C166.367 89.0267 166.037 88.849 165.75 88.6797C165.479 88.4935 165.225 88.2988 164.988 88.0957C164.768 87.8926 164.497 87.6471 164.175 87.3594ZM167.806 78.6504C167.62 78.9212 167.408 79.1667 167.171 79.3867C166.951 79.6068 166.731 79.8353 166.511 80.0723C166.308 80.2923 166.122 80.5462 165.953 80.834C165.783 81.1048 165.665 81.4264 165.597 81.7988C166.19 81.7311 166.808 81.5703 167.451 81.3164C168.094 81.0456 168.703 80.7917 169.279 80.5547C169.211 80.0299 169.025 79.6068 168.72 79.2852C168.433 78.9635 168.128 78.752 167.806 78.6504Z" fill="#00408F"/>
<path d="M174.56 78.5742C174.679 78.2188 174.865 77.9141 175.119 77.6602C175.39 77.4062 175.677 77.1947 175.982 77.0254C176.304 76.8392 176.634 76.6868 176.972 76.5684C177.311 76.4499 177.632 76.3483 177.937 76.2637C178.614 75.9759 179.334 75.7051 180.095 75.4512C180.874 75.1803 181.661 74.9434 182.457 74.7402C183.269 74.5371 184.099 74.4102 184.945 74.3594C185.791 74.2917 186.68 74.3932 187.611 74.6641C187.662 74.8333 187.738 74.9941 187.839 75.1465C187.941 75.2988 188.043 75.4512 188.144 75.6035C188.263 75.7559 188.364 75.9082 188.449 76.0605C188.533 76.196 188.584 76.3398 188.601 76.4922C188.77 76.6445 188.906 76.8138 189.007 77C189.109 77.1693 189.126 77.3978 189.058 77.6855C188.889 77.821 188.72 77.9479 188.55 78.0664C188.398 78.168 188.229 78.2611 188.043 78.3457C187.416 78.1934 186.781 78.1426 186.138 78.1934C185.495 78.2441 184.919 78.2865 184.412 78.3203C184.259 78.168 184.073 78.0918 183.853 78.0918C183.65 78.0918 183.43 78.1257 183.193 78.1934C182.973 78.2611 182.744 78.3288 182.507 78.3965C182.287 78.4642 182.076 78.4811 181.873 78.4473C181.703 78.5827 181.492 78.6758 181.238 78.7266C181.001 78.7604 180.739 78.7943 180.451 78.8281C180.434 78.9128 180.451 78.972 180.502 79.0059C180.552 79.0228 180.561 79.0736 180.527 79.1582C180.628 79.2767 180.755 79.3613 180.908 79.4121C181.077 79.4629 181.246 79.5137 181.416 79.5645C181.602 79.6152 181.763 79.6829 181.898 79.7676C182.033 79.8353 182.127 79.9538 182.177 80.123C182.431 80.123 182.651 80.1823 182.837 80.3008C183.024 80.4193 183.176 80.5632 183.294 80.7324C183.413 80.9017 183.498 81.0879 183.548 81.291C183.616 81.4772 183.65 81.6465 183.65 81.7988C183.701 81.9342 183.76 81.9935 183.828 81.9766C183.895 81.9596 183.972 81.9935 184.056 82.0781C184.107 82.2982 184.234 82.5267 184.437 82.7637C184.64 82.9837 184.801 83.2292 184.919 83.5C184.953 83.9232 184.979 84.304 184.996 84.6426C185.013 84.9642 184.953 85.2943 184.818 85.6328C184.564 86.2591 184.209 86.8177 183.752 87.3086C183.311 87.7995 182.804 88.2396 182.228 88.6289C181.669 89.0013 181.069 89.3229 180.425 89.5938C179.782 89.8646 179.156 90.0931 178.546 90.2793C178.479 90.2624 178.411 90.2624 178.343 90.2793C178.276 90.2962 178.259 90.2539 178.293 90.1523C178.157 90.2708 178.005 90.347 177.836 90.3809C177.683 90.4147 177.514 90.4232 177.328 90.4062C177.141 90.4062 176.947 90.3978 176.744 90.3809C176.558 90.3639 176.38 90.3724 176.211 90.4062C176.092 90.2878 175.982 90.1693 175.88 90.0508C175.796 89.9492 175.728 89.8138 175.677 89.6445C175.593 89.6445 175.55 89.6022 175.55 89.5176C175.567 89.4329 175.542 89.3906 175.474 89.3906C175.576 89.2214 175.618 89.1283 175.601 89.1113C175.601 89.0775 175.576 89.0521 175.525 89.0352C175.491 89.0182 175.457 89.0013 175.423 88.9844C175.39 88.9505 175.381 88.9082 175.398 88.8574C175.466 88.722 175.491 88.5697 175.474 88.4004C175.457 88.2142 175.44 88.028 175.423 87.8418C175.406 87.6556 175.415 87.4779 175.449 87.3086C175.5 87.1393 175.627 87.0039 175.83 86.9023C176.405 86.9701 176.947 86.9531 177.455 86.8516C177.979 86.7331 178.47 86.5723 178.927 86.3691C179.384 86.166 179.816 85.946 180.222 85.709C180.645 85.472 181.06 85.2604 181.466 85.0742C181.517 84.9219 181.585 84.7949 181.669 84.6934C181.771 84.5918 181.873 84.4987 181.974 84.4141C182.076 84.3294 182.169 84.2363 182.253 84.1348C182.338 84.0332 182.397 83.9062 182.431 83.7539C182.448 83.6354 182.414 83.5677 182.33 83.5508C182.262 83.5169 182.228 83.4492 182.228 83.3477L181.949 83.2715C181.627 83.0853 181.263 82.9329 180.857 82.8145C180.451 82.679 180.104 82.5352 179.816 82.3828C179.63 82.4844 179.452 82.5098 179.283 82.459C179.13 82.4082 178.927 82.3574 178.673 82.3066C178.098 82.2728 177.539 82.2135 176.998 82.1289C176.473 82.0443 175.965 81.8919 175.474 81.6719C175.44 81.5872 175.398 81.5111 175.347 81.4434C175.296 81.3757 175.203 81.3587 175.068 81.3926C174.966 81.2572 174.865 81.1302 174.763 81.0117C174.662 80.8763 174.569 80.7324 174.484 80.5801C174.518 80.377 174.543 80.2077 174.56 80.0723C174.577 79.9199 174.526 79.776 174.408 79.6406C174.475 79.4206 174.526 79.2428 174.56 79.1074C174.594 78.972 174.594 78.7943 174.56 78.5742Z" fill="#00408F"/>
<path d="M182.133 145.307L182.132 145.307C178.922 143.752 175.903 142.29 172.834 140.936C172.684 140.869 172.53 140.796 172.373 140.721C172.271 140.672 172.169 140.622 172.065 140.571C170.307 139.713 168.229 138.7 166.95 141.059C165.626 143.517 167.715 144.621 169.445 145.536C169.677 145.659 169.902 145.778 170.112 145.896C176.281 149.418 182.532 152.776 188.808 156.135C190.612 157.091 192.437 157.687 194.423 156.067C196.535 154.359 196.075 152.396 195.474 150.352C193.153 142.446 189.586 135.142 184.494 128.639C183.978 127.979 182.967 127.119 181.928 127.49C181.045 128.089 181.395 129.489 181.709 130.282C182.358 132.008 183.15 133.691 184.075 135.655C184.424 136.396 184.791 137.177 185.177 138.016C172.546 128.657 158.944 123.302 144.688 119.527C131.171 115.942 117.49 113.46 103.412 114.291C102.369 114.348 101.274 114.45 100.314 114.73C100.252 114.748 100.191 114.766 100.133 114.784C98.8708 115.16 98.4543 115.285 98.1164 116.651C98.0441 117.831 99.5733 118.53 100.479 118.754C102.375 119.194 104.346 119.414 106.305 119.632C106.834 119.691 107.361 119.75 107.887 119.813C127.981 122.228 147.683 126.312 166.362 134.469C173.239 137.478 179.979 140.769 185.481 146.088C185.775 146.42 186.069 146.753 186.841 147.574C185.212 146.799 183.651 146.043 182.133 145.307Z" fill="#00408F"/>
<path d="M184.682 26.5415C184.742 26.4174 184.802 26.2933 184.861 26.1692C186.194 23.3488 188.705 17.5048 188.611 17.4507C187.977 17.9438 187.34 18.4354 186.704 18.9269C184.796 20.4017 182.887 21.8765 181.016 23.3945C163.793 37.2857 144.58 47.3308 123.074 52.5678C118.038 53.7815 112.763 54.1566 107.527 54.5288C106.357 54.612 105.189 54.695 104.026 54.7873C102.811 54.8821 100.172 54.1401 100.255 52.7909C100.33 51.5531 102.362 51.0259 103.651 50.6915L103.771 50.6603C106.51 49.948 109.27 49.3079 112.028 48.6681C116.472 47.6375 120.913 46.6074 125.262 45.2772C147.145 38.6122 166.235 26.6249 184.539 13.2593C184.768 13.0799 186.117 11.9774 185.206 12.2361C183.504 12.449 181.834 12.6686 180.188 12.8851C176.438 13.3783 172.807 13.8559 169.172 14.2048C168.89 14.2324 168.586 14.279 168.272 14.3271C166.56 14.5897 164.562 14.8961 164.204 12.4011C163.847 9.79309 166.174 9.44055 167.995 9.16479C168.132 9.14397 168.266 9.12361 168.397 9.10275C176.163 7.86121 183.925 6.69199 191.727 5.67029C197.067 4.95733 199.221 7.70113 197.08 12.6487C196.064 14.983 194.727 17.1977 193.39 19.4113C192.987 20.0793 192.584 20.7473 192.189 21.4184C191.889 21.927 191.589 22.4371 191.289 22.9476C189.842 25.4118 188.391 27.8832 186.765 30.2278C186.182 31.0628 185.182 32.3801 183.834 31.8864C183.103 31.5756 183.205 30.3001 183.709 28.7832C183.963 28.0316 184.322 27.2866 184.682 26.5415Z" fill="#00408F"/>
</svg>
