<svg width="192" height="53" viewBox="0 0 192 53" fill="none" xmlns="http://www.w3.org/2000/svg">
<path d="M5.48684 27.8673C4.94001 27.9864 4.43549 28.001 3.97328 27.9111C3.51107 27.8212 3.08736 27.6588 2.70217 27.4238C2.32954 27.1877 1.9969 26.898 1.70427 26.5545C1.4242 26.21 1.18612 25.837 0.99002 25.4353C0.809414 24.5899 0.779742 23.8148 0.901004 23.1099C1.02127 22.3924 1.22767 21.7251 1.52021 21.1078C1.81274 20.4905 2.15222 19.9074 2.53865 19.3585C2.93765 18.8087 3.31929 18.2791 3.68358 17.77C3.7745 17.8007 3.8436 17.7952 3.89088 17.7536C3.95071 17.7109 3.997 17.6567 4.02972 17.5909C4.07501 17.5241 4.12029 17.4573 4.16558 17.3905C4.22343 17.3227 4.28906 17.2733 4.36245 17.2422C4.40376 17.1252 4.45913 17.026 4.52855 16.9446C4.61054 16.8623 4.69302 16.7863 4.776 16.7165C4.87054 16.6332 4.95253 16.5508 5.02195 16.4695C5.10393 16.3872 5.17187 16.287 5.22574 16.1689C5.34939 16.1339 5.4527 16.0815 5.53568 16.0117C5.63122 15.9409 5.7137 15.8649 5.78313 15.7835C5.86511 15.7012 5.94759 15.6252 6.03057 15.5554C6.11355 15.4856 6.21636 15.4269 6.33902 15.3793L6.31965 15.1343C6.58611 14.9868 6.7762 14.8328 6.88992 14.6721C7.00363 14.5114 7.139 14.3047 7.29601 14.0521C7.43322 14.0286 7.53951 14.0139 7.61489 14.0079C7.70283 14.001 7.83376 13.978 8.00766 13.939C8.10384 13.7164 8.19822 13.551 8.29078 13.4425C8.38334 13.3341 8.51888 13.2096 8.6974 13.069C8.8938 13.1546 9.09978 13.2016 9.31534 13.2098C9.52991 13.2055 9.73209 13.2843 9.92188 13.4463C9.94636 13.5961 9.99977 13.7119 10.0821 13.7939C10.1634 13.8634 10.2511 13.9323 10.345 14.0007C10.4379 14.0566 10.5313 14.1187 10.6252 14.1871C10.7191 14.2556 10.7841 14.3579 10.8201 14.4941C10.8829 14.4891 10.9196 14.4736 10.9302 14.4475C10.9533 14.4204 10.9968 14.4106 11.0606 14.4182C11.0937 14.5167 11.1253 14.5964 11.1554 14.6572C11.1855 14.7181 11.2151 14.7726 11.2442 14.8209C11.2858 14.8681 11.3217 14.9222 11.3518 14.983C11.3945 15.0429 11.4318 15.1158 11.4639 15.2017C11.413 15.3574 11.3694 15.5252 11.333 15.7051C11.2957 15.8724 11.2041 15.9934 11.0583 16.0681C11.0663 16.1687 11.1084 16.2222 11.1848 16.2288C11.2602 16.2229 11.3076 16.2634 11.3271 16.3503C11.3486 16.4624 11.3373 16.5581 11.293 16.6374C11.6914 17.2001 12.0609 17.7967 12.4015 18.4271C12.7412 19.045 13.1165 19.6348 13.5275 20.1965C13.5163 20.3743 13.5364 20.5497 13.588 20.7226C13.6512 20.882 13.7207 21.0409 13.7964 21.1992C13.8847 21.3566 13.9667 21.5144 14.0424 21.6728C14.1181 21.8312 14.175 21.991 14.2131 22.1523C14.2551 22.3639 14.2734 22.5964 14.2682 22.8496C14.2619 23.0903 14.23 23.3267 14.1725 23.5588C14.115 23.7909 14.0314 24.0124 13.9217 24.2234C13.8109 24.4217 13.6779 24.5776 13.5225 24.6911C13.3413 24.9582 13.1065 25.1854 12.8179 25.3725C12.5283 25.5471 12.2663 25.7512 12.0319 25.9846C11.8639 26.099 11.6814 26.1893 11.4844 26.2554C11.2864 26.309 11.0826 26.3694 10.8729 26.4365C10.7176 26.5499 10.5308 26.6658 10.3126 26.7842C10.0934 26.89 9.86743 26.9901 9.63469 27.0843C9.40194 27.1786 9.1682 27.2603 8.93347 27.3294C8.69775 27.3859 8.48467 27.4091 8.29423 27.3989C7.85486 27.598 7.42408 27.7458 7.00189 27.8424C6.57971 27.939 6.07469 27.9473 5.48684 27.8673ZM5.18955 20.9884C5.08676 21.2872 4.95686 21.563 4.79984 21.8156C4.6544 22.0547 4.50945 22.3 4.36499 22.5516C4.22054 22.8032 4.09642 23.0722 3.99264 23.3585C3.90042 23.6313 3.86243 23.9503 3.87867 24.3157C4.14682 24.5094 4.45249 24.618 4.79568 24.6414C5.15043 24.6513 5.50898 24.6292 5.87133 24.5753C6.23269 24.5088 6.59306 24.4298 6.95243 24.3382C7.3118 24.2465 7.63596 24.1893 7.92492 24.1665C7.91598 24.0534 7.96177 23.9929 8.06227 23.9849C8.58596 23.893 9.06451 23.7098 9.49792 23.4353C9.93034 23.1483 10.3816 22.8598 10.8517 22.5698C10.9026 22.414 10.9738 22.2757 11.0654 22.1547C11.157 22.0336 11.2006 21.8658 11.1963 21.6513C11.1245 21.5432 11.0731 21.4524 11.042 21.379C11.0235 21.3046 11.0083 21.1921 10.9964 21.0413C10.634 20.6148 10.3125 20.1472 10.0321 19.6384C9.75072 19.1171 9.4341 18.6301 9.08228 18.1775C9.06212 18.2423 9.01683 18.3091 8.94642 18.3779C8.876 18.4467 8.79335 18.4406 8.69845 18.3596C8.67069 18.4882 8.62111 18.5806 8.5497 18.6368C8.4773 18.6805 8.39085 18.7063 8.29034 18.7142C8.2024 18.7212 8.10668 18.7098 8.0032 18.68C7.91227 18.6493 7.82664 18.6055 7.74629 18.5486C7.33438 18.9352 6.92148 19.3091 6.50759 19.6705C6.10626 20.031 5.74708 20.4449 5.43007 20.9125C5.37023 20.9551 5.33354 20.9707 5.31998 20.9591C5.30642 20.9475 5.26295 20.9573 5.18955 20.9884Z" fill="#00408F"/>
<path d="M16.2171 17.5566C16.179 17.3953 16.1397 17.2973 16.099 17.2625C16.1691 17.0294 16.2145 16.8046 16.2353 16.5881C16.2677 16.358 16.2885 16.1414 16.2977 15.9384C16.309 15.7605 16.3212 15.5952 16.3344 15.4425C16.3602 15.2887 16.3927 15.1408 16.432 14.9986C16.6416 14.9315 16.7917 14.8311 16.8823 14.6975C16.9844 14.5504 17.063 14.4241 17.1178 14.3186C17.343 14.2882 17.4899 14.3082 17.5587 14.3786C17.6401 14.448 17.7316 14.5672 17.8335 14.7361C17.9072 14.8693 18.0071 15.0132 18.1331 15.1675C18.2581 15.3094 18.4371 15.4153 18.6702 15.4854C18.7188 15.6206 18.7732 15.749 18.8334 15.8707C18.8936 15.9923 18.9605 16.1198 19.0343 16.253C19.1682 16.5079 19.2969 16.7759 19.4202 17.0569C19.5426 17.3253 19.62 17.5847 19.6524 17.835C19.5245 18.1358 19.4314 18.4782 19.3733 18.8621C19.3277 19.2449 19.3077 19.6321 19.3134 20.0235C19.3306 20.4014 19.372 20.7648 19.4375 21.1136C19.503 21.4624 19.5891 21.7526 19.696 21.9844L19.8329 22.277L20.2445 22.2065C20.6878 22.0577 21.0862 21.8998 21.4396 21.7328C21.792 21.5532 22.1173 21.3505 22.4155 21.1247C22.7137 20.8988 22.9974 20.6488 23.2665 20.3747C23.5346 20.088 23.8118 19.7564 24.098 19.3798C24.3717 19.0042 24.6106 18.5871 24.8145 18.1285C25.0175 17.6574 25.1754 17.1771 25.2885 16.6878C25.414 16.1975 25.5019 15.7101 25.5521 15.2258C25.6023 14.7414 25.6236 14.2909 25.616 13.8744C25.8457 13.7424 25.9633 13.5498 25.9685 13.2966L25.8926 13.0561C25.85 12.9962 25.8266 12.9412 25.8227 12.8909C25.8303 12.8271 25.8446 12.7691 25.8658 12.7168C25.9435 12.4199 26.1402 12.1895 26.4559 12.0255C26.6939 12.1583 26.9141 12.3053 27.1165 12.4663C27.3314 12.6263 27.5275 12.7878 27.7047 12.9507C27.7567 13.288 27.8303 13.5792 27.9255 13.8245C28.0197 14.0573 28.1198 14.2832 28.2256 14.5024C28.3304 14.7091 28.4222 14.9104 28.5009 15.1064C28.5922 15.3015 28.6618 15.5425 28.7098 15.8295C28.6139 16.2163 28.548 16.5818 28.512 16.926C28.4876 17.2566 28.4646 17.6061 28.4432 17.9744L28.4219 18.1847C28.2265 18.592 28.0322 19.0119 27.8388 19.4444C27.657 19.8633 27.5089 20.229 27.3946 20.5414C27.3252 20.6228 27.263 20.7162 27.2081 20.8216C27.1658 20.9261 27.1235 21.0306 27.0812 21.1351C27.0591 21.1747 27.0263 21.2405 26.983 21.3325C26.9523 21.4234 26.9196 21.4892 26.8849 21.5298L26.4192 21.396L26.3523 21.9891L26.0567 22.0883L25.8514 22.3701C25.6022 22.8954 25.3277 23.3406 25.0278 23.7057C24.7406 24.0697 24.4064 24.3995 24.0252 24.6952C23.6566 24.9898 23.2304 25.2763 22.7468 25.5547C22.2747 25.8196 21.7287 26.1093 21.1088 26.4238C20.8546 26.4059 20.6332 26.4045 20.4448 26.4194C20.2679 26.4207 20.091 26.4221 19.9141 26.4234C19.7383 26.4373 19.5682 26.4444 19.4038 26.4448C19.2395 26.4451 19.0496 26.4412 18.834 26.4329C18.7748 26.3238 18.6993 26.2476 18.6074 26.2043C18.5154 26.161 18.4318 26.1424 18.3564 26.1483C18.0952 26.0425 17.8929 25.8816 17.7493 25.6653C17.6058 25.4491 17.4541 25.2083 17.294 24.9428C17.2193 24.797 17.1383 24.6517 17.051 24.5069C16.9762 24.3611 16.8831 24.2231 16.7717 24.0929L17.1397 23.95L16.605 23.4234C16.5643 23.3887 16.5174 23.3545 16.4642 23.3207C16.4235 23.286 16.3823 23.245 16.3407 23.1978L16.3123 22.8397C16.1807 21.8135 16.0805 20.8669 16.012 20.0001C15.9551 19.1196 16.0133 18.3376 16.1868 17.6538L16.2171 17.5566Z" fill="#00408F"/>
<path d="M30.0903 24.2157C30.0285 24.2332 29.9684 24.1937 29.9102 24.0972C29.8511 23.9881 29.7861 23.8858 29.7153 23.7902L29.9226 23.7738C29.8128 23.5044 29.7678 23.2551 29.7876 23.026C29.819 22.7833 29.8577 22.5527 29.9036 22.3342C29.9486 22.1031 29.9819 21.8855 30.0037 21.6815C30.0371 21.464 30.0009 21.2456 29.895 21.0264C29.9608 21.0591 30.0038 21.0431 30.024 20.9783C30.0557 20.8999 30.0739 20.81 30.0785 20.7085C30.0947 20.5934 30.092 20.4799 30.0705 20.3678C30.0606 20.2422 30.0464 20.1422 30.0279 20.0678C30.1604 19.6654 30.2542 19.2534 30.3094 18.8319C30.3771 18.4093 30.4328 17.9941 30.4764 17.5861C30.519 17.1656 30.5694 16.7633 30.6275 16.3795C30.6973 15.9821 30.7941 15.6078 30.918 15.2567C31.0919 15.2177 31.2761 15.2284 31.4705 15.2889C31.6765 15.3358 31.8148 15.407 31.8856 15.5026C32.2512 15.1703 32.5679 14.7786 32.8357 14.3276C33.1034 13.8766 33.3722 13.4382 33.6419 13.0123C33.9232 12.5729 34.2462 12.1808 34.6108 11.8359C34.9755 11.491 35.4443 11.2643 36.0172 11.1558C36.3356 11.3456 36.6932 11.5512 37.09 11.7727C37.4857 11.9816 37.8174 12.2587 38.0849 12.6042C38.1904 12.6591 38.29 12.7207 38.3839 12.7892C38.4894 12.844 38.5949 12.8989 38.7004 12.9538L38.7227 13.2365C38.9115 13.3859 39.0714 13.5692 39.2023 13.7864C39.3448 13.99 39.47 14.214 39.5778 14.4583C39.6972 14.6891 39.8108 14.9266 39.9186 15.1709C40.0264 15.4153 40.1453 15.6397 40.2752 15.8444C40.2561 15.9217 40.249 15.9918 40.2539 16.0546C40.2705 16.1039 40.2875 16.1594 40.305 16.2213C40.3341 16.2695 40.3579 16.3309 40.3765 16.4053C40.394 16.4671 40.4067 16.5482 40.4147 16.6487C40.4171 17.3186 40.2399 17.8762 39.8832 18.3216C39.5381 18.7534 39.0996 19.1231 38.5676 19.4306C38.0473 19.7246 37.4867 19.9901 36.886 20.2272C36.2843 20.4518 35.7407 20.6907 35.255 20.944C35.259 20.9943 35.2861 21.0174 35.3363 21.0134C35.3992 21.0085 35.421 21.0447 35.4018 21.122C35.7966 21.3184 36.1 21.4777 36.3119 21.6C36.5364 21.7213 36.7406 21.8253 36.9244 21.9119C37.1198 21.9849 37.3268 22.0444 37.5453 22.0904C37.7764 22.1353 38.0902 22.1863 38.4866 22.2435C38.883 22.3007 39.1905 22.3522 39.409 22.3981C39.6392 22.4305 39.8436 22.4586 40.0225 22.4824C40.2004 22.4936 40.3908 22.5038 40.5938 22.5131C40.7968 22.5223 41.0694 22.5323 41.4116 22.5432C41.5607 22.6705 41.6867 22.8249 41.7895 23.0064C41.8924 23.1879 41.9701 23.3714 42.0227 23.5568C42.0753 23.7423 42.096 23.924 42.0847 24.1019C42.0851 24.2662 42.0453 24.4021 41.9653 24.5095C41.9818 24.5588 42.0152 24.5814 42.0655 24.5774C42.1273 24.5599 42.1901 24.5549 42.2539 24.5625C42.1709 24.6323 42.1015 24.7137 42.0456 24.8066C41.9898 24.8995 41.9339 24.9924 41.878 25.0853C41.8222 25.1782 41.7533 25.2658 41.6713 25.3482C41.6019 25.4295 41.5048 25.4814 41.3802 25.5039C40.9418 25.7155 40.3644 25.7675 39.6479 25.6598C38.9315 25.5521 38.0103 25.3342 36.8846 25.006C36.3284 24.8477 35.8743 24.7003 35.5222 24.5638C35.1701 24.4272 34.8624 24.2935 34.5992 24.1626C34.3351 24.0192 34.0892 23.868 33.8617 23.7089C33.6333 23.5374 33.3709 23.3369 33.0746 23.1075C33.038 23.123 33.0148 23.1501 33.0052 23.1888C33.0082 23.2265 32.9913 23.2531 32.9547 23.2687C32.9316 23.7762 32.8633 24.1924 32.75 24.5174C32.6492 24.8414 32.486 25.1767 32.2606 25.5232C32.0566 25.5014 31.9199 25.5312 31.8505 25.6125C31.7936 25.6929 31.7174 25.7684 31.6219 25.8392C31.4982 25.8742 31.4035 25.8754 31.3377 25.8427C31.2729 25.8225 31.2139 25.7956 31.1607 25.7619C31.1074 25.7282 31.0479 25.6949 30.9821 25.6622C30.9163 25.6295 30.8148 25.6249 30.6776 25.6484C30.631 25.5383 30.5848 25.4345 30.5392 25.3369C30.4926 25.2268 30.3881 25.1845 30.2258 25.21C30.2545 25.094 30.2596 24.9987 30.2411 24.9243C30.2216 24.8374 30.1968 24.7635 30.1667 24.7027C30.1356 24.6293 30.1045 24.5559 30.0734 24.4825C30.0549 24.4081 30.0605 24.3192 30.0903 24.2157ZM35.7037 15.1059C35.5593 15.3575 35.3945 15.5918 35.2093 15.8087C35.0232 16.013 34.8381 16.2299 34.654 16.4594C34.4814 16.6753 34.3297 16.9149 34.1988 17.1781C34.0669 17.4287 33.9829 17.7261 33.9469 18.0703C34.4696 17.9657 35.011 17.7775 35.571 17.5057C36.1301 17.2213 36.6587 16.952 37.1569 16.6977C37.0574 16.2378 36.8647 15.8801 36.5791 15.6246C36.2924 15.3565 36.0006 15.1836 35.7037 15.1059Z" fill="#00408F"/>
<path d="M50.9975 24.4213C50.8127 24.3221 50.663 24.1885 50.5486 24.0206C50.4217 23.8536 50.3188 23.6722 50.2401 23.4761C50.1488 23.281 50.0759 23.0782 50.0213 22.8676C49.9532 22.6455 49.8861 22.4359 49.8199 22.2388C49.806 22.0629 49.8338 21.9343 49.9032 21.853C49.9716 21.7591 50.0468 21.671 50.1288 21.5886C50.4293 21.5522 50.6975 21.5057 50.9332 21.4492C51.1689 21.3926 51.3984 21.3366 51.6215 21.281C51.8447 21.2254 52.0683 21.1761 52.2925 21.1331C52.5157 21.0776 52.7592 21.0394 53.023 21.0185C53.1806 20.6141 53.3272 20.2296 53.4628 19.8649C53.5973 19.4877 53.727 19.1298 53.8519 18.7912C53.9025 18.4712 53.9739 18.1748 54.0661 17.902C54.1699 17.6157 54.2689 17.3487 54.3631 17.101C54.4563 16.8408 54.5374 16.5879 54.6065 16.3422C54.6746 16.084 54.7102 15.8157 54.7135 15.5373C54.8295 15.0857 54.9297 14.6732 55.0139 14.3C55.1098 13.9131 55.1687 13.4597 55.1908 12.9396C54.7194 13.0527 54.3422 13.1584 54.0592 13.2566C53.7752 13.3423 53.5728 13.4215 53.4522 13.4943C53.1999 13.5016 52.9949 13.4672 52.8372 13.3912C52.6921 13.3141 52.5705 13.2163 52.4727 13.0976C52.3748 12.9789 52.288 12.8404 52.2123 12.6821C52.1365 12.5237 52.0477 12.3601 51.9459 12.1911C51.9872 12.0741 51.9869 11.9098 51.9449 11.6982C51.9019 11.474 51.8136 11.3166 51.68 11.2261C51.7785 11.193 51.8474 11.1054 51.8868 10.9632C51.9251 10.8085 51.9224 10.6949 51.8788 10.6225C52.0874 10.5428 52.3106 10.4872 52.5483 10.4558C52.785 10.4118 53.0159 10.3746 53.2411 10.3442C53.4778 10.3002 53.7019 10.2572 53.9135 10.2151C54.1241 10.1606 54.3008 10.0771 54.4436 9.96464C55.095 9.88787 55.7714 9.80911 56.473 9.72837C57.1871 9.64663 57.8442 9.56308 58.4442 9.47772C58.6763 9.53522 58.9369 9.55255 59.2258 9.52971C59.5273 9.50587 59.8241 9.50137 60.116 9.51622C60.4205 9.53008 60.6908 9.59088 60.9269 9.69864C61.1755 9.8054 61.3562 10.0123 61.469 10.3195C61.6594 10.3297 61.8016 10.369 61.8955 10.4375C62.002 10.5049 62.0722 10.5942 62.1063 10.7052C62.1394 10.8038 62.1551 10.9226 62.1534 11.0618C62.1634 11.1874 62.1733 11.3131 62.1832 11.4387C61.9941 11.6054 61.7465 11.7514 61.4404 11.8767C61.1458 11.9885 60.8188 12.0902 60.4595 12.1818C60.0991 12.2608 59.7189 12.3288 59.3189 12.3857C58.9304 12.4291 58.5482 12.4719 58.1723 12.5143C58.1422 12.9339 58.0679 13.4328 57.9493 14.011C57.8422 14.5757 57.7284 15.1347 57.6078 15.6878C57.4862 16.2284 57.3794 16.7172 57.2875 17.1543C57.2073 17.5778 57.1784 17.8519 57.2009 17.9765C57.0981 18.2754 57.0106 18.5289 56.9386 18.7368C56.8791 18.9438 56.8186 19.1382 56.7571 19.32C56.7082 19.5009 56.653 19.6823 56.5916 19.8641C56.5417 20.0324 56.4749 20.2273 56.3913 20.4488L57.6727 20.3475C57.7088 20.4837 57.7728 20.5735 57.8647 20.6168C57.9566 20.6601 58.0543 20.6966 58.1578 20.7264C58.2613 20.7561 58.3532 20.7994 58.4335 20.8563C58.5254 20.8996 58.5764 20.984 58.5863 21.1097C58.83 21.1536 58.9882 21.2359 59.0609 21.3566C59.1337 21.4772 59.1572 21.6144 59.1314 21.7682C59.1172 21.9084 59.0658 22.0578 58.9772 22.2165C58.9012 22.3742 58.8237 22.5131 58.7447 22.6331C58.6296 22.6169 58.5253 22.6568 58.4317 22.7527C58.3372 22.836 58.2499 22.9314 58.1699 23.0389C57.8016 23.0174 57.4431 23.0394 57.0943 23.1049C56.7455 23.1704 56.4213 23.2277 56.1218 23.2766C56.06 23.2941 56.0378 23.3338 56.0553 23.3956C56.0719 23.4449 56.0623 23.4836 56.0266 23.5117C55.6272 23.4169 55.2212 23.3984 54.8086 23.4563C54.4085 23.5132 53.9989 23.6088 53.5797 23.7431C53.1721 23.8638 52.7524 23.9918 52.3206 24.127C51.8898 24.2749 51.4488 24.3729 50.9975 24.4213Z" fill="#00408F"/>
<path d="M64.5558 21.3394C64.4381 21.4498 64.3731 21.5877 64.3609 21.753C64.3477 21.9057 64.3282 22.059 64.3024 22.2127C64.2767 22.3665 64.218 22.5038 64.1264 22.6249C64.0464 22.7323 63.8866 22.7892 63.6469 22.7955C63.6016 22.8623 63.592 22.901 63.6181 22.9116C63.6568 22.9211 63.6927 22.9752 63.7258 23.0737C63.5479 23.0625 63.4232 23.085 63.3518 23.1412C63.2804 23.1974 63.1892 23.2426 63.0781 23.2766C62.7822 23.2115 62.5248 23.0738 62.3059 22.8636C62.0986 22.6398 61.9086 22.3956 61.736 22.1312C61.576 21.8657 61.428 21.593 61.2921 21.3129C61.1687 21.0319 61.0421 20.7891 60.9121 20.5845C60.9081 20.5342 60.9318 20.5134 60.983 20.522C61.0207 20.519 61.0584 20.516 61.0961 20.513C61.0233 20.3924 60.9684 20.2576 60.9314 20.1089C60.8808 19.9485 60.8075 19.8216 60.7117 19.728C61.0144 18.9203 61.3398 18.0792 61.6879 17.2046C62.0349 16.3176 62.3815 15.4242 62.7275 14.5245C63.0852 13.6113 63.4365 12.6986 63.7816 11.7864C64.1382 10.8607 64.4775 9.95523 64.7995 9.07013C65.1612 9.16795 65.5123 9.2919 65.8528 9.44196C66.205 9.57847 66.5282 9.74887 66.8224 9.95316C67.1167 10.1575 67.37 10.4029 67.5823 10.6895C67.8061 10.9626 67.9644 11.2851 68.057 11.657C68.0378 11.7344 68.0084 11.762 67.9687 11.7399C67.929 11.7177 67.8986 11.7328 67.8775 11.785C67.9462 11.8554 67.9821 11.9095 67.9851 11.9472C67.9996 11.9713 68.0021 12.0027 67.9925 12.0414C67.982 12.0675 67.9787 12.1057 67.9826 12.1559C67.9866 12.2062 68.0235 12.2728 68.0932 12.3558C68.0294 12.3482 67.9865 12.3642 67.9643 12.4039C67.9412 12.431 67.8972 12.4345 67.8324 12.4143C67.9091 12.5853 67.9389 12.722 67.9217 12.8245C67.9045 12.927 67.8743 13.0242 67.831 13.1161C67.7867 13.1954 67.7497 13.2868 67.7199 13.3903C67.7017 13.4803 67.7242 13.6049 67.7874 13.7643C67.7372 13.7682 67.7005 13.7838 67.6773 13.8109C67.6657 13.8244 67.6547 13.8443 67.6441 13.8704C67.6335 13.8965 67.6167 13.9231 67.5935 13.9502C67.5819 13.9638 67.5505 13.9663 67.4993 13.9577C67.5628 14.2814 67.6017 14.6133 67.6159 14.9535C67.6292 15.2811 67.6434 15.6213 67.6587 15.9741C67.6729 16.3143 67.7008 16.6661 67.7421 17.0294C67.7835 17.3928 67.8635 17.7657 67.9823 18.1482C68.4977 17.7914 68.8988 17.3489 69.1857 16.8205C69.4852 16.2912 69.7049 15.7112 69.8446 15.0807C69.997 14.4492 70.0956 13.7777 70.1405 13.0662C70.198 12.3538 70.2544 11.6287 70.3099 10.8911C70.4372 10.742 70.5305 10.5639 70.59 10.3569C70.6621 10.149 70.7148 9.93622 70.7482 9.71867C70.7941 9.50013 70.8337 9.28208 70.8671 9.06453C70.912 8.83343 70.9778 8.62596 71.0644 8.44212C71.2925 8.44937 71.4865 8.50357 71.6462 8.60473C71.8174 8.69232 71.9776 8.79976 72.1267 8.92703C72.2749 9.04174 72.4288 9.14967 72.5885 9.25082C72.7482 9.35197 72.9426 9.41245 73.1717 9.43227C73.3675 9.66963 73.5502 9.9017 73.7198 10.1285C73.8884 10.3427 74.0093 10.5923 74.0824 10.8773C74.0169 11.0089 73.9713 11.1516 73.9456 11.3053C73.9198 11.459 73.8877 11.6133 73.8494 11.768C73.8236 11.9217 73.778 12.0644 73.7126 12.196C73.6471 12.3276 73.5488 12.4428 73.4175 12.5417C73.4096 12.9216 73.3809 13.2778 73.3313 13.6104C73.2818 13.943 73.238 14.2689 73.2 14.5879C73.162 14.907 73.1313 15.2381 73.1079 15.5813C73.0845 15.9244 73.0949 16.2966 73.1393 16.6976C73.055 17.0709 72.9591 17.4577 72.8517 17.8581C72.7433 18.2459 72.6706 18.6056 72.6336 18.9372C72.4098 19.1446 72.2398 19.3919 72.1234 19.6792C72.0071 19.9665 71.8844 20.2543 71.7555 20.5427C71.6967 20.5979 71.66 20.6134 71.6454 20.5893C71.6299 20.5526 71.5714 20.5319 71.4699 20.5273C71.4914 20.6394 71.4722 20.7168 71.4124 20.7594C71.3641 20.7885 71.3773 20.876 71.4521 21.0218C71.2464 21.1391 71.0684 21.286 70.918 21.4622C70.7676 21.6384 70.5973 21.8036 70.4073 21.9577C70.2297 22.1108 70.011 22.2229 69.7512 22.294C69.5029 22.3515 69.1655 22.3213 68.739 22.2033C68.0876 21.7997 67.4936 21.322 66.957 20.7703C66.4203 20.2186 65.9757 19.5521 65.6232 18.7709C65.5006 18.8185 65.4128 18.9076 65.3599 19.0382C65.307 19.1688 65.2609 19.3052 65.2216 19.4473C65.1823 19.5895 65.1419 19.7191 65.1006 19.8362C65.0593 19.9532 64.9884 20.0157 64.8879 20.0236C64.8717 20.1387 64.8299 20.2495 64.7624 20.3559C64.7066 20.4488 64.6512 20.548 64.5963 20.6535C64.5405 20.7464 64.4982 20.8509 64.4694 20.9669C64.4532 21.082 64.482 21.2061 64.5558 21.3394Z" fill="#00408F"/>
<path d="M74.7437 13.7643C74.7665 13.5728 74.7797 13.4201 74.7833 13.306C74.786 13.1794 74.7316 13.051 74.6201 12.9207C74.6545 12.7157 74.6798 12.5557 74.696 12.4406C74.7247 12.3246 74.7186 12.167 74.6776 11.968C74.7648 11.6324 74.9126 11.3426 75.1208 11.0986C75.3417 10.8536 75.5843 10.6448 75.8488 10.4722C76.1123 10.287 76.3908 10.1322 76.6844 10.0079C76.977 9.871 77.2522 9.75443 77.5101 9.65819C77.5061 9.60794 77.479 9.5848 77.4287 9.58877C77.3785 9.59274 77.3634 9.56233 77.3836 9.49752C78.0521 9.31826 78.7161 9.08246 79.3756 8.79012C80.0478 8.4968 80.7344 8.2276 81.4356 7.98254C82.1369 7.73748 82.8629 7.56631 83.6137 7.46902C84.3635 7.35918 85.1625 7.39084 86.0105 7.56399C86.0727 7.71078 86.1532 7.8498 86.2521 7.98104C86.3509 8.11228 86.4498 8.24353 86.5487 8.37477C86.6591 8.49246 86.757 8.61114 86.8423 8.73082C86.9276 8.85049 86.982 8.97893 87.0055 9.11614C87.1672 9.24241 87.2985 9.38374 87.3993 9.54011C87.5117 9.68293 87.547 9.88873 87.505 10.1575C87.3748 10.269 87.2382 10.3809 87.0954 10.4933C86.9526 10.6057 86.803 10.7124 86.6466 10.8132C86.0704 10.7197 85.501 10.7142 84.9387 10.7966C84.3763 10.8789 83.871 10.9631 83.4226 11.0491C83.2725 10.9093 83.1037 10.8531 82.9163 10.8806C82.7278 10.8955 82.5293 10.9428 82.3207 11.0225C82.1237 11.0886 81.9271 11.161 81.7311 11.2398C81.534 11.3059 81.3466 11.3334 81.1687 11.3221C81.0404 11.4587 80.8652 11.561 80.643 11.6292C80.4199 11.6847 80.1837 11.735 79.9344 11.78C79.9268 11.8438 79.9428 11.8868 79.9825 11.9089C80.0222 11.9311 80.0324 11.9808 80.0133 12.0582C80.1101 12.1643 80.2359 12.2366 80.3907 12.2749C80.5444 12.3007 80.6982 12.3264 80.8519 12.3522C81.0182 12.377 81.1672 12.4221 81.2987 12.4875C81.4293 12.5404 81.5195 12.6408 81.5691 12.7885C81.7962 12.7832 81.9959 12.8307 82.1682 12.9308C82.3394 13.0184 82.4876 13.1331 82.6125 13.2749C82.7375 13.4168 82.8321 13.5736 82.8963 13.7455C82.9594 13.9049 82.9902 14.0542 82.9885 14.1934C83.0487 14.315 83.103 14.3613 83.1512 14.3322C83.2121 14.3021 83.2836 14.3281 83.366 14.41C83.4311 14.5945 83.5601 14.7866 83.7528 14.9863C83.9572 15.1724 84.1191 15.3808 84.2384 15.6116C84.2934 15.9865 84.339 16.3242 84.3754 16.6247C84.4244 16.9243 84.3975 17.2235 84.2947 17.5224C84.1248 18.092 83.8562 18.6126 83.489 19.0841C83.1217 19.5556 82.6939 19.9813 82.2056 20.3613C81.7289 20.7277 81.2178 21.0588 80.6723 21.3548C80.1259 21.6382 79.5827 21.8834 79.0428 22.0904C78.9915 22.0818 78.9287 22.0868 78.8543 22.1053C78.7925 22.1228 78.777 22.0861 78.8077 21.9952C78.7026 22.1047 78.5756 22.1779 78.4269 22.215C78.2907 22.251 78.1341 22.2697 77.9572 22.271C77.7939 22.284 77.6238 22.2911 77.4469 22.2924C77.2826 22.2928 77.1198 22.312 76.9584 22.35C76.85 22.2574 76.7478 22.1644 76.6519 22.0708C76.5686 21.9763 76.4964 21.8619 76.4352 21.7277C76.3714 21.7201 76.337 21.6849 76.332 21.622C76.3386 21.5457 76.3105 21.51 76.2477 21.5149C76.2437 21.4647 76.247 21.4265 76.2576 21.4004C76.2682 21.3743 76.2788 21.3481 76.2893 21.322C76.3366 21.2804 76.3535 21.2537 76.3399 21.2422C76.3379 21.217 76.3176 21.1997 76.2789 21.1901C76.2518 21.167 76.2184 21.1443 76.1787 21.1222C76.1516 21.099 76.1428 21.0681 76.1524 21.0294C76.2063 20.9114 76.2147 20.778 76.1777 20.6292C76.1522 20.4669 76.1267 20.3046 76.1012 20.1422C76.0758 19.9799 76.0764 19.8281 76.1032 19.687C76.129 19.5332 76.2258 19.3991 76.3938 19.2847C76.9128 19.2943 77.3945 19.2309 77.8389 19.0946C78.2958 18.9574 78.7183 18.7849 79.1064 18.5773C79.5071 18.3686 79.8817 18.1494 80.2301 17.9195C80.5901 17.6762 80.9391 17.4526 81.2769 17.2489C81.3047 17.1203 81.3528 17.0091 81.4212 16.9152C81.5022 16.8203 81.5837 16.7317 81.6657 16.6493C81.7467 16.5544 81.8214 16.46 81.8898 16.3661C81.9572 16.2597 82.0043 16.1358 82.0311 15.9947C82.0397 15.9434 82.0367 15.9057 82.0222 15.8816C82.0076 15.8575 81.9873 15.8401 81.9612 15.8295C81.934 15.8064 81.9069 15.7832 81.8798 15.7601C81.8527 15.737 81.8372 15.7003 81.8332 15.65C81.7945 15.6404 81.7558 15.6308 81.7171 15.6213C81.691 15.6107 81.6654 15.6064 81.6403 15.6084C81.3007 15.4709 80.9443 15.36 80.571 15.2757C80.1977 15.1915 79.88 15.0902 79.6178 14.9718C79.475 15.0842 79.3262 15.1213 79.1715 15.083C79.0168 15.0446 78.8306 15.0088 78.6131 14.9754C78.0834 14.992 77.5769 14.9815 77.0935 14.9438C76.6227 14.9052 76.16 14.809 75.7054 14.6553C75.6743 14.5819 75.638 14.5216 75.5963 14.4743C75.5536 14.4145 75.4642 14.4026 75.328 14.4387C75.2301 14.32 75.127 14.2144 75.0185 14.1218C74.9216 14.0157 74.83 13.8965 74.7437 13.7643Z" fill="#00408F"/>
<path d="M86.539 10.689C86.5185 10.5895 86.4864 10.5035 86.4427 10.4311C86.4107 10.3452 86.3718 10.2534 86.3262 10.1559C86.2514 10.0101 86.182 9.85126 86.1178 9.67934C86.0537 9.50743 86.0121 9.30212 85.9933 9.06342C86.0085 8.9358 86.0329 8.84537 86.0666 8.79214C86.0994 8.72634 86.1331 8.67311 86.1678 8.63244L86.2164 8.28727L86.499 8.26492C86.6005 8.26954 86.7015 8.26788 86.802 8.25993C86.9151 8.25099 87.0219 8.24255 87.1224 8.23461C87.5998 8.19686 88.0883 8.13929 88.5879 8.06187C89.0874 7.98445 89.599 7.89976 90.1227 7.80779C90.6947 7.68673 91.3121 7.58103 91.975 7.4907C92.0269 7.34754 92.0576 7.25661 92.0672 7.21793C92.0893 7.17826 92.111 7.1323 92.1321 7.08006L92.3305 6.9506C92.6185 6.91519 92.8225 6.93699 92.9425 7.016C93.0615 7.08244 93.1554 7.15087 93.2242 7.22128C93.5488 7.17033 93.8793 7.1126 94.2155 7.0481C94.5508 6.97103 94.8986 6.89297 95.2589 6.81391C95.7565 6.71137 96.2604 6.60833 96.7705 6.50479C97.2806 6.40125 97.7807 6.33012 98.2706 6.29138C98.4842 6.2745 98.6857 6.26489 98.8752 6.26256C99.0646 6.26022 99.2483 6.26467 99.4261 6.27589L99.6657 6.42762C99.7229 6.51159 99.7922 6.58828 99.8735 6.6577C99.9549 6.72713 100.049 6.79555 100.155 6.86299C100.356 6.99885 100.553 7.1729 100.746 7.38514C100.953 7.59638 101.048 7.92385 101.033 8.36754L100.953 8.56344C100.907 8.61766 100.848 8.67288 100.777 8.72909L100.608 8.98898L100.4 9.00536C100.275 9.0153 100.182 9.03531 100.121 9.0654C100.059 9.08293 99.9855 9.11402 99.9005 9.15866C99.8523 9.18776 99.7977 9.21735 99.7369 9.24745C99.6751 9.26498 99.6075 9.28928 99.5341 9.32037C99.3949 9.31873 99.2876 9.32089 99.2122 9.32685C99.1368 9.33281 99.0489 9.33976 98.9484 9.34771C98.5715 9.3775 98.1652 9.43491 97.7294 9.51992C97.2937 9.60494 96.871 9.69524 96.4614 9.79083C96.1628 9.85236 95.8768 9.91289 95.6034 9.97243C95.329 10.0194 95.0797 10.0644 94.8556 10.1074C94.7558 10.444 94.6656 10.7419 94.5849 11.0011C94.5043 11.2603 94.4173 11.52 94.3241 11.7802C94.2309 12.0404 94.1445 12.3064 94.0648 12.5782C93.9842 12.8374 93.9123 13.1275 93.8492 13.4486C93.7163 13.6866 93.6081 13.9164 93.5245 14.1379C93.4398 14.3469 93.3766 14.5858 93.3346 14.8546C93.163 15.083 93.0432 15.3264 92.9751 15.5846C92.9196 15.8418 92.8674 16.0609 92.8185 16.2417L92.7654 16.5304C92.6845 16.6253 92.6334 16.6988 92.6122 16.7511C92.6036 16.8023 92.5767 16.8613 92.5314 16.9281C92.5066 17.0944 92.4688 17.2554 92.4179 17.4112C92.3977 17.476 92.3781 17.5471 92.3589 17.6244C92.3387 17.6892 92.3364 17.74 92.352 17.7767C92.3378 17.9169 92.3085 18.0266 92.2642 18.106C92.2702 18.1814 92.2699 18.2572 92.2633 18.3336C92.2567 18.41 92.2501 18.4864 92.2435 18.5627C92.2253 18.6527 92.2129 18.7358 92.2063 18.8122C92.1987 18.876 92.2099 18.9383 92.24 18.9991C92.2817 19.0464 92.3233 19.0937 92.365 19.141C92.4067 19.1882 92.443 19.2486 92.4741 19.322C92.5012 19.3451 92.5341 19.3615 92.5728 19.3711C92.6115 19.3806 92.6444 19.397 92.6715 19.4201C92.779 19.5001 92.8772 19.5429 92.9661 19.5486L93.1724 19.7598C93.2836 20.2061 93.2423 20.5634 93.0486 20.8315C92.8453 21.1383 92.4798 21.3126 91.9521 21.3543L91.6868 21.3563C91.5919 21.2753 91.5372 21.2228 91.5227 21.1987C91.4056 21.1573 91.3079 21.1208 91.2295 21.0891C91.1522 21.0699 91.0786 21.0188 91.0088 20.9359C90.9817 20.9127 90.9493 20.9026 90.9116 20.9056C90.873 20.896 90.8401 20.8797 90.8129 20.8565C90.6843 20.8288 90.5803 20.7928 90.501 20.7485L90.2848 20.6518C90.2874 20.5251 90.2867 20.4367 90.2827 20.3865C90.1713 20.2562 90.0777 20.1119 90.002 19.9535C89.9388 19.7942 89.8815 19.6281 89.8299 19.4552C89.7812 19.3199 89.7336 19.1973 89.687 19.0872C89.6529 18.9761 89.601 18.8791 89.5312 18.7961C89.4366 17.9186 89.4602 17.1772 89.6019 16.5719C89.7427 15.9539 89.9038 15.3533 90.0853 14.7701C90.1871 14.4587 90.2821 14.1414 90.3703 13.8184C90.4586 13.4954 90.5338 13.1671 90.5959 12.8335L90.7868 12.6098C90.8688 12.5274 90.9218 12.479 90.946 12.4645C90.933 12.3011 90.952 12.1416 91.0029 11.9859C91.0528 11.8176 91.109 11.6488 91.1715 11.4795C91.2138 11.375 91.2498 11.2711 91.2796 11.1676C91.3219 11.0631 91.3463 10.9727 91.353 10.8963C91.265 10.9032 91.1838 10.916 91.1095 10.9345C91.0466 10.9395 90.978 10.9512 90.9036 10.9697C90.7433 11.0203 90.5877 11.0516 90.437 11.0635C90.3239 11.0725 90.2418 11.0726 90.1905 11.064C90.094 11.1222 90.0022 11.1611 89.9153 11.1806C89.8273 11.1876 89.7394 11.1945 89.6515 11.2015L89.4253 11.2193L89.1992 11.2372C89.0484 11.2491 88.9306 11.2774 88.8456 11.3221C88.6697 11.336 88.5566 11.3449 88.5064 11.3489C88.4561 11.3528 88.3996 11.3573 88.3368 11.3623L88.1106 11.3802L87.8845 11.398C87.784 11.406 87.6704 11.4086 87.5438 11.406C87.4162 11.3908 87.2803 11.351 87.1361 11.2865L86.9923 11.1462C86.906 11.014 86.8309 10.944 86.7671 10.9364L86.5554 10.8963L86.539 10.689Z" fill="#00408F"/>
<path d="M97.769 18.6948L97.9991 18.487L97.9867 18.0897C98.2402 17.2985 98.5024 16.5383 98.7735 15.8089C99.0571 15.0785 99.3517 14.3283 99.6575 13.5583C99.7517 13.3106 99.8459 13.063 99.9401 12.8154C100.047 12.5667 100.147 12.3123 100.24 12.0521C100.223 12.0028 100.213 11.9531 100.209 11.9028C100.204 11.84 100.211 11.7699 100.231 11.6926C100.387 11.4274 100.507 11.1903 100.592 10.9814C100.689 10.7714 100.779 10.5557 100.863 10.3341C100.956 10.0739 101.055 9.81323 101.161 9.55203C101.28 9.28984 101.43 9.03145 101.612 8.77685L101.729 8.57797L101.938 8.58043C101.986 8.55133 102.035 8.52852 102.084 8.51198C102.145 8.48189 102.219 8.46336 102.307 8.45641L102.651 8.48613C103.051 8.26491 103.394 7.96599 103.68 7.58939C103.978 7.19923 104.27 6.73997 104.557 6.21161L104.758 5.87337L105.074 6.03798C105.14 6.07071 105.243 6.10045 105.385 6.12722C105.526 6.15398 105.674 6.18653 105.829 6.22487C106.097 6.26683 106.361 6.32185 106.619 6.38993C106.876 6.44545 107.079 6.53684 107.229 6.66411L107.336 6.82627C107.372 6.96248 107.401 7.08662 107.423 7.1987C107.457 7.30978 107.491 7.42087 107.525 7.53195C107.596 7.79181 107.661 8.05216 107.719 8.31302C107.777 8.5613 107.824 8.84199 107.862 9.15508C107.944 9.40139 108.021 9.65447 108.092 9.91432C108.175 10.1606 108.251 10.4074 108.321 10.6547C108.413 11.0141 108.51 11.3604 108.612 11.6937C108.713 12.0143 108.839 12.3205 108.988 12.6121C109.114 12.6021 109.19 12.6025 109.216 12.613C109.362 12.5383 109.535 12.4867 109.735 12.4583L109.978 12.42L110.071 12.6402C110.099 12.6759 110.134 12.7111 110.174 12.7458C110.215 12.7806 110.262 12.8148 110.315 12.8485C110.517 12.8452 110.665 12.8777 110.759 12.9461C110.865 13.001 110.951 13.0574 111.019 13.1152C111.046 13.1384 111.08 13.1673 111.121 13.202C111.16 13.2241 111.193 13.2405 111.219 13.2511L111.569 13.3562L111.409 13.7291C111.292 14.0039 111.098 14.2783 110.829 14.5524C110.573 14.8256 110.275 15.0577 109.936 15.2488C109.968 15.3348 109.987 15.4154 109.993 15.4908C110.012 15.5652 110.038 15.6517 110.071 15.7502C110.141 15.9975 110.199 16.2583 110.246 16.5327C110.305 16.7936 110.327 17.07 110.312 17.3619C110.212 17.6985 110.085 18.0057 109.93 18.2834C109.786 18.5476 109.604 18.7959 109.382 19.0283C109.171 19.2472 108.927 19.4372 108.649 19.5982C108.37 19.7467 108.074 19.8396 107.761 19.877C107.582 19.8532 107.447 19.8197 107.355 19.7764C107.276 19.7321 107.202 19.6873 107.136 19.642C107.029 19.5746 106.944 19.5308 106.879 19.5106L106.625 19.4169L106.678 19.1283C106.708 19.0248 106.694 18.9374 106.638 18.8659C106.595 18.7935 106.499 18.7 106.351 18.5853C106.297 18.5516 106.25 18.5174 106.21 18.4826C106.168 18.4354 106.12 18.3886 106.066 18.3423L105.655 17.9387L106.263 17.7199C106.632 17.5896 106.873 17.4441 106.987 17.2834C107.1 17.1102 107.128 16.8235 107.071 16.4235C106.752 16.3855 106.494 16.3996 106.297 16.4657C106.099 16.5193 105.901 16.5791 105.704 16.6453C105.421 16.7435 105.144 16.835 104.872 16.9196C104.6 16.9917 104.301 17.0407 103.974 17.0665C103.76 17.0834 103.533 17.0824 103.291 17.0636L103.082 17.0612L103.009 16.8583C103.007 16.8332 102.986 16.8096 102.947 16.7874C102.919 16.7517 102.891 16.7223 102.864 16.6991C102.795 16.6287 102.712 16.5342 102.614 16.4155C102.516 16.2968 102.485 16.1413 102.52 15.9488C102.421 15.8176 102.36 15.6771 102.335 15.5273C102.293 15.6318 102.257 15.7358 102.227 15.8393C102.209 15.9292 102.191 16.0191 102.173 16.1091L102.117 16.36L101.875 16.4171C101.851 16.4442 101.829 16.4839 101.808 16.5361C101.8 16.5873 101.803 16.625 101.817 16.6492L101.909 16.8505L101.734 17.035C101.712 17.0747 101.683 17.1086 101.647 17.1367C101.611 17.1648 101.582 17.1924 101.559 17.2195C101.545 17.3597 101.517 17.4946 101.477 17.6242C101.449 17.7528 101.415 17.8819 101.375 18.0115C101.328 18.2175 101.28 18.4172 101.233 18.6106C101.197 18.803 101.187 18.9935 101.202 19.1819L101.146 19.4329C101.091 19.5383 101.015 19.6202 100.919 19.6784C100.835 19.7356 100.75 19.7865 100.665 19.8312C100.544 19.8913 100.46 19.9485 100.413 20.0028L100.376 20.2522L100.097 20.3123C99.9362 20.3629 99.8189 20.3974 99.7445 20.4159C99.6827 20.4335 99.6078 20.4457 99.5198 20.4527L99.2734 20.4532C99.1107 20.3144 98.9761 20.2112 98.8697 20.1438C98.7748 20.0628 98.662 19.9958 98.5314 19.943L98.4064 19.8011C98.3482 19.7046 98.3099 19.6191 98.2913 19.5448C98.2718 19.4578 98.246 19.3714 98.2139 19.2854C98.1759 19.1241 98.1293 19.014 98.0741 18.9551L97.769 18.6948ZM103.393 13.3198C103.237 13.585 103.088 13.8623 102.947 14.1516C103.034 14.132 103.115 14.1193 103.191 14.1134C103.278 14.1064 103.366 14.0932 103.453 14.0736C103.891 14.0138 104.296 13.9501 104.67 13.8826C105.044 13.8151 105.448 13.72 105.88 13.5973C105.743 13.1404 105.593 12.6782 105.429 12.2107C105.278 11.7297 105.113 11.2497 104.936 10.7706L104.857 10.9665C104.57 11.3306 104.297 11.7187 104.039 12.131C103.781 12.5434 103.571 12.9328 103.411 13.2995L103.393 13.3198Z" fill="#00408F"/>
<path d="M113.645 18.5396C113.59 18.4933 113.542 18.4403 113.499 18.3804C113.456 18.308 113.417 18.2163 113.383 18.1052C113.19 17.9055 113.032 17.6715 112.91 17.403C112.788 17.1346 112.696 16.8574 112.636 16.5714C112.574 16.2729 112.544 15.9718 112.545 15.6683C112.547 15.3648 112.568 15.0787 112.61 14.8099C112.638 14.6813 112.659 14.5469 112.673 14.4067C112.717 14.163 112.762 13.9256 112.806 13.6945C112.85 13.4508 112.929 13.2487 113.043 13.088C112.982 12.9537 112.976 12.8025 113.026 12.6342C113.076 12.4659 113.127 12.3102 113.179 12.167C113.201 12.1273 113.217 12.0944 113.228 12.0683C113.237 12.0296 113.247 11.9972 113.258 11.9711C113.374 11.5195 113.485 11.0872 113.592 10.6742C113.71 10.2477 113.823 9.84056 113.931 9.45274C114.128 8.74189 114.313 8.04459 114.486 7.36086C114.673 6.67613 114.83 5.94942 114.959 5.18072C115.053 5.09739 115.137 5.04019 115.211 5.0091C115.235 4.99455 115.265 4.9795 115.302 4.96396C115.339 4.94842 115.382 4.93866 115.432 4.93469C115.707 5.05203 116.025 5.15961 116.387 5.25743C116.76 5.3417 117.073 5.37391 117.324 5.35404L117.667 5.61139C117.845 5.78693 117.999 5.97702 118.129 6.18166C118.27 6.37274 118.329 6.63359 118.305 6.96421C118.238 7.08324 118.181 7.1573 118.133 7.1864C118.08 7.48132 118.019 7.74533 117.949 7.97842C117.878 8.19895 117.806 8.4132 117.734 8.62116C117.651 8.85525 117.575 9.08884 117.505 9.32193C117.435 9.55502 117.381 9.83738 117.344 10.169C117.276 10.2629 117.232 10.3422 117.211 10.407C117.204 10.4709 117.19 10.5352 117.17 10.6C117.151 10.6773 117.126 10.7615 117.095 10.8524C117.063 10.9308 117.012 11.0043 116.942 11.0731C116.922 11.4665 116.872 11.7929 116.792 12.0521C116.71 12.2987 116.628 12.5454 116.547 12.792C116.406 13.2457 116.277 13.6983 116.161 14.1499C116.044 14.589 115.995 15.0859 116.013 15.6407C116.161 15.5911 116.298 15.5613 116.423 15.5514C116.587 15.5385 116.746 15.5512 116.901 15.5895C117.335 15.3276 117.814 15.1507 118.338 15.0587C118.874 14.9658 119.405 14.8921 119.932 14.8379C120.372 14.8031 120.779 14.752 121.152 14.6845C121.285 14.7625 121.371 14.8063 121.409 14.8159C121.447 14.8129 121.51 14.8079 121.598 14.801C121.636 14.798 121.673 14.795 121.711 14.7921C121.749 14.7891 121.799 14.7914 121.863 14.799C122.053 14.961 122.233 15.0732 122.402 15.1357C122.57 15.1856 122.751 15.2345 122.944 15.2824C123.113 15.3323 123.275 15.389 123.432 15.4524C123.6 15.5024 123.764 15.5779 123.924 15.679L124.169 16.6267C124.281 16.757 124.332 16.8477 124.324 16.899C124.332 16.9995 124.313 17.0894 124.269 17.1688L124.326 17.4108C124.091 17.4799 123.939 17.5488 123.869 17.6176C123.797 17.6738 123.721 17.7494 123.64 17.8443C123.503 17.8678 123.371 17.8845 123.246 17.8944C122.994 17.9143 122.74 17.9723 122.482 18.0686C122.094 17.9602 121.674 17.9238 121.222 17.9596C121.046 17.9735 120.864 17.9942 120.677 18.0216C120.502 18.0481 120.327 18.0809 120.154 18.1199C119.967 18.1599 119.781 18.1999 119.594 18.24C119.407 18.2674 119.219 18.2886 119.03 18.3035C118.882 18.3405 118.776 18.3678 118.714 18.3854C118.653 18.4029 118.591 18.4267 118.53 18.4568C118.114 18.6288 117.66 18.8037 117.169 18.9816C116.69 19.1586 116.199 19.2669 115.696 19.3066C114.955 19.3652 114.343 19.2239 113.861 18.8828C113.802 18.7737 113.758 18.7013 113.73 18.6656C113.702 18.6299 113.674 18.5879 113.645 18.5396Z" fill="#00408F"/>
<path d="M126.532 17.5209C126.477 17.4746 126.429 17.4215 126.386 17.3617C126.343 17.2893 126.304 17.1975 126.27 17.0865C126.077 16.8868 125.919 16.6527 125.797 16.3843C125.675 16.1158 125.583 15.8386 125.523 15.5526C125.461 15.2541 125.431 14.9531 125.432 14.6496C125.434 14.3461 125.455 14.0599 125.497 13.7911C125.525 13.6625 125.546 13.5281 125.56 13.3879C125.604 13.1442 125.649 12.9069 125.693 12.6758C125.737 12.4321 125.816 12.2299 125.93 12.0692C125.869 11.935 125.863 11.7837 125.913 11.6154C125.963 11.4471 126.014 11.2914 126.066 11.1483C126.088 11.1086 126.104 11.0757 126.115 11.0496C126.124 11.0109 126.134 10.9785 126.145 10.9524C126.261 10.5007 126.372 10.0684 126.479 9.65548C126.597 9.22897 126.71 8.8218 126.818 8.43398C127.015 7.72313 127.2 7.02583 127.373 6.3421C127.56 5.65737 127.717 4.93066 127.846 4.16196C127.94 4.07863 128.024 4.02143 128.098 3.99034C128.122 3.97579 128.152 3.96074 128.189 3.9452C128.226 3.92966 128.269 3.9199 128.319 3.91593C128.594 4.03327 128.912 4.14085 129.274 4.23868C129.647 4.32294 129.96 4.35515 130.211 4.33528L130.554 4.59263C130.732 4.76817 130.886 4.95826 131.016 5.1629C131.157 5.35398 131.216 5.61483 131.192 5.94545C131.125 6.06448 131.068 6.13855 131.02 6.16765C130.967 6.46256 130.906 6.72657 130.836 6.95966C130.765 7.18019 130.693 7.39444 130.621 7.6024C130.538 7.83649 130.462 8.07008 130.392 8.30317C130.322 8.53626 130.268 8.81862 130.231 9.15023C130.163 9.24413 130.119 9.32349 130.098 9.38829C130.091 9.4521 130.077 9.51641 130.057 9.58121C130.038 9.65858 130.013 9.74272 129.982 9.83364C129.95 9.912 129.899 9.98557 129.829 10.0543C129.809 10.4478 129.759 10.7741 129.679 11.0333C129.597 11.28 129.515 11.5266 129.434 11.7733C129.293 12.2269 129.164 12.6795 129.048 13.1312C128.931 13.5702 128.882 14.0672 128.9 14.6219C129.048 14.5723 129.185 14.5425 129.31 14.5326C129.474 14.5197 129.633 14.5324 129.788 14.5708C130.222 14.3089 130.701 14.1319 131.225 14.04C131.761 13.947 132.292 13.8734 132.819 13.8191C133.259 13.7843 133.666 13.7332 134.039 13.6657C134.172 13.7437 134.258 13.7875 134.296 13.7971C134.334 13.7941 134.397 13.7892 134.485 13.7822C134.523 13.7793 134.56 13.7763 134.598 13.7733C134.636 13.7703 134.686 13.7726 134.75 13.7802C134.94 13.9422 135.12 14.0544 135.289 14.1169C135.457 14.1668 135.638 14.2157 135.831 14.2636C136 14.3135 136.162 14.3702 136.319 14.4337C136.487 14.4836 136.651 14.5591 136.811 14.6603L137.056 15.608C137.168 15.7382 137.219 15.829 137.211 15.8802C137.219 15.9807 137.2 16.0706 137.156 16.15L137.213 16.392C136.978 16.4611 136.826 16.5301 136.756 16.5989C136.684 16.6551 136.608 16.7306 136.527 16.8255C136.39 16.849 136.258 16.8657 136.133 16.8756C135.881 16.8955 135.627 16.9536 135.369 17.0498C134.981 16.9414 134.561 16.9051 134.109 16.9408C133.933 16.9547 133.751 16.9754 133.564 17.0029C133.389 17.0293 133.214 17.0621 133.041 17.1011C132.854 17.1411 132.668 17.1812 132.481 17.2212C132.294 17.2487 132.106 17.2698 131.917 17.2847C131.769 17.3218 131.663 17.3491 131.601 17.3666C131.54 17.3841 131.478 17.4079 131.417 17.438C131.001 17.61 130.547 17.7849 130.056 17.9629C129.577 18.1398 129.086 18.2481 128.583 18.2878C127.842 18.3464 127.23 18.2052 126.748 17.864C126.689 17.7549 126.645 17.6825 126.617 17.6468C126.589 17.6111 126.561 17.5691 126.532 17.5209Z" fill="#00408F"/>
<path d="M139.404 16.5601C139.296 16.4676 139.211 16.3542 139.15 16.22C139.101 16.0847 138.992 15.9796 138.821 15.9046C138.781 15.7181 138.727 15.5075 138.658 15.2728C138.6 15.0245 138.536 14.7767 138.466 14.5294C138.408 14.2686 138.356 14.0135 138.311 13.7642C138.277 13.5014 138.271 13.2617 138.292 13.0451C138.308 12.9301 138.337 12.8203 138.38 12.7158C138.435 12.6103 138.484 12.5117 138.527 12.4197C138.582 12.3143 138.618 12.2103 138.635 12.1078C138.665 12.0043 138.663 11.9033 138.63 11.8048C138.704 11.7863 138.745 11.7451 138.753 11.6813C138.772 11.6039 138.833 11.5738 138.936 11.591C139.002 11.3077 139.075 11.0427 139.157 10.796C139.239 10.5494 139.327 10.3085 139.422 10.0734C139.518 9.83833 139.613 9.60325 139.708 9.36817C139.815 9.11954 139.907 8.84677 139.985 8.54987C139.755 8.36574 139.581 8.16458 139.463 7.94638C139.356 7.71463 139.268 7.48139 139.199 7.24665C139.13 7.01192 139.073 6.7762 139.029 6.53948C138.984 6.2902 138.914 6.04291 138.819 5.7976C138.952 5.55954 139.12 5.36297 139.322 5.20789C139.524 5.04024 139.747 4.90252 139.991 4.79471C140.247 4.67335 140.524 4.57562 140.821 4.50153C141.118 4.41488 141.433 4.32045 141.766 4.21826C142.354 3.98214 142.883 3.79495 143.352 3.6567C143.821 3.50589 144.279 3.3812 144.726 3.28263C145.172 3.17149 145.639 3.07143 146.125 2.98245C146.61 2.8809 147.168 2.74826 147.8 2.58454C147.815 2.62123 147.836 2.63859 147.861 2.6366C147.898 2.63362 147.942 2.63015 147.993 2.62618C148.037 2.71114 148.11 2.74965 148.21 2.7417C148.207 2.70401 148.199 2.6731 148.184 2.64897C148.181 2.61128 148.179 2.57987 148.177 2.55474C148.202 2.55276 148.234 2.55655 148.272 2.56614C148.324 2.57473 148.362 2.58431 148.388 2.59489C148.427 2.60447 148.459 2.60199 148.483 2.58744C148.506 2.56033 148.509 2.51586 148.491 2.45404C148.663 2.70595 148.875 2.91041 149.127 3.06743C149.379 3.21188 149.654 3.33551 149.953 3.4383C149.975 3.55037 149.981 3.63204 149.973 3.68328C149.976 3.73354 149.974 3.78429 149.966 3.83553C149.956 3.87422 149.954 3.92496 149.959 3.98778C149.963 4.03803 149.981 4.11242 150.014 4.21094C149.84 4.56604 149.628 4.84825 149.38 5.05756C149.143 5.26587 148.884 5.4317 148.603 5.55505C148.322 5.6784 148.021 5.77811 147.698 5.85419C147.388 5.92927 147.066 6.01163 146.731 6.10126C146.409 6.17734 146.082 6.27904 145.75 6.40636C145.419 6.53369 145.098 6.71076 144.787 6.9376C144.684 6.90786 144.589 6.90274 144.502 6.92226C144.426 6.92822 144.346 6.94723 144.26 6.97931C144.174 7.01139 144.075 7.04446 143.964 7.07853C143.866 7.1116 143.74 7.12153 143.587 7.10833C143.494 7.20421 143.379 7.27647 143.244 7.32508C143.122 7.3727 142.993 7.42082 142.857 7.46944C142.931 7.60267 142.967 7.73888 142.966 7.87807C142.976 8.01627 143.005 8.13413 143.05 8.23165C143.582 8.24019 144.166 8.19401 144.803 8.09311C145.439 7.97964 146.063 7.88601 146.677 7.81222C146.695 7.87404 146.692 7.91851 146.669 7.94562C146.645 7.97273 146.636 8.0177 146.641 8.08052C146.76 8.14696 146.875 8.23274 146.984 8.33787C147.094 8.44299 147.203 8.54812 147.312 8.65324C147.433 8.74481 147.553 8.82381 147.672 8.89026C147.791 8.94413 147.924 8.95883 148.074 8.93435C148.147 9.05502 148.201 9.18346 148.237 9.31967C148.273 9.45588 148.266 9.60185 148.215 9.75757C147.977 9.94076 147.745 10.1297 147.52 10.3245C147.295 10.5067 147.055 10.6773 146.802 10.8364C146.562 10.9944 146.295 11.1293 146 11.2411C145.705 11.3529 145.382 11.4164 145.029 11.4317C144.966 11.4366 144.91 11.4411 144.859 11.4451C144.822 11.448 144.769 11.4269 144.703 11.3816C144.582 11.4544 144.414 11.4929 144.2 11.4972C143.997 11.488 143.829 11.5202 143.695 11.594C143.515 11.5451 143.305 11.53 143.066 11.5489C142.84 11.5668 142.636 11.5513 142.456 11.5024C142.255 11.8469 142.069 12.2093 141.897 12.5895C141.724 12.9571 141.578 13.348 141.459 13.7619C141.98 13.7966 142.409 13.7942 142.747 13.7548C143.086 13.7154 143.404 13.665 143.703 13.6035C144.001 13.5419 144.306 13.4799 144.617 13.4174C144.941 13.3539 145.335 13.31 145.801 13.2858C146.103 13.1103 146.454 12.9814 146.852 12.8994C147.261 12.8038 147.637 12.6856 147.98 12.5447C148.109 12.5725 148.222 12.6394 148.319 12.7455C148.414 12.8391 148.505 12.9394 148.589 13.0465C148.685 13.1401 148.78 13.2211 148.874 13.2895C148.967 13.3579 149.083 13.3741 149.219 13.3381C149.287 13.3959 149.33 13.4683 149.35 13.5553C149.382 13.6412 149.407 13.7214 149.426 13.7958C149.457 13.8692 149.493 13.9295 149.535 13.9768C149.575 14.0115 149.645 14.0186 149.745 13.9981C149.545 14.5069 149.305 14.9052 149.024 15.1928C148.756 15.4795 148.439 15.7131 148.074 15.8937C147.721 16.0607 147.315 16.2002 146.856 16.3124C146.409 16.4109 145.906 16.5328 145.349 16.678C145.213 16.7141 145.093 16.7235 144.991 16.7063C144.9 16.6756 144.804 16.6642 144.704 16.6722C144.357 16.7628 143.941 16.8589 143.456 16.9604C142.984 17.061 142.502 17.1243 142.011 17.1505C141.52 17.1767 141.044 17.1511 140.583 17.0738C140.121 16.9965 139.729 16.8253 139.404 16.5601Z" fill="#00408F"/>
<path d="M151.385 14.627C151.323 14.6445 151.263 14.605 151.205 14.5085C151.145 14.3994 151.08 14.2971 151.01 14.2015L151.217 14.1851C151.107 13.9157 151.062 13.6664 151.082 13.4373C151.113 13.1946 151.152 12.964 151.198 12.7455C151.243 12.5143 151.276 12.2968 151.298 12.0928C151.331 11.8753 151.295 11.6569 151.189 11.4377C151.255 11.4704 151.298 11.4544 151.318 11.3896C151.35 11.3112 151.368 11.2213 151.373 11.1198C151.389 11.0047 151.386 10.8912 151.365 10.7791C151.355 10.6535 151.341 10.5534 151.322 10.4791C151.455 10.0767 151.549 9.66472 151.604 9.24318C151.671 8.82064 151.727 8.40538 151.771 7.99739C151.813 7.57684 151.864 7.17464 151.922 6.79079C151.992 6.39338 152.088 6.01911 152.212 5.66798C152.386 5.62895 152.57 5.63968 152.765 5.70016C152.971 5.74709 153.109 5.81832 153.18 5.91386C153.546 5.58155 153.862 5.1899 154.13 4.73891C154.398 4.28792 154.666 3.84949 154.936 3.42363C155.217 2.98421 155.54 2.59206 155.905 2.24719C156.27 1.90232 156.739 1.67563 157.311 1.56713C157.63 1.75687 157.987 1.96247 158.384 2.18394C158.78 2.39285 159.112 2.67004 159.379 3.01551C159.485 3.07038 159.584 3.13203 159.678 3.20046C159.784 3.25533 159.889 3.3102 159.995 3.36507L160.017 3.64775C160.206 3.79717 160.366 3.98048 160.497 4.19768C160.639 4.40132 160.764 4.62531 160.872 4.86962C160.991 5.10038 161.105 5.33792 161.213 5.58223C161.321 5.82655 161.44 6.05102 161.57 6.25566C161.55 6.33303 161.543 6.40312 161.548 6.46594C161.565 6.5152 161.582 6.57074 161.599 6.63256C161.628 6.68083 161.652 6.74216 161.671 6.81654C161.688 6.87837 161.701 6.95953 161.709 7.06004C161.711 7.72987 161.534 8.28748 161.177 8.73285C160.832 9.16468 160.394 9.53435 159.862 9.84188C159.342 10.1359 158.781 10.4014 158.18 10.6385C157.579 10.8631 157.035 11.102 156.549 11.3553C156.553 11.4056 156.58 11.4287 156.631 11.4247C156.693 11.4198 156.715 11.456 156.696 11.5333C157.091 11.7297 157.394 11.889 157.606 12.0113C157.831 12.1326 158.035 12.2366 158.219 12.3232C158.414 12.3962 158.621 12.4557 158.84 12.5016C159.071 12.5466 159.384 12.5976 159.781 12.6548C160.177 12.7119 160.485 12.7635 160.703 12.8094C160.933 12.8418 161.138 12.8699 161.317 12.8937C161.495 12.9049 161.685 12.9151 161.888 12.9244C162.091 12.9336 162.364 12.9436 162.706 12.9545C162.855 13.0818 162.981 13.2362 163.084 13.4177C163.187 13.5992 163.264 13.7827 163.317 13.9681C163.37 14.1536 163.39 14.3353 163.379 14.5131C163.379 14.6775 163.34 14.8133 163.26 14.9208C163.276 14.9701 163.309 14.9927 163.36 14.9887C163.422 14.9712 163.484 14.9662 163.548 14.9738C163.465 15.0436 163.396 15.125 163.34 15.2179C163.284 15.3108 163.228 15.4037 163.172 15.4966C163.116 15.5895 163.048 15.6771 162.966 15.7594C162.896 15.8408 162.799 15.8927 162.674 15.9152C162.236 16.1268 161.659 16.1788 160.942 16.0711C160.226 15.9634 159.305 15.7455 158.179 15.4173C157.623 15.259 157.169 15.1116 156.816 14.975C156.464 14.8385 156.157 14.7048 155.894 14.5739C155.629 14.4305 155.383 14.2792 155.156 14.1202C154.928 13.9487 154.665 13.7482 154.369 13.5188C154.332 13.5343 154.309 13.5614 154.299 13.6001C154.302 13.6378 154.286 13.6644 154.249 13.68C154.226 14.1875 154.158 14.6037 154.044 14.9287C153.943 15.2527 153.78 15.588 153.555 15.9345C153.351 15.9127 153.214 15.9425 153.145 16.0238C153.088 16.1042 153.012 16.1797 152.916 16.2505C152.792 16.2855 152.698 16.2867 152.632 16.254C152.567 16.2338 152.508 16.2069 152.455 16.1732C152.402 16.1394 152.342 16.1062 152.276 16.0735C152.211 16.0408 152.109 16.0362 151.972 16.0596C151.925 15.9496 151.879 15.8458 151.833 15.7482C151.787 15.6381 151.682 15.5958 151.52 15.6213C151.549 15.5052 151.554 15.41 151.535 15.3356C151.516 15.2487 151.491 15.1748 151.461 15.114C151.43 15.0406 151.399 14.9672 151.368 14.8938C151.349 14.8194 151.355 14.7305 151.385 14.627ZM156.998 5.51721C156.854 5.76883 156.689 6.00309 156.504 6.21999C156.317 6.42433 156.132 6.64124 155.948 6.87071C155.776 7.08662 155.624 7.32617 155.493 7.58935C155.361 7.83997 155.277 8.13737 155.241 8.48155C155.764 8.37702 156.305 8.18884 156.865 7.91701C157.424 7.63262 157.953 7.36328 158.451 7.10898C158.352 6.6491 158.159 6.2914 157.873 6.03586C157.587 5.76776 157.295 5.59488 156.998 5.51721Z" fill="#00408F"/>
<path d="M183.413 46.0299C181.431 45.2156 179.568 44.4501 177.679 43.7513C177.587 43.7167 177.492 43.6788 177.395 43.6392C177.332 43.6136 177.269 43.5873 177.204 43.5607C176.119 43.1111 174.837 42.5798 174.156 44.0413C173.453 45.5627 174.746 46.1483 175.817 46.6333C175.96 46.6982 176.099 46.7613 176.229 46.8246C180.056 48.7091 183.927 50.4922 187.812 52.2753C188.928 52.7827 190.044 53.0726 191.175 52.0289C192.378 50.9271 192.031 49.7674 191.596 48.5642C189.914 43.9108 187.508 39.6633 184.217 35.9521C183.883 35.5752 183.246 35.0968 182.637 35.3578C182.129 35.7492 182.39 36.5755 182.608 37.0394C183.06 38.0497 183.597 39.0295 184.223 40.1729C184.459 40.6045 184.709 41.0593 184.971 41.5478C177.056 36.4015 168.705 33.6907 160.022 31.9511C151.788 30.2985 143.496 29.3127 135.088 30.3275C134.465 30.3999 133.812 30.5014 133.247 30.7044C133.21 30.7179 133.175 30.7308 133.14 30.7435C132.398 31.0155 132.152 31.1053 132 31.9366C132 32.6469 132.942 33.0093 133.493 33.1108C134.646 33.3049 135.836 33.3641 137.018 33.423C137.337 33.4389 137.656 33.4548 137.973 33.4732C150.106 34.1836 162.066 35.9087 173.562 40.1127C177.795 41.6638 181.955 43.3889 185.449 46.3752C185.638 46.5637 185.826 46.7521 186.319 47.216C185.314 46.8112 184.35 46.4149 183.413 46.0299Z" fill="#00408F"/>
</svg>
