<svg width="141" height="61" viewBox="0 0 141 61" fill="none" xmlns="http://www.w3.org/2000/svg">
<path d="M4.37143 16.1422C3.89539 16.2176 3.46088 16.2053 3.06789 16.1053C2.67491 16.0052 2.31861 15.8447 1.99899 15.6236C1.69023 15.4023 1.41851 15.1368 1.18383 14.827C0.959994 14.5171 0.773671 14.1845 0.624857 13.8295C0.511228 13.0938 0.523912 12.4258 0.66291 11.8257C0.801673 11.2148 1.01202 10.6511 1.29397 10.1348C1.57591 9.61845 1.89653 9.13384 2.25584 8.68096C2.626 8.22785 2.98023 7.79137 3.31854 7.37151C3.3952 7.40242 3.45488 7.40113 3.49758 7.36763C3.55113 7.33391 3.5936 7.28956 3.62498 7.2346C3.66721 7.17941 3.70944 7.12421 3.75167 7.06902C3.80475 7.01359 3.86361 6.97432 3.92824 6.95121C3.96953 6.85261 4.02203 6.77005 4.08573 6.70354C4.16027 6.63679 4.23494 6.57546 4.30972 6.51956C4.39512 6.45258 4.46967 6.38583 4.53337 6.31931C4.60792 6.25256 4.67126 6.16977 4.7234 6.07093C4.83144 6.04688 4.92286 6.00691 4.99764 5.95101C5.08327 5.89487 5.15794 5.83355 5.22164 5.76703C5.29619 5.70028 5.37085 5.63896 5.44563 5.58306C5.52042 5.52716 5.61171 5.48176 5.71952 5.44686L5.71494 5.23526C5.95131 5.12158 6.12235 4.99847 6.22804 4.8659C6.33373 4.73334 6.46031 4.56233 6.60776 4.35287C6.72688 4.33944 6.819 4.33202 6.88411 4.33061C6.96007 4.32897 7.07377 4.31565 7.22521 4.29066C7.31888 4.10408 7.40818 3.96644 7.49311 3.87775C7.57804 3.78907 7.70071 3.68871 7.86113 3.57667C8.02577 3.65996 8.20056 3.71046 8.3855 3.72817C8.57021 3.73502 8.74016 3.81277 8.89536 3.96139C8.90903 4.09137 8.94924 4.19364 9.01599 4.26818C9.08251 4.33188 9.15445 4.39546 9.23182 4.45892C9.30895 4.51153 9.3862 4.56957 9.46356 4.63303C9.54093 4.6965 9.59176 4.78767 9.61604 4.90657C9.6703 4.90539 9.70261 4.89384 9.713 4.8719C9.73423 4.84973 9.77209 4.84348 9.82658 4.85316C9.85016 4.93949 9.87339 5.00956 9.89627 5.06334C9.91914 5.11713 9.9419 5.16549 9.96454 5.20842C9.99803 5.25112 10.0262 5.29937 10.0491 5.35315C10.0828 5.4067 10.1114 5.47122 10.1347 5.54671C10.0833 5.6781 10.0375 5.82022 9.99738 5.97307C9.95703 6.11507 9.87233 6.21461 9.74329 6.27169C9.74517 6.3585 9.77878 6.40662 9.84412 6.41606C9.90923 6.41465 9.94803 6.45181 9.96052 6.52753C9.97349 6.62496 9.95897 6.70669 9.91698 6.77274C10.2318 7.27616 10.5202 7.8073 10.782 8.36616C11.0435 8.91416 11.3371 9.43976 11.6629 9.94294C11.6445 10.0953 11.6532 10.2471 11.689 10.3983C11.7355 10.5385 11.7873 10.6785 11.8447 10.8184C11.9128 10.958 11.9756 11.0978 12.0329 11.2377C12.0902 11.3776 12.1312 11.5178 12.156 11.6584C12.1816 11.8424 12.186 12.0431 12.169 12.2606C12.1517 12.4673 12.1127 12.669 12.0518 12.8657C11.9909 13.0624 11.9081 13.2488 11.8034 13.4247C11.6984 13.5898 11.5763 13.7173 11.4371 13.8072C11.2682 14.028 11.055 14.2117 10.7977 14.3584C10.5401 14.4943 10.3047 14.6568 10.0917 14.8459C9.94167 14.936 9.78032 15.0047 9.60764 15.0518C9.43473 15.0881 9.25651 15.13 9.07298 15.1774C8.93379 15.2672 8.76748 15.3577 8.57404 15.4487C8.38036 15.5289 8.18114 15.6038 7.97638 15.6734C7.77162 15.7429 7.56663 15.8016 7.3614 15.8495C7.15593 15.8865 6.97158 15.8959 6.80834 15.8778C6.42076 16.0273 6.04308 16.1332 5.67532 16.1954C5.30756 16.2576 4.87293 16.2399 4.37143 16.1422ZM4.4548 10.2129C4.35169 10.4649 4.22641 10.6956 4.07895 10.905C3.94212 11.1034 3.8054 11.3072 3.6688 11.5164C3.5322 11.7256 3.41222 11.9508 3.30888 12.1919C3.21615 12.4218 3.16777 12.6943 3.16373 13.0092C3.38474 13.189 3.64221 13.2974 3.93613 13.3345C4.24066 13.3604 4.55003 13.3592 4.86424 13.3307C5.17822 13.2913 5.49196 13.2411 5.80547 13.18C6.11898 13.1189 6.40052 13.0857 6.65009 13.0803C6.64798 12.9826 6.69033 12.9329 6.77713 12.931C7.23194 12.8777 7.65243 12.7438 8.03861 12.5292C8.42455 12.3037 8.82677 12.0779 9.24526 11.8517C9.2967 11.7203 9.36476 11.6048 9.44946 11.5053C9.53415 11.4057 9.57993 11.2636 9.58679 11.0789C9.53042 10.9824 9.49068 10.9019 9.46757 10.8372C9.45531 10.7724 9.44777 10.6748 9.44495 10.5446C9.15437 10.1601 8.90106 9.74217 8.68503 9.29089C8.46876 8.82876 8.22052 8.39445 7.94032 7.98798C7.91979 8.04271 7.87756 8.0979 7.81363 8.15357C7.7497 8.20923 7.67893 8.19991 7.60133 8.1256C7.57112 8.23481 7.52394 8.31183 7.45977 8.35664C7.39537 8.3906 7.31976 8.40852 7.23296 8.4104C7.157 8.41204 7.07526 8.39753 6.98775 8.36686C6.91109 8.33595 6.83962 8.29407 6.77334 8.24122C6.40012 8.55327 6.02668 8.85447 5.653 9.14482C5.29017 9.43493 4.96095 9.77317 4.66534 10.1595C4.61179 10.1933 4.57947 10.2048 4.56838 10.1942C4.5573 10.1836 4.51943 10.1898 4.4548 10.2129Z" fill="#00408F"/>
<path d="M14.1055 7.8057C14.0807 7.6651 14.0517 7.57888 14.0185 7.54703C14.0902 7.35007 14.1403 7.159 14.1689 6.97383C14.2081 6.77757 14.2366 6.5924 14.2546 6.41831C14.273 6.26593 14.2917 6.12439 14.3105 5.99371C14.3403 5.86279 14.3756 5.73718 14.4164 5.61688C14.5999 5.56949 14.7339 5.49059 14.8184 5.3802C14.9134 5.25873 14.9872 5.154 15.0395 5.06601C15.2346 5.05094 15.36 5.07536 15.4157 5.1393C15.4822 5.20299 15.5551 5.30998 15.6343 5.46025C15.6911 5.57843 15.7699 5.707 15.8706 5.84595C15.9711 5.97405 16.1198 6.07397 16.3168 6.1457C16.3519 6.26435 16.3924 6.37747 16.4381 6.48504C16.4839 6.59261 16.5352 6.70549 16.592 6.82368C16.6946 7.04944 16.792 7.28617 16.8842 7.53386C16.9762 7.77071 17.03 7.99752 17.0455 8.21431C16.9207 8.4667 16.8238 8.75648 16.7549 9.08366C16.6969 9.4106 16.6606 9.7425 16.6462 10.0794C16.6424 10.4051 16.66 10.7196 16.6992 11.0227C16.7383 11.3258 16.7981 11.5796 16.8785 11.7842L16.9818 12.0425L17.3392 12.0022C17.7277 11.8961 18.078 11.7799 18.3901 11.6537C18.702 11.5167 18.9917 11.3585 19.2592 11.179C19.5267 10.9995 19.7829 10.7985 20.0278 10.5761C20.2724 10.3428 20.5271 10.0713 20.7918 9.76165C21.0456 9.45218 21.2715 9.10532 21.4695 8.72107C21.6672 8.32597 21.8267 7.92084 21.948 7.50568C22.0801 7.09029 22.1797 6.6756 22.2468 6.26162C22.3138 5.84763 22.3543 5.46136 22.3682 5.10281C22.5723 5.00069 22.6828 4.84088 22.6998 4.62339L22.6464 4.41285C22.6127 4.3593 22.5954 4.31082 22.5944 4.26742C22.6041 4.21293 22.6193 4.16374 22.6401 4.11987C22.7215 3.86842 22.902 3.67996 23.1815 3.55449C23.3796 3.68047 23.5617 3.81766 23.7278 3.96605C23.9047 4.11421 24.0653 4.26272 24.2097 4.41158C24.2377 4.70409 24.2866 4.95815 24.3564 5.17377C24.426 5.37853 24.5009 5.57775 24.5811 5.77142C24.661 5.95424 24.73 6.13188 24.788 6.30432C24.8569 6.47653 24.9049 6.68719 24.932 6.93629C24.8305 7.26417 24.7558 7.57519 24.7079 7.86934C24.6706 8.15241 24.6337 8.45175 24.5971 8.76737L24.5684 8.94712C24.3803 9.28773 24.1925 9.63919 24.005 10.0015C23.828 10.3527 23.6827 10.6598 23.569 10.9229C23.5053 10.9894 23.4472 11.0666 23.3948 11.1546C23.3533 11.2424 23.3118 11.3301 23.2703 11.4179C23.2493 11.4509 23.2179 11.5058 23.1761 11.5827C23.1452 11.6594 23.1138 11.7144 23.082 11.7476L22.6882 11.6096L22.6015 12.1163L22.3424 12.187L22.152 12.4191C21.9119 12.8585 21.6539 13.2278 21.3781 13.5269C21.1132 13.8257 20.8095 14.0929 20.4672 14.3283C20.1358 14.5634 19.7553 14.7888 19.3257 15.0043C18.9067 15.2088 18.423 15.431 17.8745 15.6708C17.6568 15.643 17.4666 15.6308 17.3038 15.6343C17.1516 15.6268 16.9995 15.6192 16.8473 15.6116C16.6954 15.6149 16.5488 15.6127 16.4075 15.6049C16.2662 15.5971 16.1031 15.5843 15.9182 15.5666C15.8727 15.4699 15.8114 15.4007 15.7345 15.3589C15.6577 15.3171 15.5867 15.297 15.5215 15.2984C15.3022 15.1945 15.1361 15.0462 15.0234 14.8532C14.9106 14.6602 14.792 14.4457 14.6675 14.2095C14.6104 14.0805 14.5479 13.9516 14.48 13.8228C14.4229 13.6937 14.3497 13.5705 14.2603 13.453L14.5837 13.3483L14.1499 12.8691C14.1167 12.8373 14.078 12.8056 14.0339 12.7739C14.0006 12.7421 13.9673 12.7048 13.9338 12.6621L13.9271 12.3529C13.8644 11.464 13.825 10.6452 13.8088 9.8965C13.8032 9.13669 13.8918 8.46712 14.0747 7.88778L14.1055 7.8057Z" fill="#00408F"/>
<path d="M25.7057 14.2149C25.6517 14.2269 25.602 14.19 25.5567 14.1041C25.5112 14.0074 25.4604 13.9162 25.4043 13.8306L25.5833 13.8267C25.5022 13.5896 25.4758 13.3731 25.5041 13.1771C25.5431 12.9699 25.5877 12.7736 25.6379 12.5879C25.6879 12.3914 25.7274 12.206 25.7562 12.0317C25.7956 11.8463 25.7752 11.6568 25.695 11.4631C25.75 11.4945 25.7877 11.4828 25.8082 11.4281C25.8394 11.3622 25.8594 11.2858 25.8684 11.1988C25.888 11.1006 25.8913 11.0029 25.8783 10.9054C25.876 10.7969 25.8687 10.7102 25.8564 10.6454C25.9902 10.3059 26.0912 9.95635 26.1594 9.59662C26.2385 9.23666 26.3068 8.88235 26.3644 8.53371C26.4217 8.17422 26.4849 7.83088 26.5538 7.50371C26.6333 7.16544 26.735 6.84841 26.8589 6.55262C27.0103 6.52763 27.1681 6.54592 27.3323 6.60751C27.5071 6.65801 27.6226 6.72607 27.6787 6.8117C28.0095 6.544 28.301 6.22286 28.5535 5.84829C28.8059 5.47371 29.0586 5.10999 29.3115 4.75712C29.575 4.39316 29.8721 4.07191 30.2026 3.79335C30.5331 3.51479 30.9473 3.34298 31.4453 3.27793C31.7097 3.45676 32.007 3.65116 32.3373 3.86114C32.6673 4.06026 32.9388 4.31493 33.1517 4.62515C33.2397 4.67753 33.3224 4.73545 33.3998 4.79891C33.4877 4.85129 33.5757 4.90366 33.6637 4.95604L33.669 5.20019C33.824 5.33797 33.9524 5.50346 34.0543 5.69666C34.1668 5.87878 34.2634 6.07753 34.344 6.29291C34.4353 6.4972 34.5212 6.70703 34.6019 6.92241C34.6826 7.13779 34.7737 7.33665 34.8754 7.51901C34.8551 7.58459 34.8455 7.6445 34.8467 7.69876C34.8585 7.74193 34.8704 7.79052 34.8824 7.84454C34.905 7.88748 34.9225 7.94138 34.9348 8.00625C34.9468 8.06027 34.9537 8.13069 34.9556 8.21749C34.9247 8.79354 34.7449 9.26425 34.4162 9.62961C34.0982 9.98389 33.7029 10.2801 33.2304 10.5183C32.7685 10.7455 32.2735 10.9462 31.7453 11.1204C31.2169 11.2839 30.7377 11.4625 30.3076 11.6564C30.3086 11.6998 30.3307 11.721 30.3741 11.7201C30.4284 11.7189 30.4454 11.7511 30.4251 11.8167C30.7548 12.0049 31.0078 12.1569 31.184 12.2725C31.3711 12.3878 31.5415 12.4873 31.6953 12.5708C31.8597 12.6432 32.0347 12.7046 32.2204 12.7549C32.4169 12.8049 32.6841 12.8642 33.0221 12.9329C33.3602 13.0016 33.622 13.0611 33.8076 13.1113C34.0039 13.1505 34.1783 13.1847 34.331 13.214C34.4833 13.2324 34.6466 13.2506 34.8207 13.2685C34.9948 13.2865 35.2286 13.3085 35.5223 13.3348C35.6443 13.4515 35.745 13.5905 35.8245 13.7516C35.9039 13.9127 35.9617 14.0743 35.9978 14.2364C36.0339 14.3984 36.0427 14.5557 36.0243 14.7081C36.0165 14.8494 35.9756 14.9642 35.9015 15.0527C35.9133 15.0959 35.9409 15.117 35.9843 15.116C36.0383 15.104 36.0925 15.1028 36.147 15.1125C36.0722 15.1684 36.0086 15.2349 35.9559 15.3121C35.9033 15.3892 35.8507 15.4663 35.7981 15.5434C35.7455 15.6206 35.6819 15.6925 35.6074 15.7593C35.5437 15.8258 35.4577 15.8656 35.3494 15.8788C34.9621 16.0392 34.463 16.0554 33.8523 15.9275C33.2416 15.7996 32.4603 15.5668 31.5086 15.2292C31.0382 15.0657 30.655 14.9165 30.359 14.7818C30.0629 14.6471 29.805 14.517 29.5852 14.3915C29.3651 14.2551 29.1612 14.113 28.9734 13.965C28.7854 13.8063 28.5697 13.6209 28.3263 13.4091C28.294 13.4206 28.2728 13.4428 28.2626 13.4756C28.2633 13.5082 28.2475 13.5302 28.2152 13.5418C28.1703 13.977 28.0912 14.3315 27.9777 14.6054C27.875 14.879 27.7182 15.1592 27.5073 15.4461C27.333 15.4173 27.214 15.4361 27.1503 15.5026C27.0975 15.5689 27.0282 15.6301 26.9426 15.6863C26.8345 15.7103 26.753 15.7066 26.6981 15.6753C26.6434 15.6547 26.5939 15.6287 26.5498 15.5971C26.5057 15.5654 26.4562 15.5339 26.4012 15.5026C26.3463 15.4712 26.2592 15.4622 26.1401 15.4756C26.1054 15.3787 26.0709 15.2872 26.0364 15.2011C26.0018 15.1041 25.914 15.0626 25.7732 15.0765C25.8036 14.9781 25.8127 14.8965 25.8005 14.8316C25.788 14.7559 25.7703 14.6912 25.7474 14.6374C25.7243 14.5727 25.7012 14.5081 25.6781 14.4435C25.6658 14.3786 25.675 14.3024 25.7057 14.2149ZM30.9811 6.65881C30.8445 6.86803 30.6913 7.06133 30.5214 7.23871C30.3513 7.40523 30.1814 7.5826 30.0118 7.77083C29.8528 7.94797 29.7106 8.14646 29.585 8.3663C29.4593 8.57529 29.3725 8.82686 29.3245 9.12101C29.7791 9.05689 30.2539 8.92177 30.7488 8.71565C31.2435 8.49868 31.7113 8.29314 32.1522 8.09904C32.0892 7.69873 31.9412 7.38167 31.7082 7.14788C31.4749 6.90324 31.2325 6.74022 30.9811 6.65881Z" fill="#00408F"/>
<path d="M43.6718 15.4219C43.5178 15.3275 43.3957 15.2053 43.3056 15.0553C43.2047 14.9055 43.1252 14.7444 43.0672 14.5719C42.9983 14.3997 42.9456 14.2217 42.9091 14.0379C42.8615 13.8436 42.8141 13.66 42.7669 13.4874C42.7636 13.3355 42.7938 13.2262 42.8575 13.1597C42.921 13.0824 42.99 13.0103 43.0645 12.9435C43.3247 12.9271 43.5575 12.9003 43.763 12.8633C43.9685 12.8263 44.1685 12.7894 44.3631 12.7526C44.5577 12.7158 44.7525 12.6845 44.9473 12.6585C45.1419 12.6217 45.3532 12.6009 45.5811 12.596C45.7365 12.2561 45.8815 11.9327 46.016 11.6258C46.1503 11.308 46.2795 11.0067 46.4036 10.7218C46.4628 10.4491 46.5388 10.1977 46.6315 9.96775C46.7349 9.72668 46.8331 9.502 46.9263 9.29371C47.0193 9.07458 47.1015 8.8611 47.173 8.65329C47.2443 8.43462 47.2882 8.20569 47.3047 7.9665C47.4267 7.5839 47.5331 7.2342 47.624 6.9174C47.7254 6.58952 47.7985 6.20255 47.8431 5.75648C47.4322 5.83051 47.1026 5.90278 46.8545 5.97329C46.6061 6.03294 46.4282 6.09107 46.3208 6.14768C46.1036 6.14152 45.929 6.10188 45.7972 6.02874C45.6762 5.95536 45.5765 5.86524 45.4982 5.75838C45.4199 5.65151 45.3521 5.52813 45.2948 5.38824C45.2375 5.24835 45.1692 5.10327 45.09 4.953C45.1312 4.8544 45.139 4.7131 45.1134 4.5291C45.0874 4.33426 45.0193 4.1946 44.9089 4.11014C44.9952 4.08656 45.0588 4.01462 45.0996 3.89432C45.1402 3.76317 45.1435 3.66539 45.1095 3.60099C45.2928 3.54274 45.4875 3.50596 45.6934 3.49064C45.8991 3.46448 46.0995 3.44386 46.2946 3.42878C46.5003 3.40262 46.6951 3.37669 46.8791 3.35099C47.0629 3.31445 47.2189 3.25136 47.3473 3.16173C47.911 3.12782 48.4965 3.09343 49.1037 3.05858C49.7218 3.02349 50.2909 2.98403 50.811 2.94021C51.0077 3.00109 51.2309 3.02883 51.4805 3.02342C51.7409 3.01779 51.9962 3.02854 52.2465 3.0557C52.5077 3.08261 52.7371 3.14821 52.9347 3.2525C53.1432 3.35654 53.2884 3.54339 53.3702 3.81302C53.5335 3.8312 53.6538 3.87202 53.7311 3.93548C53.8194 3.99871 53.8754 4.07892 53.8992 4.17611C53.9228 4.26245 53.9304 4.36541 53.9222 4.48501C53.9245 4.59352 53.9269 4.70203 53.9292 4.81054C53.7584 4.94451 53.5383 5.05784 53.2689 5.15052C53.0101 5.23211 52.724 5.30344 52.4105 5.36451C52.0967 5.41472 51.7665 5.45444 51.4197 5.48366C51.0836 5.50179 50.7529 5.5198 50.4276 5.5377C50.3811 5.89696 50.2926 6.32226 50.1621 6.81362C50.0422 7.29388 49.9168 7.76884 49.7858 8.23849C49.6546 8.69729 49.5387 9.11233 49.4382 9.48361C49.3483 9.84381 49.3099 10.078 49.3231 10.1863C49.22 10.4382 49.1324 10.6518 49.0602 10.8271C48.9988 11.0021 48.9372 11.1663 48.8754 11.3196C48.8245 11.4727 48.7681 11.6259 48.7062 11.7792C48.655 11.9215 48.588 12.0858 48.5052 12.2721L49.612 12.2482C49.6363 12.3671 49.6869 12.4474 49.7638 12.4891C49.8407 12.5309 49.9229 12.5671 50.0104 12.5978C50.0979 12.6285 50.1748 12.6702 50.2411 12.7231C50.318 12.7648 50.3576 12.84 50.36 12.9485C50.5673 12.9983 50.6993 13.0768 50.7559 13.1842C50.8125 13.2915 50.8259 13.4106 50.7962 13.5416C50.7771 13.6614 50.7255 13.7874 50.6415 13.9194C50.5684 14.0513 50.4949 14.1669 50.4211 14.2662C50.3229 14.2466 50.2313 14.2757 50.1461 14.3536C50.0607 14.4205 49.981 14.4983 49.9069 14.5867C49.5913 14.5501 49.2819 14.5514 48.9788 14.5905C48.6757 14.6296 48.3941 14.6629 48.1342 14.6902C48.0801 14.7022 48.0591 14.7353 48.0712 14.7893C48.083 14.8325 48.0728 14.8652 48.0407 14.8877C47.702 14.7864 47.3538 14.7505 46.9962 14.78C46.6494 14.8092 46.2925 14.8712 45.9255 14.966C45.569 15.0497 45.2019 15.1391 44.824 15.2341C44.4463 15.34 44.0622 15.4026 43.6718 15.4219Z" fill="#00408F"/>
<path d="M55.4813 13.4402C55.3746 13.5293 55.312 13.6447 55.2933 13.7862C55.2744 13.9169 55.2501 14.0477 55.2204 14.1786C55.1907 14.3095 55.1335 14.4247 55.0488 14.5243C54.9747 14.6127 54.8344 14.6538 54.628 14.6474C54.5858 14.7026 54.5757 14.7354 54.5976 14.7457C54.6304 14.7559 54.6586 14.8041 54.6821 14.8905C54.5298 14.8721 54.4215 14.8853 54.3573 14.9301C54.2932 14.9749 54.2125 15.0092 54.1153 15.033C53.8641 14.9625 53.6495 14.8314 53.4717 14.6398C53.3045 14.4372 53.1532 14.2179 53.0178 13.982C52.8933 13.7459 52.7795 13.5041 52.6764 13.2566C52.5842 13.0089 52.4873 12.7939 52.3856 12.6115C52.3847 12.5681 52.406 12.5514 52.4497 12.5613C52.4822 12.5606 52.5148 12.5599 52.5473 12.5592C52.4907 12.4518 52.4501 12.3333 52.4256 12.2036C52.39 12.0632 52.3333 11.9504 52.2555 11.8653C52.5556 11.1857 52.8768 10.4785 53.2192 9.74375C53.5613 8.99813 53.9033 8.24708 54.2452 7.4906C54.5977 6.72304 54.9447 5.9556 55.2864 5.18827C55.6386 4.40986 55.975 3.64808 56.2954 2.90293C56.6016 3.00486 56.8974 3.12873 57.1828 3.27454C57.4788 3.40927 57.7483 3.5717 57.9913 3.76186C58.2342 3.95201 58.4399 4.17554 58.6083 4.43244C58.7873 4.67826 58.9075 4.96334 58.9688 5.2877C58.9485 5.35328 58.9218 5.37557 58.8888 5.35457C58.8558 5.33357 58.8289 5.34501 58.8081 5.38888C58.8638 5.45282 58.892 5.50106 58.8927 5.53361C58.904 5.55508 58.9046 5.58221 58.8944 5.615C58.884 5.63693 58.8793 5.6696 58.8803 5.71301C58.8812 5.75641 58.9096 5.81551 58.9655 5.89029C58.911 5.88061 58.8733 5.89229 58.8523 5.92531C58.8311 5.94748 58.7931 5.9483 58.7384 5.92777C58.7959 6.07851 58.8148 6.19752 58.7949 6.2848C58.7751 6.37208 58.7443 6.45417 58.7026 6.53106C58.6606 6.59711 58.6242 6.67389 58.5936 6.7614C58.5735 6.83783 58.5867 6.94611 58.6332 7.08623C58.5897 7.08717 58.5574 7.09873 58.5362 7.1209C58.5256 7.13198 58.5151 7.1485 58.5047 7.17043C58.4943 7.19237 58.4785 7.21442 58.4573 7.2366C58.4467 7.24768 58.4195 7.24827 58.3759 7.23836C58.4146 7.51978 58.4316 7.8071 58.4271 8.10031C58.4224 8.38268 58.4179 8.67589 58.4136 8.97995C58.4091 9.27317 58.4157 9.577 58.4333 9.89144C58.451 10.2059 58.5014 10.5305 58.5847 10.8652C59.0454 10.5838 59.4121 10.2231 59.6849 9.78293C59.9684 9.34255 60.1859 8.85475 60.3371 8.31952C60.4992 7.78406 60.6171 7.21156 60.6908 6.60202C60.7753 5.99225 60.8595 5.37162 60.9436 4.74015C61.0604 4.6182 61.1494 4.46972 61.2108 4.29469C61.283 4.11943 61.3388 3.9391 61.3782 3.75369C61.4285 3.56805 61.4733 3.38252 61.5127 3.19711C61.5627 3.00062 61.6295 2.82548 61.713 2.67168C61.9088 2.68916 62.0729 2.74532 62.2052 2.84016C62.3481 2.92391 62.4806 3.02418 62.6025 3.14096C62.7242 3.24688 62.8513 3.34727 62.9836 3.44211C63.1159 3.53695 63.2801 3.59854 63.4761 3.62686C63.6327 3.84059 63.7784 4.04914 63.913 4.25249C64.0475 4.44499 64.1391 4.66556 64.1879 4.91419C64.1252 5.02411 64.0789 5.14453 64.0492 5.27545C64.0194 5.40637 63.9843 5.5374 63.9437 5.66855C63.914 5.79947 63.8677 5.91989 63.805 6.02981C63.7422 6.13973 63.652 6.23396 63.5342 6.3125C63.5087 6.63874 63.4665 6.94363 63.4075 7.22716C63.3485 7.5107 63.2948 7.78869 63.2464 8.06114C63.198 8.33359 63.1553 8.61678 63.1182 8.9107C63.0812 9.20462 63.0718 9.52507 63.0902 9.87207C62.9993 10.1889 62.8979 10.5168 62.7858 10.8557C62.6735 11.1838 62.5932 11.4895 62.5451 11.7728C62.3424 11.9401 62.184 12.1443 62.0698 12.3856C61.9556 12.627 61.836 12.8684 61.711 13.1099C61.6577 13.1545 61.6253 13.1661 61.614 13.1446C61.6025 13.1123 61.5532 13.0916 61.4661 13.0827C61.4791 13.1801 61.4588 13.2457 61.4052 13.2794C61.3623 13.302 61.3694 13.3779 61.4264 13.5069C61.2439 13.5977 61.0836 13.7152 60.9455 13.8593C60.8075 14.0034 60.653 14.137 60.482 14.2601C60.3218 14.383 60.1282 14.4686 59.9013 14.517C59.685 14.5542 59.3964 14.5116 59.0355 14.3891C58.4953 14.01 58.0081 13.57 57.5739 13.0692C57.1397 12.5683 56.7902 11.9734 56.5256 11.2843C56.4178 11.3192 56.338 11.3915 56.2861 11.5012C56.2342 11.6109 56.1878 11.7259 56.147 11.8462C56.1062 11.9665 56.0651 12.0759 56.0238 12.1745C55.9825 12.2731 55.9185 12.3234 55.8317 12.3253C55.8121 12.4234 55.7707 12.5166 55.7074 12.6048C55.6548 12.6819 55.6023 12.7645 55.55 12.8524C55.4973 12.9296 55.4558 13.0173 55.4254 13.1157C55.4058 13.2138 55.4244 13.322 55.4813 13.4402Z" fill="#00408F"/>
<path d="M64.6143 7.42902C64.6433 7.26555 64.6622 7.13487 64.6709 7.03697C64.6794 6.92823 64.639 6.81511 64.5496 6.69763C64.5892 6.52307 64.6189 6.38673 64.6384 6.2886C64.6689 6.19024 64.6714 6.05448 64.6459 5.88134C64.7375 5.59709 64.8788 5.3552 65.0699 5.15565C65.2718 4.95587 65.4907 4.78829 65.7267 4.65291C65.9623 4.50668 66.2094 4.38734 66.468 4.2949C66.7263 4.1916 66.9687 4.10493 67.1951 4.0349C67.1942 3.99149 67.172 3.97026 67.1286 3.9712C67.0852 3.97214 67.0738 3.94525 67.0943 3.89052C67.6779 3.76933 68.2605 3.5993 68.842 3.38045C69.4343 3.16136 70.038 2.96374 70.653 2.78759C71.268 2.61144 71.9006 2.50004 72.551 2.4534C73.2011 2.3959 73.8865 2.46249 74.6071 2.65316C74.6533 2.78243 74.7157 2.90593 74.7943 3.02365C74.8728 3.14136 74.9514 3.25908 75.0299 3.3768C75.119 3.48343 75.1974 3.5903 75.2648 3.6974C75.3323 3.8045 75.3727 3.91761 75.3862 4.03674C75.519 4.15328 75.6249 4.28127 75.7039 4.42069C75.7935 4.54902 75.8136 4.72771 75.7643 4.95676C75.6468 5.04615 75.5239 5.13566 75.3956 5.22529C75.2673 5.31491 75.1334 5.39923 74.994 5.47824C74.5031 5.36945 74.0138 5.33661 73.5262 5.37973C73.0386 5.42286 72.6 5.47035 72.2103 5.52221C72.0881 5.39458 71.9458 5.33795 71.7832 5.35232C71.6205 5.35584 71.4475 5.38673 71.2642 5.44498C71.0915 5.49214 70.9189 5.54473 70.7465 5.60274C70.5738 5.6499 70.4113 5.66428 70.2589 5.64586C70.1419 5.75696 69.9862 5.83632 69.7918 5.88395C69.5972 5.92073 69.3916 5.95232 69.175 5.97872C69.1654 6.03321 69.177 6.07095 69.2101 6.09195C69.2431 6.11295 69.2494 6.15624 69.2292 6.22181C69.3072 6.31783 69.4118 6.38613 69.543 6.42671C69.6739 6.45645 69.8048 6.48618 69.9357 6.51592C70.0775 6.54542 70.2033 6.59155 70.3133 6.65431C70.423 6.70621 70.4955 6.79692 70.5309 6.92643C70.7264 6.93305 70.8958 6.98367 71.039 7.07827C71.1819 7.16203 71.3036 7.26796 71.4041 7.39606C71.5046 7.52416 71.5781 7.66369 71.6248 7.81467C71.6713 7.95479 71.6904 8.08465 71.6821 8.20425C71.7279 8.31182 71.7722 8.35429 71.8152 8.33165C71.8689 8.30877 71.9292 8.3346 71.996 8.40915C72.0429 8.57098 72.1443 8.74248 72.3002 8.92366C72.4667 9.09376 72.5956 9.28095 72.6869 9.48524C72.7157 9.81031 72.7383 10.1029 72.7548 10.3631C72.7821 10.6231 72.7442 10.879 72.6411 11.1309C72.467 11.6124 72.2104 12.0468 71.8714 12.4341C71.5324 12.8214 71.1436 13.1663 70.705 13.4689C70.2771 13.7604 69.8213 14.02 69.3377 14.2476C68.8539 14.4643 68.3748 14.6484 67.9004 14.7998C67.8567 14.7899 67.8025 14.7911 67.7376 14.8033C67.6836 14.8153 67.672 14.783 67.7029 14.7064C67.6072 14.7953 67.4944 14.852 67.3647 14.8765C67.2458 14.9008 67.1102 14.9092 66.9581 14.9016C66.817 14.9047 66.6704 14.9024 66.5183 14.8948C66.377 14.887 66.236 14.8955 66.0954 14.9203C66.0067 14.8354 65.9235 14.7503 65.8456 14.6651C65.7787 14.5797 65.7222 14.4778 65.6762 14.3594C65.6217 14.3497 65.5939 14.3178 65.5927 14.2635C65.6021 14.1982 65.5797 14.1661 65.5255 14.1673C65.5245 14.1239 65.5293 14.0912 65.5396 14.0692C65.55 14.0473 65.5604 14.0254 65.5708 14.0034C65.6135 13.9699 65.6293 13.9479 65.6182 13.9373C65.6177 13.9156 65.6011 13.8996 65.5683 13.8895C65.5461 13.8683 65.5185 13.8471 65.4855 13.8262C65.4634 13.8049 65.4573 13.7779 65.4675 13.7451C65.5196 13.6463 65.5334 13.532 65.5089 13.4023C65.495 13.2614 65.4811 13.1206 65.4672 12.9798C65.4533 12.8389 65.4613 12.7085 65.4913 12.5884C65.521 12.4575 65.6109 12.347 65.761 12.2569C66.2068 12.2907 66.6241 12.2599 67.0128 12.1647C67.4125 12.0692 67.7842 11.9417 68.1282 11.7823C68.483 11.6226 68.8158 11.4526 69.1268 11.2721C69.4483 11.0806 69.7593 10.9056 70.0599 10.7471C70.0901 10.6379 70.1369 10.5446 70.2004 10.4673C70.2747 10.3897 70.3491 10.3175 70.4237 10.2507C70.498 10.1731 70.5669 10.0956 70.6303 10.0183C70.6936 9.93006 70.7402 9.82592 70.7701 9.70585C70.7801 9.66222 70.7793 9.62966 70.768 9.60819C70.7567 9.58673 70.7401 9.5708 70.7181 9.56042C70.696 9.53919 70.6738 9.51796 70.6516 9.49672C70.6295 9.47549 70.6179 9.44317 70.617 9.39977C70.5842 9.38962 70.5514 9.37948 70.5186 9.36933C70.4967 9.35895 70.4748 9.35399 70.4531 9.35446C70.168 9.2195 69.867 9.1066 69.5502 9.01575C69.2334 8.9249 68.9652 8.82215 68.7456 8.70748C68.6172 8.79711 68.4875 8.82163 68.3563 8.78104C68.2252 8.74046 68.0669 8.70046 67.8815 8.66105C67.4253 8.64921 66.9903 8.6152 66.5766 8.55902C66.1737 8.5026 65.7806 8.39712 65.3972 8.24257C65.3741 8.17793 65.3458 8.12427 65.3123 8.08157C65.2786 8.02802 65.2023 8.01338 65.0834 8.03767C65.0051 7.9308 64.9216 7.8349 64.8329 7.74997C64.7548 7.65396 64.682 7.54697 64.6143 7.42902Z" fill="#00408F"/>
<path d="M74.9075 5.36612C74.8948 5.27955 74.8714 5.20406 74.8375 5.13966C74.8141 5.06417 74.7852 4.98338 74.7508 4.89727C74.6937 4.76823 74.6418 4.62823 74.5952 4.47725C74.5485 4.32628 74.5229 4.1477 74.5184 3.94153C74.5378 3.83255 74.5633 3.75601 74.5949 3.7119C74.6262 3.65694 74.6579 3.61283 74.6897 3.57957L74.7485 3.28518L74.9926 3.2799C75.0797 3.28887 75.1666 3.29242 75.2534 3.29054C75.3511 3.28843 75.4433 3.28643 75.5301 3.28455C75.9424 3.27563 76.3653 3.25019 76.7986 3.20824C77.232 3.1663 77.676 3.11869 78.1308 3.06542C78.6286 2.98951 79.1646 2.92906 79.7391 2.88405C79.7907 2.76352 79.8216 2.68686 79.8318 2.65407C79.8528 2.62105 79.8737 2.5826 79.8944 2.53872L80.0713 2.43719C80.3207 2.42094 80.495 2.44973 80.5943 2.52357C80.6934 2.58657 80.7708 2.65003 80.8264 2.71396C81.1081 2.68615 81.395 2.6528 81.6873 2.61391C81.9794 2.56416 82.2822 2.51418 82.596 2.46397C83.0289 2.40032 83.4672 2.33655 83.9109 2.27267C84.3546 2.20878 84.788 2.17226 85.2112 2.1631C85.3957 2.15911 85.5694 2.16078 85.7324 2.16811C85.8954 2.17543 86.0531 2.1883 86.2055 2.20672L86.404 2.34898C86.4491 2.424 86.5048 2.49336 86.5714 2.55705C86.6379 2.62075 86.7152 2.68421 86.8035 2.74744C86.969 2.87413 87.1299 3.03349 87.286 3.22552C87.453 3.41732 87.5189 3.70358 87.4838 4.08431L87.4059 4.24884C87.3634 4.29318 87.3101 4.33776 87.246 4.38257L87.0878 4.59769L86.9087 4.60157C86.8002 4.60391 86.7191 4.61653 86.6653 4.6394C86.6113 4.65143 86.5466 4.67454 86.4714 4.70874C86.4284 4.73138 86.3801 4.75414 86.3263 4.77701C86.2723 4.78904 86.2129 4.80661 86.1483 4.82972C86.0287 4.82145 85.9363 4.81802 85.8712 4.81943C85.8061 4.82084 85.7302 4.82248 85.6434 4.82436C85.3178 4.83141 84.9656 4.86074 84.5868 4.91237C84.2079 4.96399 83.8401 5.02081 83.4832 5.08281C83.2234 5.121 82.9746 5.15896 82.7365 5.19668C82.4983 5.22354 82.2817 5.24994 82.0869 5.27587C81.9845 5.56035 81.8922 5.81204 81.8101 6.03094C81.728 6.24984 81.6405 6.46886 81.5475 6.68799C81.4545 6.90713 81.3671 7.13157 81.2853 7.36132C81.2031 7.58022 81.127 7.82613 81.057 8.09905C80.931 8.29719 80.8266 8.48943 80.7438 8.67578C80.6607 8.85128 80.5945 9.05355 80.5452 9.28259C80.3864 9.47059 80.2714 9.67391 80.2001 9.89258C80.1397 10.111 80.084 10.2968 80.0331 10.4499L79.9733 10.6954C79.8989 10.773 79.8514 10.8338 79.8306 10.8776C79.8207 10.9213 79.7947 10.9707 79.7524 11.0259C79.7229 11.1676 79.6825 11.3042 79.631 11.4356C79.6105 11.4903 79.5901 11.5505 79.5698 11.6161C79.5493 11.6708 79.5448 11.7143 79.5563 11.7466C79.5372 11.8665 79.5067 11.9594 79.4647 12.0254C79.4661 12.0906 79.4621 12.1558 79.4526 12.2211C79.4432 12.2865 79.4337 12.3518 79.4243 12.4171C79.4042 12.4936 79.3895 12.5645 79.38 12.6298C79.3704 12.6843 79.377 12.7384 79.3998 12.7922C79.4333 12.8349 79.4668 12.8776 79.5003 12.9203C79.5338 12.963 79.5621 13.0167 79.5852 13.0813C79.6074 13.1025 79.6349 13.1182 79.6677 13.1284C79.7004 13.1385 79.7279 13.1542 79.7501 13.1755C79.8385 13.2495 79.9209 13.2912 79.9971 13.3004L80.1641 13.4922C80.2376 13.8814 80.1845 14.1865 80.0047 14.4075C79.8148 14.6613 79.492 14.7932 79.0362 14.803L78.808 14.7917C78.7304 14.7174 78.686 14.6695 78.6746 14.648C78.576 14.6067 78.4938 14.5705 78.428 14.5394C78.3624 14.5191 78.3017 14.4715 78.2458 14.3968C78.2236 14.3755 78.1963 14.3653 78.1637 14.366C78.1309 14.3558 78.1035 14.3401 78.0813 14.3189C77.9721 14.2887 77.8844 14.2526 77.8184 14.2106L77.6372 14.1168C77.6457 14.0081 77.6495 13.932 77.6486 13.8886C77.5592 13.7711 77.4858 13.6424 77.4285 13.5025C77.3821 13.3624 77.3409 13.2167 77.3051 13.0655C77.2699 12.9469 77.235 12.8391 77.2004 12.7421C77.1766 12.6449 77.1367 12.5589 77.0808 12.4841C77.0427 11.725 77.0995 11.0887 77.2512 10.5752C77.4027 10.0508 77.5708 9.54238 77.7556 9.04986C77.8584 8.78708 77.9558 8.519 78.0475 8.24561C78.1393 7.97222 78.2202 7.69364 78.29 7.40986L78.4652 7.22695C78.5397 7.1602 78.5877 7.12116 78.6092 7.10984C78.6061 6.96878 78.6303 6.83255 78.6818 6.70116C78.733 6.55893 78.7896 6.41657 78.8517 6.2741C78.8932 6.18635 78.9293 6.09872 78.96 6.0112C79.0015 5.92346 79.027 5.84691 79.0364 5.78157C78.9605 5.78322 78.89 5.79017 78.8252 5.80243C78.7709 5.8036 78.7113 5.81032 78.6465 5.82258C78.5061 5.85818 78.3708 5.8774 78.2406 5.88022C78.1429 5.88233 78.0723 5.87843 78.0287 5.86852C77.9428 5.9138 77.862 5.94269 77.7863 5.95519C77.7103 5.95683 77.6344 5.95847 77.5584 5.96012L77.3631 5.96435L77.1678 5.96857C77.0376 5.97139 76.9348 5.9899 76.8596 6.0241C76.7077 6.02738 76.61 6.0295 76.5666 6.03044C76.5232 6.03138 76.4744 6.03243 76.4201 6.03361L76.2248 6.03783L76.0295 6.04206C75.9427 6.04394 75.8449 6.04063 75.7361 6.03213C75.6272 6.01277 75.5123 5.97184 75.3915 5.90931L75.2748 5.78157C75.2071 5.66361 75.146 5.5998 75.0915 5.59012L74.9114 5.54517L74.9075 5.36612Z" fill="#00408F"/>
<path d="M84.1687 12.803L84.3768 12.6356L84.3857 12.2935C84.6426 11.6257 84.9056 10.9849 85.1746 10.3711C85.4544 9.75715 85.7447 9.12663 86.0456 8.47961C86.1388 8.27133 86.232 8.06304 86.3252 7.85476C86.4292 7.64624 86.5277 7.43241 86.6207 7.21328C86.6089 7.17011 86.6025 7.12682 86.6016 7.08342C86.6004 7.02916 86.61 6.96924 86.6303 6.90367C86.7775 6.68336 86.8926 6.48546 86.9757 6.30996C87.0696 6.13423 87.1579 5.95319 87.2407 5.76684C87.3337 5.54771 87.4321 5.32846 87.5359 5.10909C87.6506 4.88948 87.7925 4.67471 87.9616 4.46479L88.072 4.29955L88.2514 4.31196C88.2944 4.28932 88.3374 4.2721 88.3806 4.26031C88.4344 4.23743 88.4993 4.22517 88.5752 4.22353L88.8692 4.26602C89.2238 4.0955 89.5334 3.85539 89.7981 3.54569C90.0735 3.2249 90.3475 2.84444 90.6202 2.40429L90.8095 2.12336L91.0735 2.28049C91.1285 2.31187 91.216 2.34254 91.336 2.37251C91.4561 2.40248 91.5817 2.43776 91.7129 2.47834C91.9419 2.52767 92.1658 2.58796 92.3844 2.65922C92.6029 2.71963 92.773 2.80822 92.895 2.925L92.9795 3.06973C93.0038 3.18862 93.0225 3.29678 93.0354 3.3942C93.0592 3.49139 93.0831 3.58858 93.1069 3.68577C93.1552 3.91271 93.1981 4.13976 93.2356 4.36692C93.2729 4.58324 93.2998 4.82692 93.3166 5.09796C93.3755 5.31381 93.4292 5.5352 93.4775 5.76213C93.5364 5.97798 93.59 6.19395 93.6381 6.41003C93.6991 6.72353 93.7654 7.02607 93.8368 7.31764C93.9081 7.59836 94.0007 7.86776 94.1149 8.12584C94.2234 8.12349 94.2886 8.1275 94.3106 8.13788C94.4396 8.08081 94.5908 8.04497 94.7642 8.03036L94.9754 8.0095L95.0448 8.20342C95.0672 8.2355 95.095 8.26746 95.1283 8.29931C95.1615 8.33116 95.2002 8.36289 95.2443 8.39451C95.4182 8.4016 95.5438 8.43688 95.6211 8.50034C95.7091 8.55272 95.7808 8.60545 95.8363 8.65853C95.8584 8.67976 95.8861 8.7063 95.9194 8.73815C95.9524 8.75915 95.9799 8.77484 96.0018 8.78522L96.2973 8.89281L96.1412 9.20559C96.0268 9.43605 95.8471 9.66249 95.6023 9.88491C95.3682 10.1071 95.1008 10.292 94.8001 10.4397C94.8234 10.5151 94.8358 10.5854 94.8372 10.6505C94.8494 10.7154 94.8674 10.791 94.8909 10.8774C94.939 11.0934 94.9765 11.3206 95.0034 11.5589C95.0409 11.786 95.046 12.0248 95.0189 12.275C94.9165 12.5595 94.7918 12.8173 94.6448 13.0485C94.5084 13.2686 94.3392 13.4731 94.137 13.662C93.9454 13.8398 93.7262 13.9911 93.4792 14.1159C93.2319 14.2298 92.9728 14.2951 92.7018 14.3119C92.5492 14.2826 92.4344 14.2471 92.3575 14.2053C92.2914 14.1633 92.2308 14.1212 92.1756 14.079C92.0874 14.0158 92.0159 13.9739 91.9612 13.9534L91.7475 13.8603L91.8073 13.6147C91.838 13.5272 91.8309 13.4514 91.7861 13.3872C91.7522 13.3228 91.6743 13.2376 91.5526 13.1317C91.5085 13.1001 91.4698 13.0684 91.4366 13.0365C91.4031 12.9938 91.3642 12.9512 91.3198 12.9088L90.9862 12.5414L91.5201 12.3833C91.8438 12.2895 92.0585 12.1763 92.1642 12.0437C92.2696 11.9003 92.3077 11.6552 92.2785 11.3084C92.0061 11.2601 91.7835 11.2594 91.6108 11.3066C91.4379 11.3429 91.2651 11.3847 91.0924 11.4318C90.8443 11.5023 90.6014 11.5673 90.3639 11.6267C90.1261 11.6753 89.8661 11.7026 89.584 11.7087C89.3995 11.7127 89.2038 11.7007 88.997 11.6726L88.8176 11.6602L88.7649 11.4822C88.7644 11.4605 88.7477 11.4391 88.7146 11.4181C88.6922 11.3861 88.6699 11.3594 88.6478 11.3382C88.5921 11.2742 88.5251 11.1888 88.4468 11.082C88.3685 10.9751 88.3493 10.8398 88.3892 10.6761C88.3106 10.5584 88.2645 10.4345 88.2509 10.3046C88.2093 10.3923 88.1732 10.4799 88.1426 10.5675C88.1225 10.6439 88.1024 10.7203 88.0824 10.7967L88.0219 11.0097L87.811 11.0469C87.7897 11.069 87.7687 11.1021 87.748 11.1459C87.7381 11.1896 87.7388 11.2221 87.7501 11.2436L87.8191 11.4212L87.6595 11.5713C87.6385 11.6043 87.6119 11.632 87.5799 11.6544C87.5478 11.6768 87.5211 11.6991 87.4999 11.7213C87.4808 11.8411 87.4507 11.9557 87.4096 12.0652C87.3794 12.1744 87.3438 12.2837 87.3027 12.3932C87.2522 12.568 87.2016 12.7373 87.1509 12.9013C87.111 13.065 87.0928 13.2282 87.0963 13.391L87.0358 13.604C86.9834 13.692 86.9143 13.7586 86.8285 13.8039C86.7534 13.8489 86.6783 13.8886 86.603 13.9228C86.4955 13.9685 86.4205 14.0136 86.378 14.0579L86.3337 14.2706L86.0903 14.3084C85.9499 14.344 85.8473 14.3679 85.7825 14.3802C85.7284 14.3922 85.6634 14.3991 85.5875 14.4007L85.3755 14.389C85.2425 14.2616 85.1319 14.1663 85.0437 14.1031C84.9661 14.0288 84.8724 13.9656 84.7627 13.9137L84.6623 13.7856C84.617 13.6998 84.5882 13.6244 84.5759 13.5595C84.5634 13.4838 84.5455 13.4082 84.5222 13.3327C84.4974 13.1921 84.4628 13.0952 84.4182 13.0418L84.1687 12.803ZM89.2694 8.45869C89.1222 8.679 88.9806 8.91004 88.8447 9.15182C88.9204 9.13932 88.9909 9.13237 89.056 9.13096C89.1319 9.12932 89.2078 9.12225 89.2835 9.10975C89.6628 9.07983 90.0149 9.04507 90.3397 9.00547C90.6645 8.96587 91.016 8.90398 91.3942 8.81981C91.2987 8.4202 91.1922 8.01539 91.0747 7.6054C90.9679 7.18432 90.8503 6.76348 90.7217 6.34287L90.6439 6.5074C90.3789 6.80625 90.1253 7.12657 89.883 7.46835C89.6407 7.81014 89.4415 8.13471 89.2853 8.44206L89.2694 8.45869Z" fill="#00408F"/>
<path d="M97.8264 13.4519C97.782 13.4094 97.743 13.3614 97.7093 13.3078C97.6753 13.2434 97.6464 13.1626 97.6226 13.0655C97.4667 12.8843 97.3427 12.6753 97.2508 12.4384C97.1588 12.2016 97.0938 11.9587 97.0559 11.7099C97.0177 11.4501 97.0066 11.1898 97.0227 10.9289C97.0388 10.668 97.0714 10.4231 97.1208 10.194C97.151 10.0848 97.1756 9.97027 97.1948 9.85044C97.2446 9.6431 97.2945 9.44118 97.3445 9.24469C97.3943 9.03734 97.472 8.86739 97.5777 8.73483C97.5317 8.6164 97.5343 8.48607 97.5855 8.34383C97.6367 8.2016 97.6882 8.07021 97.7399 7.94967C97.7609 7.91665 97.7765 7.88917 97.7869 7.86723C97.7971 7.83445 97.8073 7.80708 97.8177 7.78515C97.9397 7.40254 98.0566 7.03633 98.1685 6.68651C98.2909 6.32561 98.4083 5.9811 98.5206 5.65298C98.7247 5.05148 98.9182 4.46106 99.1011 3.88172C99.2948 3.30215 99.466 2.68508 99.6147 2.03049C99.7001 1.9635 99.7751 1.91845 99.8397 1.89534C99.8612 1.88402 99.8881 1.87258 99.9204 1.86103C99.9528 1.84947 99.9906 1.84323 100.034 1.84229C100.264 1.95672 100.533 2.0649 100.839 2.16683C101.156 2.25768 101.423 2.30076 101.64 2.29606L101.922 2.53422C102.066 2.69393 102.189 2.86497 102.291 3.04732C102.403 3.21859 102.441 3.44576 102.403 3.72883C102.341 3.8279 102.288 3.88875 102.245 3.91139C102.185 4.16238 102.119 4.38635 102.047 4.58331C101.975 4.76942 101.903 4.95011 101.831 5.12537C101.749 5.32257 101.671 5.51965 101.6 5.71661C101.528 5.91358 101.468 6.15371 101.42 6.43701C101.356 6.51438 101.314 6.58042 101.294 6.63515C101.284 6.68964 101.269 6.74425 101.249 6.79897C101.228 6.86455 101.203 6.93567 101.172 7.01233C101.141 7.07814 101.093 7.13888 101.029 7.19454C100.993 7.53187 100.934 7.80998 100.852 8.02888C100.77 8.23693 100.687 8.44498 100.605 8.65303C100.461 9.0361 100.328 9.41894 100.206 9.80155C100.084 10.1733 100.017 10.5981 100.006 11.0761C100.135 11.0407 100.254 11.0218 100.363 11.0195C100.504 11.0164 100.64 11.0352 100.771 11.0758C101.158 10.872 101.578 10.7435 102.033 10.6902C102.499 10.6367 102.959 10.5996 103.415 10.5789C103.795 10.5707 104.147 10.5468 104.472 10.5072C104.582 10.5808 104.653 10.6226 104.686 10.6328C104.719 10.6321 104.773 10.6309 104.849 10.6293C104.881 10.6286 104.914 10.6279 104.947 10.6272C104.979 10.6264 105.023 10.6309 105.077 10.6406C105.232 10.7892 105.381 10.8946 105.524 10.9566C105.666 11.0078 105.819 11.0588 105.983 11.1095C106.125 11.1607 106.262 11.2175 106.394 11.2798C106.536 11.331 106.673 11.404 106.806 11.4988L106.97 12.3258C107.059 12.4433 107.099 12.5238 107.089 12.5675C107.091 12.6543 107.071 12.7307 107.029 12.7967L107.066 13.0076C106.861 13.0555 106.726 13.1073 106.662 13.1629C106.598 13.2077 106.529 13.2689 106.455 13.3465C106.336 13.36 106.222 13.3679 106.113 13.3702C105.896 13.3749 105.675 13.4123 105.448 13.4823C105.12 13.37 104.761 13.3181 104.37 13.3265C104.218 13.3298 104.061 13.3387 103.898 13.353C103.747 13.3672 103.595 13.3867 103.444 13.4117C103.281 13.4369 103.119 13.4622 102.957 13.4874C102.794 13.5018 102.631 13.5107 102.469 13.5142C102.339 13.5388 102.247 13.557 102.193 13.5691C102.139 13.5811 102.085 13.5985 102.031 13.6214C101.665 13.7488 101.266 13.8768 100.835 14.0056C100.414 14.1341 99.9867 14.203 99.5527 14.2124C98.9125 14.2263 98.3935 14.0747 97.9958 13.7576C97.9503 13.6609 97.9163 13.5965 97.8939 13.5644C97.8715 13.5323 97.849 13.4948 97.8264 13.4519Z" fill="#00408F"/>
<path d="M108.957 13.211C108.913 13.1685 108.874 13.1205 108.84 13.0669C108.806 13.0025 108.777 12.9217 108.753 12.8246C108.597 12.6434 108.473 12.4344 108.381 12.1975C108.289 11.9607 108.224 11.7178 108.186 11.4689C108.148 11.2092 108.137 10.9489 108.153 10.688C108.169 10.4271 108.202 10.1822 108.251 9.95311C108.282 9.84389 108.306 9.72937 108.325 9.60954C108.375 9.40219 108.425 9.20027 108.475 9.00378C108.525 8.79644 108.603 8.62648 108.708 8.49392C108.662 8.3755 108.665 8.24517 108.716 8.10293C108.767 7.96069 108.819 7.82931 108.87 7.70877C108.891 7.67575 108.907 7.64827 108.918 7.62633C108.928 7.59354 108.938 7.56618 108.948 7.54424C109.07 7.16164 109.187 6.79542 109.299 6.44561C109.422 6.0847 109.539 5.74019 109.651 5.41208C109.855 4.81057 110.049 4.22015 110.232 3.64082C110.425 3.06125 110.597 2.44417 110.745 1.78958C110.831 1.7226 110.906 1.67755 110.97 1.65444C110.992 1.64312 111.019 1.63168 111.051 1.62012C111.083 1.60857 111.121 1.60232 111.165 1.60138C111.395 1.71581 111.663 1.82399 111.97 1.92593C112.286 2.01678 112.553 2.05985 112.77 2.05516L113.052 2.29332C113.197 2.45303 113.32 2.62406 113.422 2.80642C113.534 2.97769 113.571 3.20486 113.534 3.48792C113.471 3.58699 113.418 3.64785 113.375 3.67049C113.315 3.92147 113.25 4.14545 113.178 4.34241C113.106 4.52852 113.034 4.70921 112.962 4.88447C112.879 5.08167 112.802 5.27875 112.73 5.47571C112.659 5.67267 112.599 5.91281 112.551 6.19611C112.487 6.27347 112.445 6.33952 112.425 6.39425C112.415 6.44874 112.4 6.50334 112.379 6.55807C112.359 6.62364 112.333 6.69476 112.302 6.77143C112.271 6.83724 112.224 6.89798 112.16 6.95364C112.124 7.29096 112.065 7.56907 111.982 7.78797C111.9 7.99602 111.818 8.20407 111.735 8.41212C111.592 8.7952 111.459 9.17804 111.337 9.56064C111.215 9.9324 111.148 10.3572 111.136 10.8351C111.266 10.7998 111.385 10.7809 111.494 10.7786C111.635 10.7755 111.771 10.7943 111.902 10.8349C112.288 10.6311 112.709 10.5026 113.164 10.4493C113.629 10.3958 114.09 10.3587 114.545 10.338C114.925 10.3298 115.278 10.3059 115.602 10.2663C115.712 10.3399 115.784 10.3817 115.817 10.3919C115.849 10.3912 115.904 10.39 115.98 10.3884C116.012 10.3877 116.045 10.387 116.077 10.3862C116.11 10.3855 116.153 10.39 116.208 10.3997C116.363 10.5483 116.512 10.6537 116.654 10.7157C116.796 10.7669 116.95 10.8179 117.114 10.8686C117.256 10.9198 117.393 10.9766 117.524 11.0389C117.667 11.0901 117.804 11.1631 117.936 11.2579L118.101 12.0849C118.19 12.2023 118.23 12.2829 118.22 12.3266C118.222 12.4134 118.202 12.4898 118.16 12.5558L118.197 12.7667C117.992 12.8146 117.857 12.8664 117.793 12.922C117.729 12.9668 117.66 13.028 117.585 13.1056C117.466 13.1191 117.352 13.127 117.244 13.1293C117.027 13.134 116.805 13.1714 116.579 13.2414C116.251 13.1291 115.891 13.0772 115.501 13.0856C115.349 13.0889 115.191 13.0977 115.029 13.1121C114.877 13.1263 114.726 13.1458 114.574 13.1708C114.412 13.196 114.25 13.2213 114.087 13.2465C113.925 13.2609 113.762 13.2698 113.599 13.2733C113.47 13.2979 113.378 13.3161 113.324 13.3282C113.27 13.3402 113.216 13.3576 113.162 13.3805C112.796 13.5079 112.397 13.6359 111.965 13.7647C111.545 13.8932 111.117 13.9621 110.683 13.9715C110.043 13.9854 109.524 13.8338 109.126 13.5167C109.081 13.42 109.047 13.3556 109.025 13.3235C109.002 13.2914 108.98 13.2539 108.957 13.211Z" fill="#00408F"/>
<path d="M120.072 13.0192C119.984 12.9343 119.916 12.8326 119.87 12.7142C119.835 12.5956 119.746 12.4998 119.604 12.4269C119.578 12.2646 119.542 12.0808 119.494 11.8756C119.457 11.6593 119.414 11.4431 119.366 11.227C119.328 10.9998 119.296 10.778 119.27 10.5614C119.254 10.3338 119.261 10.1274 119.289 9.94219C119.309 9.84406 119.339 9.75112 119.381 9.66337C119.433 9.57539 119.48 9.49295 119.522 9.41605C119.574 9.32807 119.611 9.24044 119.63 9.15316C119.661 9.06565 119.665 8.97872 119.641 8.89239C119.706 8.88013 119.743 8.84675 119.753 8.79226C119.773 8.72668 119.827 8.70381 119.914 8.72363C119.985 8.48326 120.062 8.25906 120.144 8.05101C120.226 7.84296 120.314 7.64022 120.408 7.44278C120.501 7.24535 120.594 7.04792 120.688 6.85048C120.792 6.64196 120.885 6.41198 120.966 6.16052C120.778 5.9909 120.638 5.80937 120.547 5.61593C120.467 5.4114 120.403 5.20652 120.355 5.00129C120.307 4.79606 120.27 4.59059 120.244 4.38489C120.217 4.16834 120.169 3.95226 120.099 3.73665C120.225 3.53851 120.379 3.37776 120.561 3.25441C120.743 3.12021 120.941 3.01277 121.157 2.93212C121.383 2.84038 121.625 2.76999 121.885 2.72095C122.144 2.66106 122.42 2.59539 122.711 2.52394C123.229 2.3499 123.692 2.21501 124.103 2.11928C124.513 2.0127 124.913 1.92805 125.302 1.86534C125.692 1.79178 126.097 1.72872 126.52 1.67615C126.942 1.61274 127.428 1.52621 127.98 1.41658C127.991 1.44889 128.008 1.46482 128.03 1.46435C128.062 1.46364 128.1 1.46282 128.143 1.46188C128.178 1.53714 128.238 1.57382 128.325 1.57194C128.324 1.53939 128.318 1.51238 128.307 1.49091C128.306 1.45836 128.306 1.43123 128.305 1.40953C128.327 1.40906 128.354 1.4139 128.387 1.42405C128.431 1.43396 128.463 1.4441 128.485 1.45448C128.518 1.46463 128.545 1.46404 128.567 1.45272C128.588 1.43055 128.592 1.39246 128.58 1.33843C128.716 1.56349 128.888 1.74974 129.097 1.8972C129.307 2.0338 129.537 2.15365 129.789 2.25676C129.802 2.35419 129.804 2.42472 129.794 2.46836C129.795 2.51176 129.79 2.55528 129.78 2.59892C129.77 2.63171 129.766 2.67523 129.767 2.72949C129.768 2.77289 129.78 2.83776 129.804 2.9241C129.636 3.22084 129.44 3.45306 129.216 3.62075C129.003 3.78822 128.772 3.91805 128.524 4.01026C128.277 4.10247 128.012 4.17333 127.731 4.22284C127.461 4.27212 127.18 4.32706 126.888 4.38765C126.607 4.43716 126.32 4.50849 126.029 4.60164C125.738 4.69479 125.453 4.83123 125.175 5.01095C125.088 4.98028 125.006 4.97119 124.93 4.98368C124.865 4.98509 124.795 4.99747 124.719 5.02082C124.644 5.04416 124.558 5.06774 124.46 5.09156C124.374 5.11514 124.265 5.11749 124.135 5.09861C124.05 5.17644 123.948 5.23293 123.829 5.26806C123.721 5.30297 123.608 5.33799 123.489 5.37312C123.546 5.49131 123.571 5.6102 123.562 5.7298C123.565 5.84916 123.583 5.95189 123.618 6.038C124.074 6.07154 124.579 6.06062 125.131 6.00523C125.684 5.939 126.225 5.88928 126.757 5.85607C126.769 5.91009 126.764 5.94819 126.743 5.97036C126.722 5.99253 126.712 6.03074 126.713 6.085C126.812 6.14799 126.906 6.22738 126.995 6.32316C127.084 6.41894 127.173 6.51472 127.262 6.6105C127.361 6.6952 127.46 6.76904 127.559 6.83203C127.658 6.88418 127.773 6.90341 127.903 6.88974C127.959 6.99708 128 7.11019 128.024 7.22909C128.048 7.34798 128.035 7.47312 127.983 7.6045C127.769 7.75026 127.561 7.90133 127.358 8.05771C127.155 8.20324 126.941 8.33815 126.715 8.46244C126.501 8.5865 126.264 8.68933 126.006 8.77092C125.747 8.85251 125.465 8.89117 125.161 8.8869C125.107 8.88807 125.058 8.88913 125.015 8.89007C124.982 8.89077 124.938 8.87001 124.883 8.82778C124.776 8.88438 124.63 8.90926 124.445 8.9024C124.271 8.88445 124.125 8.9039 124.007 8.96074C123.854 8.90977 123.674 8.88652 123.468 8.89098C123.272 8.89521 123.098 8.87184 122.945 8.82087C122.756 9.10723 122.578 9.40962 122.411 9.72806C122.244 10.0357 122.099 10.3645 121.977 10.7145C122.423 10.77 122.792 10.7891 123.085 10.772C123.378 10.7548 123.654 10.7271 123.914 10.6889C124.174 10.6507 124.439 10.6124 124.709 10.574C124.991 10.5353 125.332 10.517 125.734 10.5192C126.002 10.3831 126.31 10.2896 126.656 10.2387C127.013 10.1767 127.342 10.0936 127.644 9.98934C127.753 10.0195 127.847 10.0827 127.925 10.1787C128.003 10.2638 128.075 10.3545 128.143 10.4508C128.22 10.536 128.298 10.6103 128.375 10.6737C128.453 10.7372 128.551 10.7568 128.67 10.7325C128.725 10.7856 128.759 10.85 128.772 10.9257C128.795 11.0012 128.813 11.0714 128.825 11.1362C128.848 11.2009 128.876 11.2546 128.91 11.2973C128.943 11.3291 129.003 11.3387 129.09 11.3259C128.893 11.7536 128.666 12.0842 128.411 12.3177C128.166 12.5509 127.883 12.7362 127.56 12.8735C127.248 12.9996 126.892 13.0996 126.492 13.1734C126.102 13.2361 125.664 13.3162 125.178 13.4136C125.059 13.4378 124.956 13.4401 124.869 13.4202C124.792 13.3893 124.71 13.3748 124.623 13.3767C124.321 13.4375 123.958 13.4997 123.536 13.5631C123.125 13.6263 122.708 13.657 122.284 13.6553C121.861 13.6536 121.453 13.6082 121.06 13.519C120.667 13.4298 120.338 13.2632 120.072 13.0192Z" fill="#00408F"/>
<path d="M130.468 11.9475C130.414 11.9595 130.365 11.9226 130.319 11.8367C130.274 11.74 130.223 11.6488 130.167 11.5632L130.346 11.5593C130.265 11.3222 130.239 11.1057 130.267 10.9096C130.306 10.7025 130.35 10.5061 130.401 10.3205C130.451 10.124 130.49 9.9386 130.519 9.76428C130.558 9.57887 130.538 9.38933 130.458 9.19565C130.513 9.22703 130.55 9.21536 130.571 9.16064C130.602 9.09483 130.622 9.0184 130.631 8.93136C130.651 8.83323 130.654 8.73545 130.641 8.63802C130.639 8.52951 130.631 8.44282 130.619 8.37795C130.753 8.03851 130.854 7.68893 130.922 7.3292C131.001 6.96924 131.07 6.61493 131.127 6.26629C131.184 5.9068 131.248 5.56346 131.317 5.23628C131.396 4.89802 131.498 4.58099 131.622 4.2852C131.773 4.26021 131.931 4.2785 132.095 4.34009C132.27 4.39058 132.385 4.45865 132.441 4.54428C132.772 4.27658 133.064 3.95544 133.316 3.58087C133.569 3.20629 133.821 2.84257 134.074 2.4897C134.338 2.12574 134.635 1.80449 134.965 1.52593C135.296 1.24737 135.71 1.07556 136.208 1.01051C136.472 1.18934 136.77 1.38374 137.1 1.59372C137.43 1.79284 137.702 2.04751 137.914 2.35773C138.002 2.41011 138.085 2.46803 138.163 2.53149C138.25 2.58387 138.338 2.63624 138.426 2.68862L138.432 2.93277C138.587 3.07055 138.715 3.23604 138.817 3.42924C138.93 3.61136 139.026 3.81011 139.107 4.02549C139.198 4.22978 139.284 4.43961 139.365 4.65499C139.445 4.87037 139.536 5.06923 139.638 5.25159C139.618 5.31716 139.608 5.37708 139.609 5.43133C139.621 5.4745 139.633 5.5231 139.645 5.57712C139.668 5.62006 139.685 5.67396 139.698 5.73883C139.71 5.79285 139.716 5.86326 139.718 5.95007C139.687 6.52612 139.508 6.99682 139.179 7.36219C138.861 7.71647 138.466 8.01271 137.993 8.25092C137.531 8.47804 137.036 8.67874 136.508 8.85301C135.98 9.01643 135.5 9.19508 135.07 9.38894C135.071 9.43234 135.093 9.45358 135.137 9.45264C135.191 9.45146 135.208 9.48366 135.188 9.54924C135.518 9.73751 135.771 9.88945 135.947 10.0051C136.134 10.1204 136.304 10.2199 136.458 10.3034C136.622 10.3758 136.797 10.4372 136.983 10.4874C137.18 10.5375 137.447 10.5968 137.785 10.6655C138.123 10.7342 138.385 10.7936 138.57 10.8439C138.767 10.8831 138.941 10.9173 139.094 10.9466C139.246 10.965 139.409 10.9832 139.583 11.0011C139.758 11.019 139.991 11.0411 140.285 11.0673C140.407 11.1841 140.508 11.3231 140.587 11.4842C140.667 11.6453 140.724 11.8069 140.761 11.969C140.797 12.131 140.805 12.2883 140.787 12.4406C140.779 12.5819 140.738 12.6968 140.664 12.7853C140.676 12.8284 140.704 12.8495 140.747 12.8486C140.801 12.8366 140.855 12.8354 140.91 12.8451C140.835 12.901 140.771 12.9675 140.719 13.0446C140.666 13.1218 140.613 13.1989 140.561 13.276C140.508 13.3532 140.445 13.4251 140.37 13.4918C140.306 13.5584 140.22 13.5982 140.112 13.6114C139.725 13.7718 139.226 13.788 138.615 13.6601C138.004 13.5322 137.223 13.2994 136.271 12.9618C135.801 12.7982 135.418 12.6491 135.122 12.5144C134.826 12.3797 134.568 12.2496 134.348 12.124C134.128 11.9877 133.924 11.8455 133.736 11.6976C133.548 11.5388 133.332 11.3535 133.089 11.1417C133.057 11.1532 133.035 11.1754 133.025 11.2082C133.026 11.2407 133.01 11.2628 132.978 11.2743C132.933 11.7096 132.854 12.0641 132.74 12.338C132.638 12.6116 132.481 12.8918 132.27 13.1786C132.096 13.1498 131.977 13.1687 131.913 13.2352C131.86 13.3015 131.791 13.3627 131.705 13.4188C131.597 13.4429 131.516 13.4392 131.461 13.4078C131.406 13.3873 131.357 13.3612 131.313 13.3296C131.268 13.298 131.219 13.2665 131.164 13.2351C131.109 13.2038 131.022 13.1948 130.903 13.2082C130.868 13.1113 130.834 13.0197 130.799 12.9336C130.765 12.8367 130.677 12.7952 130.536 12.8091C130.566 12.7107 130.575 12.6291 130.563 12.5642C130.551 12.4885 130.533 12.4237 130.51 12.3699C130.487 12.3053 130.464 12.2407 130.441 12.176C130.429 12.1112 130.438 12.035 130.468 11.9475ZM135.744 4.39139C135.607 4.60061 135.454 4.79391 135.284 4.97129C135.114 5.13781 134.944 5.31518 134.775 5.50341C134.616 5.68055 134.473 5.87904 134.348 6.09888C134.222 6.30787 134.135 6.55944 134.087 6.85359C134.542 6.78947 135.017 6.65435 135.512 6.44823C136.006 6.23126 136.474 6.02572 136.915 5.83162C136.852 5.43131 136.704 5.11425 136.471 4.88046C136.238 4.63582 135.995 4.4728 135.744 4.39139Z" fill="#00408F"/>
<path d="M24.2397 52.6278C25.5703 51.4034 26.8215 50.2522 28.1133 49.146C28.1762 49.0916 28.2403 49.0338 28.3056 48.9741C28.3476 48.9355 28.3902 48.8961 28.4332 48.8563C29.1611 48.1827 30.0212 47.3868 30.9875 48.345C31.9895 49.344 31.1371 50.1858 30.4311 50.8832C30.3366 50.9765 30.2448 51.0673 30.1603 51.1554C27.6813 53.7674 25.1381 56.3117 22.5834 58.8603C21.848 59.5887 21.0489 60.1448 19.8482 59.6492C18.5731 59.1288 18.5093 58.1087 18.5016 57.0287C18.4717 52.852 19.1345 48.7846 20.6545 44.8832C20.8082 44.4872 21.1733 43.9218 21.7318 43.9503C22.248 44.1117 22.2832 44.8424 22.2467 45.2733C22.184 46.2058 22.0457 47.1386 21.8844 48.2272C21.8235 48.638 21.7593 49.0711 21.6947 49.5346C26.4565 43.1438 32.2753 38.5543 38.6422 34.6363C44.6787 30.9186 50.9562 27.712 57.9109 26.0555C58.4257 25.9306 58.972 25.82 59.479 25.8153C59.5119 25.8153 59.5438 25.8152 59.5747 25.8151C60.2425 25.8133 60.4628 25.8126 60.8267 26.4263C61.0345 26.9888 60.3944 27.5514 59.9879 27.7929C59.1316 28.284 58.2073 28.6788 57.2881 29.0714C57.0402 29.1773 56.7927 29.2831 56.547 29.3905C47.1469 33.5029 38.1815 38.368 30.3087 45.0603C27.4107 47.527 24.621 50.1102 22.7283 53.4971C22.6342 53.7014 22.5401 53.9058 22.2855 54.4173C22.963 53.8027 23.6105 53.2068 24.2397 52.6278Z" fill="#00408F"/>
</svg>
