<svg width="38" height="39" viewBox="0 0 38 39" fill="none" xmlns="http://www.w3.org/2000/svg">
<path d="M10.2526 13.3788C9.54373 13.3788 8.85078 13.1686 8.26136 12.7747C7.67195 12.3809 7.21256 11.8211 6.94129 11.1662C6.67001 10.5113 6.59903 9.79063 6.73733 9.09537C6.87562 8.40011 7.21698 7.76148 7.71823 7.26023C8.21949 6.75897 8.85812 6.41761 9.55338 6.27932C10.2486 6.14102 10.9693 6.212 11.6242 6.48328C12.2791 6.75455 12.8389 7.21395 13.2327 7.80336C13.6266 8.39277 13.8368 9.08573 13.8368 9.79461V27.7154C13.8368 28.4243 13.6266 29.1172 13.2327 29.7066C12.8389 30.296 12.2791 30.7554 11.6242 31.0267C10.9693 31.298 10.2486 31.369 9.55338 31.2307C8.85812 31.0924 8.21949 30.751 7.71823 30.2498C7.21698 29.7485 6.87562 29.1099 6.73733 28.4146C6.59903 27.7194 6.67001 26.9987 6.94129 26.3438C7.21256 25.6889 7.67195 25.1291 8.26136 24.7353C8.85078 24.3414 9.54373 24.1312 10.2526 24.1312H28.1734C28.8823 24.1312 29.5752 24.3414 30.1646 24.7353C30.754 25.1291 31.2134 25.6889 31.4847 26.3438C31.756 26.9987 31.827 27.7194 31.6887 28.4146C31.5504 29.1099 31.209 29.7485 30.7078 30.2498C30.2065 30.751 29.5679 31.0924 28.8726 31.2307C28.1774 31.369 27.4567 31.298 26.8018 31.0267C26.1469 30.7554 25.5871 30.296 25.1933 29.7066C24.7994 29.1172 24.5892 28.4243 24.5892 27.7154V9.79461C24.5892 9.08573 24.7994 8.39277 25.1933 7.80336C25.5871 7.21395 26.1469 6.75455 26.8018 6.48328C27.4567 6.212 28.1774 6.14102 28.8726 6.27932C29.5679 6.41761 30.2065 6.75897 30.7078 7.26023C31.209 7.76148 31.5504 8.40011 31.6887 9.09537C31.827 9.79063 31.756 10.5113 31.4847 11.1662C31.2134 11.8211 30.754 12.3809 30.1646 12.7747C29.5752 13.1686 28.8823 13.3788 28.1734 13.3788H10.2526Z" stroke="#909EB8" stroke-width="2.4" stroke-linecap="round" stroke-linejoin="round"/>
</svg>
