<svg width="20" height="20" viewBox="0 0 20 20" fill="none" xmlns="http://www.w3.org/2000/svg">
<circle cx="10" cy="9.99951" r="10" fill="#006DF6"/>
<path fill-rule="evenodd" clip-rule="evenodd" d="M10 4.63818C10.173 4.63818 10.3389 4.7069 10.4612 4.8292C10.5835 4.95151 10.6522 5.11739 10.6522 5.29036V8.98601H14.3478C14.5208 8.98601 14.6867 9.05472 14.809 9.17703C14.9313 9.29933 15 9.46522 15 9.63818C15 9.81115 14.9313 9.97704 14.809 10.0993C14.6867 10.2216 14.5208 10.2904 14.3478 10.2904H10.6522V13.986C10.6522 14.159 10.5835 14.3249 10.4612 14.4471C10.3389 14.5695 10.173 14.6382 10 14.6382C9.82703 14.6382 9.66115 14.5695 9.53884 14.4471C9.41654 14.3249 9.34783 14.159 9.34783 13.986V10.2904H5.65217C5.47921 10.2904 5.31332 10.2216 5.19102 10.0993C5.06871 9.97704 5 9.81115 5 9.63818C5 9.46522 5.06871 9.29933 5.19102 9.17703C5.31332 9.05472 5.47921 8.98601 5.65217 8.98601H9.34783V5.29036C9.34783 5.11739 9.41654 4.95151 9.53884 4.8292C9.66115 4.7069 9.82703 4.63818 10 4.63818Z" fill="white" stroke="white" stroke-width="0.4"/>
</svg>
