<svg width="42" height="32" viewBox="0 0 42 32" fill="none" xmlns="http://www.w3.org/2000/svg">
<path d="M0.900156 2.54407V2.54406C0.900156 1.63953 1.6396 0.9 2.54422 0.9H39.4559C40.3605 0.9 41.1 1.63944 41.1 2.54406V29.4046C41.1 29.4046 41.1 29.4046 41.1 29.4047C41.0998 30.3094 40.3604 31.0487 39.4558 31.0487H2.54406C1.63953 31.0487 0.9 30.3093 0.9 29.4047L0.900156 2.54407Z" stroke="#006DF6" stroke-width="1.8"/>
<path d="M7.03479 8.3255L10.9781 12.2688L7.18953 16.0575C7.18933 16.0577 7.18912 16.0579 7.18892 16.0581C6.82607 16.4156 6.82798 16.9987 7.18835 17.3591L7.18835 17.3591C7.31546 17.4862 7.47348 17.5694 7.63852 17.6066V17.629H7.83852C8.07773 17.629 8.31125 17.5366 8.48886 17.359L12.9276 12.9202C12.9279 12.92 12.9281 12.9198 12.9283 12.9196C13.2911 12.5621 13.2892 11.9789 12.9288 11.6186L8.33644 7.02621C8.33623 7.026 8.33602 7.02579 8.33582 7.02558C7.97851 6.66294 7.39578 6.66466 7.03538 7.02443C6.67251 7.38193 6.67442 7.96512 7.03479 8.3255Z" fill="#006DF6" stroke="#006DF6" stroke-width="0.4"/>
<path d="M23.6112 17.6288H15.2161C14.7072 17.6288 14.2961 17.2177 14.2961 16.7088C14.2961 16.1999 14.7072 15.7888 15.2161 15.7888H23.6112C24.1201 15.7888 24.5312 16.1998 24.5312 16.7087L23.6112 17.6288ZM23.6112 17.6288H23.6114C24.12 17.6288 24.5314 17.2177 24.5312 16.7088L23.6112 17.6288Z" fill="#006DF6" stroke="#006DF6" stroke-width="0.4"/>
</svg>
