<svg width="35" height="35" viewBox="0 0 35 35" fill="none" xmlns="http://www.w3.org/2000/svg">
<path d="M31.5167 7.66964V12.9623C31.5167 16.1809 30.2293 17.4683 27.0108 17.4683H23.1485C19.93 17.4683 18.6426 16.1809 18.6426 12.9623V7.66964C18.6426 4.45111 19.93 3.1637 23.1485 3.1637H27.0108C30.2293 3.1637 31.5167 4.45111 31.5167 7.66964Z" stroke="#909EB8" stroke-width="2.4" stroke-linecap="round" stroke-linejoin="round"/>
<path d="M15.7804 21.9742V27.2669C15.7804 30.4854 14.493 31.7728 11.2744 31.7728H7.41219C4.19366 31.7728 2.90625 30.4854 2.90625 27.2669V21.9742C2.90625 18.7557 4.19366 17.4683 7.41219 17.4683H11.2744C14.493 17.4683 15.7804 18.7557 15.7804 21.9742Z" stroke="#909EB8" stroke-width="2.4" stroke-linecap="round" stroke-linejoin="round"/>
<path d="M31.5161 21.7596C31.5161 27.2955 27.0388 31.7728 21.5029 31.7728L23.0049 29.2695" stroke="#909EB8" stroke-width="2.4" stroke-linecap="round" stroke-linejoin="round"/>
<path d="M2.90625 13.177C2.90625 7.64115 7.38358 3.16382 12.9195 3.16382L11.4175 5.66712" stroke="#909EB8" stroke-width="2.4" stroke-linecap="round" stroke-linejoin="round"/>
</svg>
