<svg width="34" height="34" viewBox="0 0 34 34" fill="none" xmlns="http://www.w3.org/2000/svg">
<path d="M24.0777 14.7077H26.8242C29.5707 14.7077 30.9439 13.3345 30.9439 10.588V7.84152C30.9439 5.09504 29.5707 3.7218 26.8242 3.7218H24.0777C21.3312 3.7218 19.958 5.09504 19.958 7.84152V10.588C19.958 13.3345 21.3312 14.7077 24.0777 14.7077Z" stroke="#909EB8" stroke-width="2.4" stroke-miterlimit="10" stroke-linecap="round" stroke-linejoin="round"/>
<path d="M7.59823 31.1866H10.3447C13.0912 31.1866 14.4644 29.8134 14.4644 27.0669V24.3204C14.4644 21.5739 13.0912 20.2007 10.3447 20.2007H7.59823C4.85176 20.2007 3.47852 21.5739 3.47852 24.3204V27.0669C3.47852 29.8134 4.85176 31.1866 7.59823 31.1866Z" stroke="#909EB8" stroke-width="2.4" stroke-miterlimit="10" stroke-linecap="round" stroke-linejoin="round"/>
<path d="M8.97147 14.7077C12.0052 14.7077 14.4644 12.2484 14.4644 9.21476C14.4644 6.18108 12.0052 3.7218 8.97147 3.7218C5.9378 3.7218 3.47852 6.18108 3.47852 9.21476C3.47852 12.2484 5.9378 14.7077 8.97147 14.7077Z" stroke="#909EB8" stroke-width="2.4" stroke-miterlimit="10" stroke-linecap="round" stroke-linejoin="round"/>
<path d="M25.451 31.1866C28.4846 31.1866 30.9439 28.7273 30.9439 25.6936C30.9439 22.66 28.4846 20.2007 25.451 20.2007C22.4173 20.2007 19.958 22.66 19.958 25.6936C19.958 28.7273 22.4173 31.1866 25.451 31.1866Z" stroke="#909EB8" stroke-width="2.4" stroke-miterlimit="10" stroke-linecap="round" stroke-linejoin="round"/>
</svg>
